<?xml version="1.0" encoding="UTF-8" standalone="no"?>
<svg
   width="27.781801mm"
   height="27.781572mm"
   viewBox="0 0 27.781801 27.781572"
   version="1.1"
   xml:space="preserve"
   xmlns="http://www.w3.org/2000/svg"
   xmlns:svg="http://www.w3.org/2000/svg"><g
     transform="translate(41.583546,-3.0484439)"><path
       d="m -27.738119,3.0510736 a 0.39691469,0.39691469 0 0 0 -0.295073,0.190169 l -0.706416,1.177189 c -0.12378,0.01028 -0.247255,0.02128 -0.370004,0.03514 l -0.921391,-1.015442 a 0.39691469,0.39691469 0 0 0 -0.668175,0.132809 l -0.463021,1.29191 c -0.119407,0.03439 -0.238634,0.06915 -0.356567,0.10697 l -1.101225,-0.81597 a 0.39691469,0.39691469 0 0 0 -0.629419,0.260449 l -0.202571,1.361674 c -0.108552,0.05626 -0.216809,0.112772 -0.323494,0.172082 l -1.244369,-0.587561 a 0.39691469,0.39691469 0 0 0 -0.565856,0.378272 l 0.06718,1.379244 c -0.09428,0.0753 -0.187523,0.151522 -0.279569,0.229443 l -1.339453,-0.334863 a 0.39691469,0.39691469 0 0 0 -0.481625,0.481624 l 0.334864,1.339454 c -0.07792,0.09205 -0.154146,0.18529 -0.229444,0.27957 l -1.379244,-0.06718 a 0.39691469,0.39691469 0 0 0 -0.378271,0.565857 l 0.587561,1.2443684 c -0.05931,0.106686 -0.115818,0.214943 -0.172083,0.323495 l -1.361674,0.202571 a 0.39691469,0.39691469 0 0 0 -0.260449,0.629419 l 0.815971,1.101225 c -0.03782,0.117933 -0.07258,0.23716 -0.10697,0.356567 l -1.291911,0.463021 a 0.39691469,0.39691469 0 0 0 -0.132808,0.668176 l 1.015441,0.921391 c -0.01386,0.122749 -0.02486,0.246224 -0.03514,0.370004 l -1.177189,0.706416 a 0.39691469,0.39691469 0 0 0 0,0.681096 l 1.177189,0.706416 c 0.01028,0.12378 0.02128,0.247255 0.03514,0.370004 l -1.015441,0.921391 a 0.39691469,0.39691469 0 0 0 0.132808,0.668176 l 1.291911,0.463021 c 0.03439,0.119407 0.06915,0.238633 0.10697,0.356567 l -0.815971,1.101225 a 0.39691469,0.39691469 0 0 0 0.260449,0.629419 l 1.361674,0.202571 c 0.05626,0.108552 0.112773,0.216809 0.172083,0.323495 l -0.587561,1.244368 a 0.39691469,0.39691469 0 0 0 0.378271,0.565857 l 1.379244,-0.06718 c 0.0753,0.09428 0.151523,0.187523 0.229444,0.27957 l -0.334864,1.339453 a 0.39691469,0.39691469 0 0 0 0.481625,0.481624 l 1.339453,-0.334863 c 0.09205,0.07792 0.18529,0.154145 0.279569,0.229443 l -0.06718,1.379244 a 0.39691469,0.39691469 0 0 0 0.565856,0.378272 l 1.244369,-0.58756 c 0.106686,0.05931 0.214942,0.115816 0.323494,0.172082 l 0.202571,1.361673 a 0.39691469,0.39691469 0 0 0 0.629419,0.26045 l 1.101225,-0.815972 c 0.117934,0.03782 0.23716,0.07258 0.356567,0.106971 l 0.463021,1.29191 a 0.39691469,0.39691469 0 0 0 0.668175,0.132808 l 0.921391,-1.015442 c 0.12275,0.01386 0.246224,0.02486 0.370004,0.03514 l 0.706416,1.177187 a 0.39691469,0.39691469 0 0 0 0.681096,0 l 0.706416,-1.177187 c 0.12378,-0.01028 0.247255,-0.02128 0.370004,-0.03514 l 0.921391,1.015442 a 0.39691469,0.39691469 0 0 0 0.668176,-0.132808 l 0.463021,-1.29191 c 0.119407,-0.03439 0.238633,-0.06915 0.356567,-0.106971 l 1.101225,0.815972 a 0.39691469,0.39691469 0 0 0 0.629419,-0.26045 l 0.202571,-1.361673 c 0.108552,-0.05627 0.216809,-0.112773 0.323495,-0.172082 l 1.244368,0.58756 a 0.39691469,0.39691469 0 0 0 0.565857,-0.378272 l -0.06718,-1.379244 c 0.09428,-0.0753 0.187523,-0.151522 0.27957,-0.229443 l 1.339453,0.334863 a 0.39691469,0.39691469 0 0 0 0.481624,-0.481624 l -0.334863,-1.339453 c 0.07792,-0.09205 0.154145,-0.185291 0.229443,-0.27957 l 1.379244,0.06718 a 0.39691469,0.39691469 0 0 0 0.378272,-0.565857 l -0.58756,-1.244368 c 0.05931,-0.106686 0.115816,-0.214943 0.172082,-0.323495 l 1.361673,-0.202571 a 0.39691469,0.39691469 0 0 0 0.26045,-0.629419 l -0.815972,-1.101225 c 0.03782,-0.117934 0.07258,-0.23716 0.106971,-0.356567 l 1.29191,-0.463021 a 0.39691469,0.39691469 0 0 0 0.132809,-0.668176 l -1.015443,-0.921391 c 0.01386,-0.122749 0.02486,-0.246224 0.03514,-0.370004 l 1.177187,-0.706416 a 0.39691469,0.39691469 0 0 0 0,-0.681096 l -1.177187,-0.706416 c -0.01028,-0.12378 -0.02128,-0.247255 -0.03514,-0.370004 l 1.015443,-0.921391 a 0.39691469,0.39691469 0 0 0 -0.132809,-0.668176 l -1.29191,-0.463021 c -0.03439,-0.119407 -0.06915,-0.238634 -0.106971,-0.356567 l 0.815972,-1.101225 a 0.39691469,0.39691469 0 0 0 -0.26045,-0.629419 L -16.5295,11.179777 c -0.05627,-0.108552 -0.112773,-0.216809 -0.172082,-0.323495 l 0.58756,-1.2443684 a 0.39691469,0.39691469 0 0 0 -0.378272,-0.565857 l -1.379244,0.06718 c -0.0753,-0.09428 -0.151522,-0.187523 -0.229443,-0.279569 l 0.334863,-1.339454 a 0.39691469,0.39691469 0 0 0 -0.481624,-0.481624 l -1.339453,0.334863 c -0.09205,-0.07792 -0.185291,-0.154145 -0.27957,-0.229443 l 0.06718,-1.379244 a 0.39691469,0.39691469 0 0 0 -0.565858,-0.378272 l -1.244368,0.587561 c -0.106686,-0.05931 -0.214943,-0.115817 -0.323495,-0.172082 l -0.202571,-1.361674 a 0.39691469,0.39691469 0 0 0 -0.629419,-0.260449 l -1.101225,0.81597 c -0.117934,-0.03782 -0.23716,-0.07258 -0.356567,-0.10697 l -0.463021,-1.291911 a 0.39691469,0.39691469 0 0 0 -0.668176,-0.132809 l -0.921391,1.015442 c -0.122749,-0.01386 -0.246224,-0.02486 -0.370004,-0.03514 l -0.706416,-1.177189 a 0.39691469,0.39691469 0 0 0 -0.386023,-0.190169 z m 0.04547,2.510957 a 0.79375,0.79375 0 0 1 0.79375,0.79375 0.79375,0.79375 0 0 1 -0.79375,0.79375 0.79375,0.79375 0 0 1 -0.79375,-0.79375 0.79375,0.79375 0 0 1 0.79375,-0.79375 z m -1.874821,1.364258 1.313615,1.313616 a 0.79382937,0.79382937 0 0 0 1.122412,0 l 1.313615,-1.313616 c 3.059306,0.56594 5.632484,2.489834 7.07192,5.1288864 l -0.846977,1.661915 a 0.79382937,0.79382937 0 0 0 0.347266,1.067635 l 1.653129,0.842325 c 0.05493,0.42977 0.0863,0.866979 0.0863,1.312065 0,0.267449 -0.01351,0.531587 -0.03359,0.79375 h -1.024744 a 0.1323049,0.1323049 0 0 0 -0.132292,0.132292 v 0.529166 c 0,0.501606 -0.15366,0.842941 -0.375687,1.068669 -0.222028,0.225729 -0.519483,0.338358 -0.821656,0.353467 -0.302172,0.01511 -0.605633,-0.0696 -0.825789,-0.227377 -0.220156,-0.157778 -0.358118,-0.37896 -0.358118,-0.665592 a 0.1323049,0.1323049 0 0 0 -0.0026,-0.02584 c -0.137613,-0.688068 -0.47783,-1.298555 -0.818554,-1.741496 -0.170362,-0.22147 -0.340845,-0.40108 -0.490409,-0.52865 -0.05455,-0.04652 -0.10331,-0.07805 -0.152446,-0.110587 0.877372,-0.518194 1.464247,-1.139701 1.739429,-1.809709 0.298613,-0.727059 0.272181,-1.491622 0.01395,-2.180229 -0.516427,-1.377211 -1.950367,-2.46703 -3.596661,-2.46703 h -10.829306 c 1.460694,-1.5970444 3.426089,-2.7227774 5.647198,-3.1336604 z m -8.167975,5.9489914 a 0.79375,0.79375 0 0 1 0.222726,0.03876 0.79375,0.79375 0 0 1 0.509529,0.999939 0.79375,0.79375 0 0 1 -0.999939,0.509529 0.79375,0.79375 0 0 1 -0.509529,-0.999939 0.79375,0.79375 0 0 1 0.777213,-0.548287 z m 20.085594,0 a 0.79375,0.79375 0 0 1 0.777213,0.548287 0.79375,0.79375 0 0 1 -0.509529,0.999939 0.79375,0.79375 0 0 1 -0.999939,-0.509529 0.79375,0.79375 0 0 1 0.509529,-0.999939 0.79375,0.79375 0 0 1 0.222726,-0.03876 z m -18.38854,0.359668 h 1.73116 v 6.614584 h -3.150194 c -0.272994,-0.921912 -0.42168,-1.898081 -0.42168,-2.910417 0,-0.445086 0.03137,-0.882295 0.0863,-1.312065 l 1.653129,-0.842325 a 0.79382937,0.79382937 0 0 0 0.347265,-1.067635 z m 6.229075,0 h 3.307292 c 0.507118,0 0.874682,0.127104 1.111043,0.304375 0.236361,0.17727 0.344165,0.401181 0.344165,0.621667 0,0.220486 -0.107804,0.444397 -0.344165,0.621667 -0.236361,0.177271 -0.603925,0.304375 -1.111043,0.304375 h -3.307292 z m 0,4.7625 h 2.513542 c 0.693528,0 1.085448,0.252991 1.363224,0.654224 0.277777,0.401232 0.426433,0.965001 0.558106,1.557528 0.131672,0.592526 0.246868,1.211574 0.488859,1.730127 0.241991,0.518552 0.627946,0.940528 1.265039,1.082104 a 0.1323049,0.1323049 0 0 0 0.02894,0.0031 h 4.076753 c -0.238422,0.320363 -0.496773,0.624508 -0.770495,0.914156 l -1.840198,-0.291455 a 0.79382937,0.79382937 0 0 0 -0.907955,0.659391 l -0.291972,1.841748 c -1.322628,0.626124 -2.802506,0.977201 -4.367175,0.977201 -1.564669,0 -3.044546,-0.351077 -4.367174,-0.977201 l -0.291973,-1.841747 a 0.79382937,0.79382937 0 0 0 -0.907955,-0.659391 l -1.840198,0.291455 c -0.27372,-0.289648 -0.532072,-0.593793 -0.770494,-0.914156 h 8.310085 a 0.1323049,0.1323049 0 0 0 0.132291,-0.132292 v -2.910417 a 0.1323049,0.1323049 0 0 0 -0.132291,-0.132291 h -2.248959 z m -4.058665,6.711218 a 0.79375,0.79375 0 0 1 0.421162,0.150379 0.79375,0.79375 0 0 1 0.1757,1.108976 0.79375,0.79375 0 0 1 -1.108976,0.175183 0.79375,0.79375 0 0 1 -0.175183,-1.108459 0.79375,0.79375 0 0 1 0.687297,-0.326079 z m 12.350666,0 a 0.79375,0.79375 0 0 1 0.687296,0.326079 0.79375,0.79375 0 0 1 -0.175183,1.108459 0.79375,0.79375 0 0 1 -1.108976,-0.175183 0.79375,0.79375 0 0 1 0.1757,-1.108976 0.79375,0.79375 0 0 1 0.421163,-0.150379 z"
       /></g></svg>
