999
dxfrw 0.6.3
  0
SECTION
  2
HEADER
  9
$ACADVER
  1
AC1021
  9
$DWGCODEPAGE
  3
ANSI_1252
  9
$INSBASE
 10
0
 20
0
 30
0
  9
$EXTMIN
 10
-43
 20
-43
 30
0
  9
$EXTMAX
 10
43
 20
54.37121051940998
 30
0
  9
$LIMMIN
 10
0
 20
0
  9
$LIMMAX
 10
420
 20
297
  9
$ORTHOMODE
 70
    0
  9
$REGENMODE
 70
    1
  9
$FILLMODE
 70
    1
  9
$QTEXTMODE
 70
    0
  9
$MIRRTEXT
 70
    0
  9
$LTSCALE
 40
1
  9
$ATTMODE
 70
    0
  9
$TEXTSIZE
 40
2.5
  9
$TRACEWID
 40
15.68
  9
$TEXTSTYLE
  7
STANDARD
  9
$CLAYER
  8
0
  9
$CELTYPE
  6
BYLAYER
  9
$CECOLOR
 62
  256
  9
$CELTSCALE
 40
1
  9
$DISPSILH
 70
    0
  9
$DIMSCALE
 40
1
  9
$DIMASZ
 40
2.5
  9
$DIMEXO
 40
0.625
  9
$DIMDLI
 40
3.75
  9
$DIMRND
 40
0
  9
$DIMDLE
 40
0
  9
$DIMEXE
 40
1.25
  9
$DIMTP
 40
0
  9
$DIMTM
 40
0
  9
$DIMTXT
 40
2.5
  9
$DIMCEN
 40
2.5
  9
$DIMTSZ
 40
0
  9
$DIMTOL
 70
    0
  9
$DIMLIM
 70
    0
  9
$DIMTIH
 70
    0
  9
$DIMTOH
 70
    0
  9
$DIMSE1
 70
    0
  9
$DIMSE2
 70
    0
  9
$DIMTAD
 70
    1
  9
$DIMZIN
 70
    8
  9
$DIMBLK
  1

  9
$DIMASO
 70
    1
  9
$DIMSHO
 70
    1
  9
$DIMPOST
  1

  9
$DIMAPOST
  1

  9
$DIMALT
 70
    0
  9
$DIMALTD
 70
    3
  9
$DIMALTF
 40
0.03937
  9
$DIMLFAC
 40
1
  9
$DIMTOFL
 70
    1
  9
$DIMTVP
 40
0
  9
$DIMTIX
 70
    0
  9
$DIMSOXD
 70
    0
  9
$DIMSAH
 70
    0
  9
$DIMBLK1
  1

  9
$DIMBLK2
  1

  9
$DIMSTYLE
  2
STANDARD
  9
$DIMCLRD
 70
    0
  9
$DIMCLRE
 70
    0
  9
$DIMCLRT
 70
    0
  9
$DIMTFAC
 40
1
  9
$DIMGAP
 40
0.625
  9
$DIMJUST
 70
    0
  9
$DIMSD1
 70
    0
  9
$DIMSD2
 70
    0
  9
$DIMTOLJ
 70
    0
  9
$DIMTZIN
 70
    8
  9
$DIMALTZ
 70
    0
  9
$DIMALTTZ
 70
    0
  9
$DIMUPT
 70
    0
  9
$DIMDEC
 70
    2
  9
$DIMTDEC
 70
    2
  9
$DIMALTU
 70
    2
  9
$DIMALTTD
 70
    3
  9
$DIMTXSTY
  7
STANDARD
  9
$DIMAUNIT
 70
    0
  9
$DIMADEC
 70
    0
  9
$DIMALTRND
 40
0
  9
$DIMAZIN
 70
    0
  9
$DIMDSEP
 70
   44
  9
$DIMATFIT
 70
    3
  9
$DIMFRAC
 70
    0
  9
$DIMLDRBLK
  1
STANDARD
  9
$DIMLUNIT
 70
    2
  9
$DIMLWD
 70
   -2
  9
$DIMLWE
 70
   -2
  9
$DIMTMOVE
 70
    0
  9
$DIMFXL
 40
1
  9
$DIMFXLON
 70
    0
  9
$DIMJOGANG
 40
0.7854
  9
$DIMTFILL
 70
    0
  9
$DIMTFILLCLR
 70
    0
  9
$DIMARCSYM
 70
    0
  9
$DIMLTYPE
  6

  9
$DIMLTEX1
  6

  9
$DIMLTEX2
  6

  9
$LUNITS
 70
    2
  9
$LUPREC
 70
    4
  9
$SKETCHINC
 40
1
  9
$FILLETRAD
 40
0
  9
$AUNITS
 70
    0
  9
$AUPREC
 70
    2
  9
$MENU
  1
.
  9
$ELEVATION
 40
0
  9
$PELEVATION
 40
0
  9
$THICKNESS
 40
0
  9
$LIMCHECK
 70
    0
  9
$CHAMFERA
 40
0
  9
$CHAMFERB
 40
0
  9
$CHAMFERC
 40
0
  9
$CHAMFERD
 40
0
  9
$SKPOLY
 70
    0
  9
$USRTIMER
 70
    1
  9
$ANGBASE
 50
0
  9
$ANGDIR
 70
    0
  9
$PDMODE
 70
   34
  9
$PDSIZE
 40
0
  9
$PLINEWID
 40
0
  9
$SPLFRAME
 70
    0
  9
$SPLINETYPE
 70
    2
  9
$SPLINESEGS
 70
    8
  9
$HANDSEED
  5
20000
  9
$SURFTAB1
 70
    6
  9
$SURFTAB2
 70
    6
  9
$SURFTYPE
 70
    6
  9
$SURFU
 70
    6
  9
$SURFV
 70
    6
  9
$UCSBASE
  2

  9
$UCSNAME
  2

  9
$UCSORG
 10
0
 20
0
 30
0
  9
$UCSXDIR
 10
1
 20
0
 30
0
  9
$UCSYDIR
 10
0
 20
1
 30
0
  9
$UCSORTHOREF
  2

  9
$UCSORTHOVIEW
 70
    0
  9
$UCSORGTOP
 10
0
 20
0
 30
0
  9
$UCSORGBOTTOM
 10
0
 20
0
 30
0
  9
$UCSORGLEFT
 10
0
 20
0
 30
0
  9
$UCSORGRIGHT
 10
0
 20
0
 30
0
  9
$UCSORGFRONT
 10
0
 20
0
 30
0
  9
$UCSORGBACK
 10
0
 20
0
 30
0
  9
$PUCSBASE
  2

  9
$PUCSNAME
  2

  9
$PUCSORG
 10
0
 20
0
 30
0
  9
$PUCSXDIR
 10
1
 20
0
 30
0
  9
$PUCSYDIR
 10
0
 20
1
 30
0
  9
$PUCSORTHOREF
  2

  9
$PUCSORTHOVIEW
 70
    0
  9
$PUCSORGTOP
 10
0
 20
0
 30
0
  9
$PUCSORGBOTTOM
 10
0
 20
0
 30
0
  9
$PUCSORGLEFT
 10
0
 20
0
 30
0
  9
$PUCSORGRIGHT
 10
0
 20
0
 30
0
  9
$PUCSORGFRONT
 10
0
 20
0
 30
0
  9
$PUCSORGBACK
 10
0
 20
0
 30
0
  9
$USERI1
 70
    0
  9
$USERI2
 70
    0
  9
$USERI3
 70
    0
  9
$USERI4
 70
    0
  9
$USERI5
 70
    0
  9
$USERR1
 40
0
  9
$USERR2
 40
0
  9
$USERR3
 40
0
  9
$USERR4
 40
0
  9
$USERR5
 40
0
  9
$WORLDVIEW
 70
    1
  9
$SHADEDGE
 70
    3
  9
$SHADEDIF
 70
   70
  9
$TILEMODE
 70
    1
  9
$MAXACTVP
 70
   64
  9
$PINSBASE
 10
0
 20
0
 30
0
  9
$PLIMCHECK
 70
    0
  9
$PEXTMIN
 10
0
 20
0
 30
0
  9
$PEXTMAX
 10
0
 20
0
 30
0
  9
$GRIDMODE
 70
    1
  9
$SNAPSTYLE
 70
    0
  9
$PLIMMIN
 10
0
 20
0
  9
$PLIMMAX
 10
297
 20
210
  9
$UNITMODE
 70
    0
  9
$VISRETAIN
 70
    1
  9
$PLINEGEN
 70
    0
  9
$PSLTSCALE
 70
    1
  9
$TREEDEPTH
 70
 3020
  9
$CMLSTYLE
  2
Standard
  9
$CMLJUST
 70
    0
  9
$CMLSCALE
 40
20
  9
$PROXYGRAPHICS
 70
    1
  9
$MEASUREMENT
 70
    1
  9
$CELWEIGHT
370
   -1
  9
$ENDCAPS
280
    0
  9
$JOINSTYLE
280
    0
  9
$LWDISPLAY
290
    0
  9
$INSUNITS
 70
    4
  9
$HYPERLINKBASE
  1

  9
$STYLESHEET
  1

  9
$XEDIT
290
    1
  9
$CEPSNTYPE
380
    0
  9
$PSTYLEMODE
290
    1
  9
$EXTNAMES
290
    1
  9
$PSVPSCALE
 40
1
  9
$OLESTARTUP
290
    0
  9
$SORTENTS
280
  127
  9
$INDEXCTL
280
    0
  9
$HIDETEXT
280
    1
  9
$XCLIPFRAME
290
    0
  9
$HALOGAP
280
    0
  9
$OBSCOLOR
 70
  257
  9
$OBSLTYPE
280
    0
  9
$INTERSECTIONDISPLAY
280
    0
  9
$INTERSECTIONCOLOR
 70
  257
  9
$DIMASSOC
280
    1
  9
$PROJECTNAME
  1

  9
$CAMERADISPLAY
290
    0
  9
$LENSLENGTH
 40
50
  9
$CAMERAHEIGHT
 40
0
  9
$STEPSPERSEC
 40
2
  9
$STEPSIZE
 40
50
  9
$3DDWFPREC
 40
2
  9
$PSOLWIDTH
 40
5
  9
$PSOLHEIGHT
 40
80
  9
$LOFTANG1
 40
1.570796326794897
  9
$LOFTANG2
 40
1.570796326794897
  9
$LOFTMAG1
 40
0
  9
$LOFTMAG2
 40
0
  9
$LOFTPARAM
 70
    7
  9
$LOFTNORMALS
280
    1
  9
$LATITUDE
 40
1
  9
$LONGITUDE
 40
1
  9
$NORTHDIRECTION
 40
0
  9
$TIMEZONE
 70
-8000
  9
$LIGHTGLYPHDISPLAY
280
    1
  9
$TILEMODELIGHTSYNCH
280
    1
  9
$SOLIDHIST
280
    1
  9
$SHOWHIST
280
    1
  9
$DWFFRAME
280
    2
  9
$DGNFRAME
280
    0
  9
$REALWORLDSCALE
290
    1
  9
$INTERFERECOLOR
 62
    1
  9
$CSHADOW
280
    0
  9
$SHADOWPLANELOCATION
 40
0
  0
ENDSEC
  0
SECTION
  2
CLASSES
  0
ENDSEC
  0
SECTION
  2
TABLES
  0
TABLE
  2
VPORT
  5
8
330
0
100
AcDbSymbolTable
 70
    1
  0
VPORT
  5
31
330
2
100
AcDbSymbolTableRecord
100
AcDbViewportTableRecord
  2
*ACTIVE
 70
    0
 10
0
 20
0
 11
1
 21
1
 12
81.11503433497531
 22
43.90330832214961
 13
0
 23
0
 14
10
 24
10
 15
10
 25
10
 16
0
 26
0
 36
1
 17
0
 27
0
 37
0
 40
186.0586300641285
 41
1.890058479532164
 42
50
 43
0
 44
0
 50
0
 51
0
 71
    0
 72
  100
 73
    1
 74
    3
 75
    0
 76
    1
 77
    0
 78
    0
281
    0
 65
    1
110
0
120
0
130
0
111
1
121
0
131
0
112
0
122
1
132
0
 79
    0
146
0
348
10020
 60
    7
 61
    5
292
1
282
    1
141
0
142
0
 63
  250
421
3358443
  0
ENDTAB
  0
TABLE
  2
LTYPE
  5
5
330
0
100
AcDbSymbolTable
 70
    4
  0
LTYPE
  5
14
330
5
100
AcDbSymbolTableRecord
100
AcDbLinetypeTableRecord
  2
ByBlock
 70
    0
  3

 72
   65
 73
    0
 40
0
  0
LTYPE
  5
15
330
5
100
AcDbSymbolTableRecord
100
AcDbLinetypeTableRecord
  2
ByLayer
 70
    0
  3

 72
   65
 73
    0
 40
0
  0
LTYPE
  5
16
330
5
100
AcDbSymbolTableRecord
100
AcDbLinetypeTableRecord
  2
Continuous
 70
    0
  3
Solid line
 72
   65
 73
    0
 40
0
  0
LTYPE
  5
32
330
5
100
AcDbSymbolTableRecord
100
AcDbLinetypeTableRecord
  2
DOT
 70
    0
  3
Dot . . . . . . . . . . . . . . . . . . . . . .
 72
   65
 73
    2
 40
6.35
 49
0
 74
    0
 49
-6.35
 74
    0
  0
LTYPE
  5
33
330
5
100
AcDbSymbolTableRecord
100
AcDbLinetypeTableRecord
  2
DOTTINY
 70
    0
  3
Dot (.15x) .....................................
 72
   65
 73
    2
 40
0.9525
 49
0
 74
    0
 49
-0.9525
 74
    0
  0
LTYPE
  5
34
330
5
100
AcDbSymbolTableRecord
100
AcDbLinetypeTableRecord
  2
DOT2
 70
    0
  3
Dot (.5x) .....................................
 72
   65
 73
    2
 40
3.175
 49
0
 74
    0
 49
-3.175
 74
    0
  0
LTYPE
  5
35
330
5
100
AcDbSymbolTableRecord
100
AcDbLinetypeTableRecord
  2
DOTX2
 70
    0
  3
Dot (2x) .  .  .  .  .  .  .  .  .  .  .  .  .
 72
   65
 73
    2
 40
12.7
 49
0
 74
    0
 49
-12.7
 74
    0
  0
LTYPE
  5
36
330
5
100
AcDbSymbolTableRecord
100
AcDbLinetypeTableRecord
  2
DASHED
 70
    0
  3
Dashed _ _ _ _ _ _ _ _ _ _ _ _ _ _ _ _ _
 72
   65
 73
    2
 40
19.05
 49
12.7
 74
    0
 49
-6.35
 74
    0
  0
LTYPE
  5
37
330
5
100
AcDbSymbolTableRecord
100
AcDbLinetypeTableRecord
  2
DASHEDTINY
 70
    0
  3
Dashed (.15x) _ _ _ _ _ _ _ _ _ _ _ _ _ _ _ _ _
 72
   65
 73
    2
 40
2.8575
 49
1.905
 74
    0
 49
-0.9525
 74
    0
  0
LTYPE
  5
38
330
5
100
AcDbSymbolTableRecord
100
AcDbLinetypeTableRecord
  2
DASHED2
 70
    0
  3
Dashed (.5x) _ _ _ _ _ _ _ _ _ _ _ _ _ _ _ _ _
 72
   65
 73
    2
 40
9.524999999999999
 49
6.35
 74
    0
 49
-3.175
 74
    0
  0
LTYPE
  5
39
330
5
100
AcDbSymbolTableRecord
100
AcDbLinetypeTableRecord
  2
DASHEDX2
 70
    0
  3
Dashed (2x) ____  ____  ____  ____  ____  ___
 72
   65
 73
    2
 40
38.09999999999999
 49
25.4
 74
    0
 49
-12.7
 74
    0
  0
LTYPE
  5
3A
330
5
100
AcDbSymbolTableRecord
100
AcDbLinetypeTableRecord
  2
DASHDOT
 70
    0
  3
Dash dot __ . __ . __ . __ . __ . __ . __ . __
 72
   65
 73
    4
 40
25.4
 49
12.7
 74
    0
 49
-6.35
 74
    0
 49
0
 74
    0
 49
-6.35
 74
    0
  0
LTYPE
  5
3B
330
5
100
AcDbSymbolTableRecord
100
AcDbLinetypeTableRecord
  2
DASHDOTTINY
 70
    0
  3
Dash dot (.15x) _._._._._._._._._._._._._._._.
 72
   65
 73
    4
 40
3.81
 49
1.905
 74
    0
 49
-0.9525
 74
    0
 49
0
 74
    0
 49
-0.9525
 74
    0
  0
LTYPE
  5
3C
330
5
100
AcDbSymbolTableRecord
100
AcDbLinetypeTableRecord
  2
DASHDOT2
 70
    0
  3
Dash dot (.5x) _._._._._._._._._._._._._._._.
 72
   65
 73
    4
 40
12.7
 49
6.35
 74
    0
 49
-3.175
 74
    0
 49
0
 74
    0
 49
-3.175
 74
    0
  0
LTYPE
  5
3D
330
5
100
AcDbSymbolTableRecord
100
AcDbLinetypeTableRecord
  2
DASHDOTX2
 70
    0
  3
Dash dot (2x) ____  .  ____  .  ____  .  ___
 72
   65
 73
    4
 40
50.8
 49
25.4
 74
    0
 49
-12.7
 74
    0
 49
0
 74
    0
 49
-12.7
 74
    0
  0
LTYPE
  5
3E
330
5
100
AcDbSymbolTableRecord
100
AcDbLinetypeTableRecord
  2
DIVIDE
 70
    0
  3
Divide ____ . . ____ . . ____ . . ____ . . ____
 72
   65
 73
    6
 40
31.75
 49
12.7
 74
    0
 49
-6.35
 74
    0
 49
0
 74
    0
 49
-6.35
 74
    0
 49
0
 74
    0
 49
-6.35
 74
    0
  0
LTYPE
  5
3F
330
5
100
AcDbSymbolTableRecord
100
AcDbLinetypeTableRecord
  2
DIVIDETINY
 70
    0
  3
Divide (.15x) __..__..__..__..__..__..__..__.._
 72
   65
 73
    6
 40
4.7625
 49
1.905
 74
    0
 49
-0.9525
 74
    0
 49
0
 74
    0
 49
-0.9525
 74
    0
 49
0
 74
    0
 49
-0.9525
 74
    0
  0
LTYPE
  5
40
330
5
100
AcDbSymbolTableRecord
100
AcDbLinetypeTableRecord
  2
DIVIDE2
 70
    0
  3
Divide (.5x) __..__..__..__..__..__..__..__.._
 72
   65
 73
    6
 40
15.875
 49
6.35
 74
    0
 49
-3.175
 74
    0
 49
0
 74
    0
 49
-3.175
 74
    0
 49
0
 74
    0
 49
-3.175
 74
    0
  0
LTYPE
  5
41
330
5
100
AcDbSymbolTableRecord
100
AcDbLinetypeTableRecord
  2
DIVIDEX2
 70
    0
  3
Divide (2x) ________  .  .  ________  .  .  _
 72
   65
 73
    6
 40
63.5
 49
25.4
 74
    0
 49
-12.7
 74
    0
 49
0
 74
    0
 49
-12.7
 74
    0
 49
0
 74
    0
 49
-12.7
 74
    0
  0
LTYPE
  5
42
330
5
100
AcDbSymbolTableRecord
100
AcDbLinetypeTableRecord
  2
BORDER
 70
    0
  3
Border __ __ . __ __ . __ __ . __ __ . __ __ .
 72
   65
 73
    6
 40
44.45
 49
12.7
 74
    0
 49
-6.35
 74
    0
 49
12.7
 74
    0
 49
-6.35
 74
    0
 49
0
 74
    0
 49
-6.35
 74
    0
  0
LTYPE
  5
43
330
5
100
AcDbSymbolTableRecord
100
AcDbLinetypeTableRecord
  2
BORDERTINY
 70
    0
  3
Border (.15x) __.__.__.__.__.__.__.__.__.__.__.
 72
   65
 73
    6
 40
6.6675
 49
1.905
 74
    0
 49
-0.9525
 74
    0
 49
1.905
 74
    0
 49
-0.9525
 74
    0
 49
0
 74
    0
 49
-0.9525
 74
    0
  0
LTYPE
  5
44
330
5
100
AcDbSymbolTableRecord
100
AcDbLinetypeTableRecord
  2
BORDER2
 70
    0
  3
Border (.5x) __.__.__.__.__.__.__.__.__.__.__.
 72
   65
 73
    6
 40
22.225
 49
6.35
 74
    0
 49
-3.175
 74
    0
 49
6.35
 74
    0
 49
-3.175
 74
    0
 49
0
 74
    0
 49
-3.175
 74
    0
  0
LTYPE
  5
45
330
5
100
AcDbSymbolTableRecord
100
AcDbLinetypeTableRecord
  2
BORDERX2
 70
    0
  3
Border (2x) ____  ____  .  ____  ____  .  ___
 72
   65
 73
    6
 40
88.89999999999999
 49
25.4
 74
    0
 49
-12.7
 74
    0
 49
25.4
 74
    0
 49
-12.7
 74
    0
 49
0
 74
    0
 49
-12.7
 74
    0
  0
LTYPE
  5
46
330
5
100
AcDbSymbolTableRecord
100
AcDbLinetypeTableRecord
  2
CENTER
 70
    0
  3
Center ____ _ ____ _ ____ _ ____ _ ____ _ ____
 72
   65
 73
    4
 40
50.8
 49
31.75
 74
    0
 49
-6.35
 74
    0
 49
6.35
 74
    0
 49
-6.35
 74
    0
  0
LTYPE
  5
47
330
5
100
AcDbSymbolTableRecord
100
AcDbLinetypeTableRecord
  2
CENTERTINY
 70
    0
  3
Center (.15x) ___ _ ___ _ ___ _ ___ _ ___ _ ___
 72
   65
 73
    4
 40
7.62
 49
4.7625
 74
    0
 49
-0.9525
 74
    0
 49
0.9525
 74
    0
 49
-0.9525
 74
    0
  0
LTYPE
  5
48
330
5
100
AcDbSymbolTableRecord
100
AcDbLinetypeTableRecord
  2
CENTER2
 70
    0
  3
Center (.5x) ___ _ ___ _ ___ _ ___ _ ___ _ ___
 72
   65
 73
    4
 40
28.575
 49
19.05
 74
    0
 49
-3.175
 74
    0
 49
3.175
 74
    0
 49
-3.175
 74
    0
  0
LTYPE
  5
49
330
5
100
AcDbSymbolTableRecord
100
AcDbLinetypeTableRecord
  2
CENTERX2
 70
    0
  3
Center (2x) ________  __  ________  __  _____
 72
   65
 73
    4
 40
101.6
 49
63.5
 74
    0
 49
-12.7
 74
    0
 49
12.7
 74
    0
 49
-12.7
 74
    0
  0
ENDTAB
  0
TABLE
  2
LAYER
  5
2
330
0
100
AcDbSymbolTable
 70
    1
  0
LAYER
  5
10
330
2
100
AcDbSymbolTableRecord
100
AcDbLayerTableRecord
  2
0
 70
    0
 62
    1
  6
CONTINUOUS
370
    0
390
F
  0
LAYER
  5
4A
330
2
100
AcDbSymbolTableRecord
100
AcDbLayerTableRecord
  2
noname
 70
    0
 62
    2
  6
CONTINUOUS
370
    0
390
F
  0
ENDTAB
  0
TABLE
  2
STYLE
  5
3
330
0
100
AcDbSymbolTable
 70
    3
  0
STYLE
  5
4B
330
2
100
AcDbSymbolTableRecord
100
AcDbTextStyleTableRecord
  2
iso
 70
    0
 40
0
 41
1
 50
0
 71
    0
 42
1
  3
iso
  4

  0
STYLE
  5
4C
330
2
100
AcDbSymbolTableRecord
100
AcDbTextStyleTableRecord
  2
Standard
 70
    0
 40
0
 41
1
 50
0
 71
    0
 42
1
  3
txt
  4

  0
ENDTAB
  0
TABLE
  2
VIEW
  5
6
330
0
100
AcDbSymbolTable
 70
    0
  0
ENDTAB
  0
TABLE
  2
UCS
  5
7
330
0
100
AcDbSymbolTable
 70
    0
  0
ENDTAB
  0
TABLE
  2
APPID
  5
9
330
0
100
AcDbSymbolTable
 70
    1
  0
APPID
  5
12
330
9
100
AcDbSymbolTableRecord
100
AcDbRegAppTableRecord
  2
ACAD
 70
    0
  0
APPID
  5
4D
330
9
100
AcDbSymbolTableRecord
100
AcDbRegAppTableRecord
  2
LibreCad
 70
    0
  0
ENDTAB
  0
TABLE
  2
DIMSTYLE
  5
A
330
0
100
AcDbSymbolTable
 70
    1
100
AcDbDimStyleTable
 71
    1
  0
DIMSTYLE
105
4E
330
A
100
AcDbSymbolTableRecord
100
AcDbDimStyleTableRecord
  2
Standard
 70
    0
 40
1
 41
2.5
 42
0.625
 43
0.38
 44
1.25
 45
0
 46
0
 47
0
 48
0
 49
1
140
2.5
141
0.09
142
0
143
25.4
144
1
145
0
146
1
147
0.625
148
0
 71
    0
 72
    0
 73
    0
 74
    1
 75
    0
 76
    0
 77
    0
 78
    8
 79
    0
170
    0
171
    2
172
    0
173
    0
174
    0
175
    0
176
    0
177
    0
178
    0
179
    0
271
    2
272
    4
273
    2
274
    2
275
    0
276
    0
277
    2
278
   44
279
    0
280
    0
281
    0
282
    0
283
    1
284
    0
285
    0
286
    0
288
    0
289
    3
340
STANDARD
341

371
   -2
372
   -2
  0
ENDTAB
  0
TABLE
  2
BLOCK_RECORD
  5
1
330
0
100
AcDbSymbolTable
 70
    2
  0
BLOCK_RECORD
  5
1F
330
1
100
AcDbSymbolTableRecord
100
AcDbBlockTableRecord
  2
*Model_Space
 70
    0
280
    1
281
    0
  0
BLOCK_RECORD
  5
1E
330
1
100
AcDbSymbolTableRecord
100
AcDbBlockTableRecord
  2
*Paper_Space
 70
    0
280
    1
281
    0
  0
BLOCK_RECORD
  5
4F
330
1
100
AcDbSymbolTableRecord
100
AcDbBlockTableRecord
  2
*D10
 70
    0
280
    1
281
    0
  0
BLOCK_RECORD
  5
52
330
1
100
AcDbSymbolTableRecord
100
AcDbBlockTableRecord
  2
*D1
 70
    0
280
    1
281
    0
  0
BLOCK_RECORD
  5
55
330
1
100
AcDbSymbolTableRecord
100
AcDbBlockTableRecord
  2
*D7
 70
    0
280
    1
281
    0
  0
BLOCK_RECORD
  5
58
330
1
100
AcDbSymbolTableRecord
100
AcDbBlockTableRecord
  2
*D5
 70
    0
280
    1
281
    0
  0
BLOCK_RECORD
  5
5B
330
1
100
AcDbSymbolTableRecord
100
AcDbBlockTableRecord
  2
*D6
 70
    0
280
    1
281
    0
  0
BLOCK_RECORD
  5
5E
330
1
100
AcDbSymbolTableRecord
100
AcDbBlockTableRecord
  2
*D3
 70
    0
280
    1
281
    0
  0
BLOCK_RECORD
  5
61
330
1
100
AcDbSymbolTableRecord
100
AcDbBlockTableRecord
  2
*D2
 70
    0
280
    1
281
    0
  0
BLOCK_RECORD
  5
64
330
1
100
AcDbSymbolTableRecord
100
AcDbBlockTableRecord
  2
*D8
 70
    0
280
    1
281
    0
  0
BLOCK_RECORD
  5
67
330
1
100
AcDbSymbolTableRecord
100
AcDbBlockTableRecord
  2
*D4
 70
    0
280
    1
281
    0
  0
BLOCK_RECORD
  5
6A
330
1
100
AcDbSymbolTableRecord
100
AcDbBlockTableRecord
  2
*D9
 70
    0
280
    1
281
    0
  0
BLOCK_RECORD
  5
6D
330
1
100
AcDbSymbolTableRecord
100
AcDbBlockTableRecord
  2
logo rust
 70
    0
280
    1
281
    0
  0
BLOCK_RECORD
  5
70
330
1
100
AcDbSymbolTableRecord
100
AcDbBlockTableRecord
  2
Cathar_cross
 70
    0
280
    1
281
    0
  0
BLOCK_RECORD
  5
73
330
1
100
AcDbSymbolTableRecord
100
AcDbBlockTableRecord
  2
boules
 70
    0
280
    1
281
    0
  0
ENDTAB
  0
ENDSEC
  0
SECTION
  2
BLOCKS
  0
BLOCK
  5
20
330
1F
100
AcDbEntity
  8
0
100
AcDbBlockBegin
  2
*Model_Space
 70
    0
 10
0
 20
0
 30
0
  3
*Model_Space
  1

  0
ENDBLK
  5
21
330
1F
100
AcDbEntity
  8
0
100
AcDbBlockEnd
  0
BLOCK
  5
1C
330
1B
100
AcDbEntity
  8
0
100
AcDbBlockBegin
  2
*Paper_Space
 70
    0
 10
0
 20
0
 30
0
  3
*Paper_Space
  1

  0
ENDBLK
  5
1D
330
1F
100
AcDbEntity
  8
0
100
AcDbBlockEnd
  0
BLOCK
  5
50
330
4F
100
AcDbEntity
  8
0
100
AcDbBlockBegin
  2
*D10
 70
    1
 10
0
 20
0
  3
*D10
  1

  0
LINE
  5
76
100
AcDbEntity
  8
noname
  6
CONTINUOUS
 62
    7
370
    0
100
AcDbLine
 10
-23.27346240872566
 20
34.83119795807715
 11
-30
 21
40
  0
LINE
  5
77
100
AcDbEntity
  8
noname
  6
CONTINUOUS
 62
    7
370
    0
100
AcDbLine
 10
-30
 20
40
 11
-30
 21
40
  0
SOLID
  5
78
100
AcDbEntity
  8
noname
  6
CONTINUOUS
 62
    7
370
    0
100
AcDbTrace
 10
-23.27346240872566
 20
34.83119795807715
 30
0
 11
-25.50944435655289
 21
36.02437759471525
 31
0
 12
-25.00215446786
 22
36.6845507795828
 32
0
 13
-25.00215446786
 23
36.6845507795828
 33
0
  0
ENDBLK
  5
51
330
4F
100
AcDbEntity
  8
0
100
AcDbBlockEnd
  0
BLOCK
  5
53
330
52
100
AcDbEntity
  8
0
100
AcDbBlockBegin
  2
*D1
 70
    1
 10
0
 20
0
  3
*D1
  1

  0
ARC
  5
79
100
AcDbEntity
  8
noname
  6
ByBlock
 62
    0
370
   -2
100
AcDbCircle
 10
-3.214789545680219e-014
 20
42.99997548932367
 40
8.246235030086289
100
AcDbArc
 50
57.99999999999924
 51
121.9999999999988
  0
SOLID
  5
7A
100
AcDbEntity
  8
noname
  6
ByBlock
 62
    0
370
   -2
100
AcDbTrace
 10
4.369838799837468
 20
49.99317940704672
 30
0
 11
1.909220687856703
 21
50.60034612491692
 31
0
 12
2.238738016650022
 22
51.36493097646259
 32
0
 13
2.238738016650022
 23
51.36493097646259
 33
0
  0
SOLID
  5
7B
100
AcDbEntity
  8
noname
  6
ByBlock
 62
    0
370
   -2
100
AcDbTrace
 10
-4.369838799837295
 20
49.99317940704686
 30
0
 11
-2.238738016649805
 21
51.36493097646267
 31
0
 12
-1.909220687856511
 22
50.60034612491698
 32
0
 13
-1.909220687856511
 23
50.60034612491698
 33
0
  0
MTEXT
  5
7C
100
AcDbEntity
  8
noname
  6
CONTINUOUS
 62
    0
370
   -2
100
AcDbMText
 10
1.181008437688008e-013
 20
51.87121051940996
 30
0
 40
2.5
 41
5.000000000000155
 71
    8
 72
    1
  1
64%%D
  7
STANDARD
210
0
220
0
230
1
 50
359.999999999999
 73
    2
 44
1
  0
ENDBLK
  5
54
330
52
100
AcDbEntity
  8
0
100
AcDbBlockEnd
  0
BLOCK
  5
56
330
55
100
AcDbEntity
  8
0
100
AcDbBlockBegin
  2
*D7
 70
    1
 10
0
 20
0
  3
*D7
  1

  0
ARC
  5
7D
100
AcDbEntity
  8
noname
  6
ByBlock
 62
    0
370
   -2
100
AcDbCircle
 10
-4.518052598712075e-012
 20
24.99999999999747
 40
8.062257748296597
100
AcDbArc
 50
224.9999999999993
 51
314.9999999999995
  0
SOLID
  5
7E
100
AcDbEntity
  8
noname
  6
ByBlock
 62
    0
370
   -2
100
AcDbTrace
 10
-5.700877125498897
 20
19.29912287450323
 30
0
 11
-3.435959738503587
 21
18.16182689438926
 31
0
 12
-3.926702206385104
 22
17.48926203104464
 32
0
 13
-3.926702206385104
 23
17.48926203104464
 33
0
  0
SOLID
  5
7F
100
AcDbEntity
  8
noname
  6
ByBlock
 62
    0
370
   -2
100
AcDbTrace
 10
5.700877125489744
 20
19.29912287450311
 30
0
 11
3.926702206375917
 21
17.48926203104456
 31
0
 12
3.435959738494413
 22
18.16182689438919
 32
0
 13
3.435959738494413
 23
18.16182689438919
 33
0
  0
MTEXT
  5
80
100
AcDbEntity
  8
noname
  6
CONTINUOUS
 62
    0
370
   -2
100
AcDbMText
 10
-4.592018245866778e-012
 20
17.56274225170087
 30
0
 40
2.5
 41
4.722222222222378
 71
    8
 72
    1
  1
90%%D
  7
STANDARD
210
0
220
0
230
1
 50
-5.72499842663433e-013
 73
    2
 44
1
  0
ENDBLK
  5
57
330
55
100
AcDbEntity
  8
0
100
AcDbBlockEnd
  0
BLOCK
  5
59
330
58
100
AcDbEntity
  8
0
100
AcDbBlockBegin
  2
*D5
 70
    1
 10
0
 20
0
  3
*D5
  1

  0
SOLID
  5
81
100
AcDbEntity
  8
noname
  6
ByBlock
 62
    0
370
   -2
100
AcDbTrace
 10
20.78674030756304
 20
-13.88925582549018
 30
0
 11
18.47679091248535
 21
-12.84645828594702
 31
0
 12
18.93934164112805
 22
-12.15420219993526
 32
0
 13
18.93934164112805
 23
-12.15420219993526
 33
0
  0
LINE
  5
82
100
AcDbEntity
  8
noname
  6
ByBlock
 62
    0
370
   -2
100
AcDbLine
 10
0
 20
0
 11
20.78674030756303
 21
-13.88925582549019
  0
MTEXT
  5
83
100
AcDbEntity
  8
noname
  6
CONTINUOUS
 62
    0
370
   -2
100
AcDbMText
 10
9.351675966869948
 20
-8.503633435812276
 30
0
 40
2.5
 41
3.055555555555711
 71
    5
 72
    1
  1
25
  7
STANDARD
210
0
220
0
230
1
 50
326.249999999999
 73
    2
 44
1
  0
ENDBLK
  5
5A
330
58
100
AcDbEntity
  8
0
100
AcDbBlockEnd
  0
BLOCK
  5
5C
330
5B
100
AcDbEntity
  8
0
100
AcDbBlockBegin
  2
*D6
 70
    1
 10
0
 20
0
  3
*D6
  1

  0
SOLID
  5
84
100
AcDbEntity
  8
noname
  6
ByBlock
 62
    0
370
   -2
100
AcDbTrace
 10
31.38512897290298
 20
-6.242890304516322
 30
0
 11
28.85195266395962
 21
-6.163450364277276
 31
0
 12
29.01437887983019
 22
-5.346878634674681
 32
0
 13
29.01437887983019
 23
-5.346878634674681
 33
0
  0
LINE
  5
85
100
AcDbEntity
  8
noname
  6
ByBlock
 62
    0
370
   -2
100
AcDbLine
 10
0
 20
0
 11
31.38512897290298
 21
-6.24289030451633
  0
MTEXT
  5
86
100
AcDbEntity
  8
noname
  6
CONTINUOUS
 62
    0
370
   -2
100
AcDbMText
 10
16.05835884023202
 20
-1.2824727515017
 30
0
 40
2.5
 41
3.055555555555711
 71
    5
 72
    1
  1
32
  7
STANDARD
210
0
220
0
230
1
 50
348.7499999999995
 73
    2
 44
1
  0
ENDBLK
  5
5D
330
5B
100
AcDbEntity
  8
0
100
AcDbBlockEnd
  0
BLOCK
  5
5F
330
5E
100
AcDbEntity
  8
0
100
AcDbBlockBegin
  2
*D3
 70
    1
 10
0
 20
0
  3
*D3
  1

  0
SOLID
  5
87
100
AcDbEntity
  8
noname
  6
ByBlock
 62
    0
370
   -2
100
AcDbTrace
 10
35.75319332900904
 20
23.88952001984285
 30
0
 11
33.90579466257402
 21
22.15446639428795
 31
0
 12
33.44324393393133
 22
22.84672248029971
 32
0
 13
33.44324393393133
 23
22.84672248029971
 33
0
  0
LINE
  5
88
100
AcDbEntity
  8
noname
  6
ByBlock
 62
    0
370
   -2
100
AcDbLine
 10
0
 20
0
 11
35.75319332900904
 21
23.88952001984286
  0
MTEXT
  5
89
100
AcDbEntity
  8
noname
  6
CONTINUOUS
 62
    0
370
   -2
100
AcDbMText
 10
16.834902477593
 20
13.50376553298872
 30
0
 40
2.5
 41
3.333333333333488
 71
    5
 72
    1
  1
43
  7
STANDARD
210
0
220
0
230
1
 50
33.75000000000026
 73
    2
 44
1
  0
ENDBLK
  5
60
330
5E
100
AcDbEntity
  8
0
100
AcDbBlockEnd
  0
BLOCK
  5
62
330
61
100
AcDbEntity
  8
0
100
AcDbBlockBegin
  2
*D2
 70
    1
 10
0
 20
0
  3
*D2
  1

  0
SOLID
  5
8A
100
AcDbEntity
  8
noname
  6
ByBlock
 62
    0
370
   -2
100
AcDbTrace
 10
-1.249992800258383
 20
40.64113711781931
 30
0
 11
-3.749992800258383
 21
40.22485246004647
 31
0
 12
-3.749992800258383
 22
41.05742177559215
 32
0
 13
-3.749992800258383
 23
41.05742177559215
 33
0
  0
LINE
  5
8B
100
AcDbEntity
  8
noname
  6
ByBlock
 62
    0
370
   -2
100
AcDbLine
 10
7.199741958174855e-006
 20
40.64113711781931
 11
-11.66665946692521
 21
40.64113711781931
  0
MTEXT
  5
8C
100
AcDbEntity
  8
noname
  6
CONTINUOUS
 62
    0
370
   -2
100
AcDbMText
 10
-8.333326133591754
 20
42.51613711781931
 30
0
 40
2.5
 41
5.416666666666822
 71
    5
 72
    1
  1
1,25
  7
STANDARD
210
0
220
0
230
1
 50
0
 73
    2
 44
1
  0
ENDBLK
  5
63
330
61
100
AcDbEntity
  8
0
100
AcDbBlockEnd
  0
BLOCK
  5
65
330
64
100
AcDbEntity
  8
0
100
AcDbBlockBegin
  2
*D8
 70
    1
 10
0
 20
0
  3
*D8
  1

  0
SOLID
  5
8D
100
AcDbEntity
  8
noname
  6
ByBlock
 62
    0
370
   -2
100
AcDbTrace
 10
-2.250000000007049
 20
28.18198051534512
 30
0
 11
-4.750000000007049
 21
27.76569585757228
 31
0
 12
-4.750000000007049
 22
28.59826517311796
 32
0
 13
-4.750000000007049
 23
28.59826517311796
 33
0
  0
LINE
  5
8E
100
AcDbEntity
  8
noname
  6
ByBlock
 62
    0
370
   -2
100
AcDbLine
 10
2.955857780762017e-012
 20
28.18198051534512
 11
-13.22222222222943
 21
28.18198051534512
  0
MTEXT
  5
8F
100
AcDbEntity
  8
noname
  6
CONTINUOUS
 62
    0
370
   -2
100
AcDbMText
 10
-9.611111111118248
 20
30.056980515345
 30
0
 40
2.5
 41
5.972222222222378
 71
    5
 72
    1
  1
2,25
  7
STANDARD
210
0
220
0
230
1
 50
0
 73
    2
 44
1
  0
ENDBLK
  5
66
330
64
100
AcDbEntity
  8
0
100
AcDbBlockEnd
  0
BLOCK
  5
68
330
67
100
AcDbEntity
  8
0
100
AcDbBlockBegin
  2
*D4
 70
    1
 10
0
 20
0
  3
*D4
  1

  0
SOLID
  5
90
100
AcDbEntity
  8
noname
  6
ByBlock
 62
    0
370
   -2
100
AcDbTrace
 10
37.26984065532292
 20
7.413432236612948
 30
0
 11
34.89909056225012
 21
6.517420566771327
 31
0
 12
34.73666434637957
 22
7.333992296373923
 32
0
 13
34.73666434637957
 23
7.333992296373923
 33
0
  0
LINE
  5
91
100
AcDbEntity
  8
noname
  6
ByBlock
 62
    0
370
   -2
100
AcDbLine
 10
0
 20
0
 11
37.26984065532292
 21
7.413432236612948
  0
MTEXT
  5
92
100
AcDbEntity
  8
noname
  6
CONTINUOUS
 62
    0
370
   -2
100
AcDbMText
 10
18.26912597388105
 20
5.545688519062537
 30
0
 40
2.5
 41
3.055555555555711
 71
    5
 72
    1
  1
38
  7
STANDARD
210
0
220
0
230
1
 50
11.25000000000006
 73
    2
 44
1
  0
ENDBLK
  5
69
330
67
100
AcDbEntity
  8
0
100
AcDbBlockEnd
  0
BLOCK
  5
6B
330
6A
100
AcDbEntity
  8
0
100
AcDbBlockBegin
  2
*D9
 70
    1
 10
0
 20
0
  3
*D9
  1

  0
SOLID
  5
93
100
AcDbEntity
  8
noname
  6
ByBlock
 62
    0
370
   -2
100
AcDbTrace
 10
-32.9338085214406
 20
9.888543819997153
 30
0
 11
-35.4338085214406
 21
9.472259162224313
 31
0
 12
-35.4338085214406
 22
10.30482847776999
 32
0
 13
-35.4338085214406
 23
10.30482847776999
 33
0
  0
LINE
  5
94
100
AcDbEntity
  8
noname
  6
ByBlock
 62
    0
370
   -2
100
AcDbLine
 10
-30.43380852144082
 20
9.888543819997153
 11
-41.96158629921853
 21
9.888543819997155
  0
MTEXT
  5
95
100
AcDbEntity
  8
noname
  6
CONTINUOUS
 62
    0
370
   -2
100
AcDbMText
 10
-37.44769741032951
 20
11.76354381999715
 30
0
 40
2.5
 41
4.027777777777933
 71
    5
 72
    1
  1
2,5
  7
STANDARD
210
0
220
0
230
1
 50
0
 73
    2
 44
1
  0
ENDBLK
  5
6C
330
6A
100
AcDbEntity
  8
0
100
AcDbBlockEnd
  0
BLOCK
  5
6E
330
6D
100
AcDbEntity
  8
0
100
AcDbBlockBegin
  2
logo rust
 70
    0
 10
0
 20
0
  3
logo rust
  1

  0
ENDBLK
  5
6F
330
6D
100
AcDbEntity
  8
0
100
AcDbBlockEnd
  0
BLOCK
  5
71
330
70
100
AcDbEntity
  8
0
100
AcDbBlockBegin
  2
Cathar_cross
 70
    0
 10
0
 20
0
  3
Cathar_cross
  1

  0
SPLINE
  5
96
100
AcDbEntity
  8
0
  6
ByLayer
 62
    7
370
   -1
100
AcDbSpline
210
0
220
0
230
0
 70
    8
 71
    3
 72
    8
 73
    4
 74
    0
 42
1e-007
 43
1e-007
 40
0
 40
0
 40
0
 40
0
 40
1
 40
1
 40
1
 40
1
 10
72.693155
 20
76.34236799999999
 30
0
 10
73.936778
 20
60.937096
 30
0
 10
66.03618
 20
42.518192
 30
0
 10
56.200232
 20
29.74332
 30
0
  0
SPLINE
  5
97
100
AcDbEntity
  8
0
  6
ByLayer
 62
    7
370
   -1
100
AcDbSpline
210
0
220
0
230
0
 70
    8
 71
    3
 72
    8
 73
    4
 74
    0
 42
1e-007
 43
1e-007
 40
0
 40
0
 40
0
 40
0
 40
1
 40
1
 40
1
 40
1
 10
56.200232
 20
29.74332
 30
0
 10
65.6113
 20
26.82204
 30
0
 10
73.45497400000001
 20
22.417672
 30
0
 10
80.023888
 20
15.57208
 30
0
  0
SPLINE
  5
98
100
AcDbEntity
  8
0
  6
ByLayer
 62
    7
370
   -1
100
AcDbSpline
210
0
220
0
230
0
 70
    8
 71
    3
 72
    8
 73
    4
 74
    0
 42
1e-007
 43
1e-007
 40
0
 40
0
 40
0
 40
0
 40
1
 40
1
 40
1
 40
1
 10
80.023888
 20
15.57208
 30
0
 10
87.05255200000001
 20
23.330408
 30
0
 10
95.449584
 20
27.434168
 30
0
 10
103.694264
 20
29.947424
 30
0
  0
SPLINE
  5
99
100
AcDbEntity
  8
0
  6
ByLayer
 62
    7
370
   -1
100
AcDbSpline
210
0
220
0
230
0
 70
    8
 71
    3
 72
    8
 73
    4
 74
    0
 42
1e-007
 43
1e-007
 40
0
 40
0
 40
0
 40
0
 40
1
 40
1
 40
1
 40
1
 10
103.694264
 20
29.947424
 30
0
 10
92.781888
 20
43.717824
 30
0
 10
86.9828
 20
62.12036
 30
0
 10
87.30676
 20
76.43371999999999
 30
0
  0
SPLINE
  5
9A
100
AcDbEntity
  8
0
  6
ByLayer
 62
    7
370
   -1
100
AcDbSpline
210
0
220
0
230
0
 70
    8
 71
    3
 72
    8
 73
    4
 74
    0
 42
1e-007
 43
1e-007
 40
0
 40
0
 40
0
 40
0
 40
1
 40
1
 40
1
 40
1
 10
72.693155
 20
83.65774399999999
 30
0
 10
73.936778
 20
99.063016
 30
0
 10
66.03618
 20
117.48192
 30
0
 10
56.200232
 20
130.256792
 30
0
  0
SPLINE
  5
9B
100
AcDbEntity
  8
0
  6
ByLayer
 62
    7
370
   -1
100
AcDbSpline
210
0
220
0
230
0
 70
    8
 71
    3
 72
    8
 73
    4
 74
    0
 42
1e-007
 43
1e-007
 40
0
 40
0
 40
0
 40
0
 40
1
 40
1
 40
1
 40
1
 10
56.200232
 20
130.256792
 30
0
 10
65.6113
 20
133.178072
 30
0
 10
73.45497400000001
 20
137.58244
 30
0
 10
80.023888
 20
144.428032
 30
0
  0
SPLINE
  5
9C
100
AcDbEntity
  8
0
  6
ByLayer
 62
    7
370
   -1
100
AcDbSpline
210
0
220
0
230
0
 70
    8
 71
    3
 72
    8
 73
    4
 74
    0
 42
1e-007
 43
1e-007
 40
0
 40
0
 40
0
 40
0
 40
1
 40
1
 40
1
 40
1
 10
80.023888
 20
144.428032
 30
0
 10
87.05255200000001
 20
136.669704
 30
0
 10
95.449584
 20
132.565944
 30
0
 10
103.694264
 20
130.052688
 30
0
  0
SPLINE
  5
9D
100
AcDbEntity
  8
0
  6
ByLayer
 62
    7
370
   -1
100
AcDbSpline
210
0
220
0
230
0
 70
    8
 71
    3
 72
    8
 73
    4
 74
    0
 42
1e-007
 43
1e-007
 40
0
 40
0
 40
0
 40
0
 40
1
 40
1
 40
1
 40
1
 10
103.694264
 20
130.052688
 30
0
 10
92.781888
 20
116.282288
 30
0
 10
86.9828
 20
97.879752
 30
0
 10
87.30676
 20
83.56639199999999
 30
0
  0
SPLINE
  5
9E
100
AcDbEntity
  8
0
  6
ByLayer
 62
    7
370
   -1
100
AcDbSpline
210
0
220
0
230
0
 70
    8
 71
    3
 72
    8
 73
    4
 74
    0
 42
1e-007
 43
1e-007
 40
0
 40
0
 40
0
 40
0
 40
1
 40
1
 40
1
 40
1
 10
83.657736
 20
72.693168
 30
0
 10
99.063008
 20
73.936792
 30
0
 10
117.481912
 20
66.036192
 30
0
 10
130.256784
 20
56.200248
 30
0
  0
SPLINE
  5
9F
100
AcDbEntity
  8
0
  6
ByLayer
 62
    7
370
   -1
100
AcDbSpline
210
0
220
0
230
0
 70
    8
 71
    3
 72
    8
 73
    4
 74
    0
 42
1e-007
 43
1e-007
 40
0
 40
0
 40
0
 40
0
 40
1
 40
1
 40
1
 40
1
 10
130.256784
 20
56.200248
 30
0
 10
133.178064
 20
65.61132000000001
 30
0
 10
137.582432
 20
73.454992
 30
0
 10
144.428024
 20
80.023904
 30
0
  0
SPLINE
  5
A0
100
AcDbEntity
  8
0
  6
ByLayer
 62
    7
370
   -1
100
AcDbSpline
210
0
220
0
230
0
 70
    8
 71
    3
 72
    8
 73
    4
 74
    0
 42
1e-007
 43
1e-007
 40
0
 40
0
 40
0
 40
0
 40
1
 40
1
 40
1
 40
1
 10
144.428024
 20
80.023904
 30
0
 10
136.669696
 20
87.05256799999999
 30
0
 10
132.565936
 20
95.4496
 30
0
 10
130.05268
 20
103.69428
 30
0
  0
SPLINE
  5
A1
100
AcDbEntity
  8
0
  6
ByLayer
 62
    7
370
   -1
100
AcDbSpline
210
0
220
0
230
0
 70
    8
 71
    3
 72
    8
 73
    4
 74
    0
 42
1e-007
 43
1e-007
 40
0
 40
0
 40
0
 40
0
 40
1
 40
1
 40
1
 40
1
 10
130.05268
 20
103.69428
 30
0
 10
116.28228
 20
92.781904
 30
0
 10
97.879744
 20
86.982816
 30
0
 10
83.566384
 20
87.306776
 30
0
  0
SPLINE
  5
A2
100
AcDbEntity
  8
0
  6
ByLayer
 62
    7
370
   -1
100
AcDbSpline
210
0
220
0
230
0
 70
    8
 71
    3
 72
    8
 73
    4
 74
    0
 42
1e-007
 43
1e-007
 40
0
 40
0
 40
0
 40
0
 40
1
 40
1
 40
1
 40
1
 10
76.34235200000001
 20
72.693168
 30
0
 10
60.93708
 20
73.936792
 30
0
 10
42.518176
 20
66.036192
 30
0
 10
29.743304
 20
56.200248
 30
0
  0
SPLINE
  5
A3
100
AcDbEntity
  8
0
  6
ByLayer
 62
    7
370
   -1
100
AcDbSpline
210
0
220
0
230
0
 70
    8
 71
    3
 72
    8
 73
    4
 74
    0
 42
1e-007
 43
1e-007
 40
0
 40
0
 40
0
 40
0
 40
1
 40
1
 40
1
 40
1
 10
29.743304
 20
56.200248
 30
0
 10
26.822024
 20
65.61132000000001
 30
0
 10
22.417656
 20
73.454992
 30
0
 10
15.572064
 20
80.023904
 30
0
  0
SPLINE
  5
A4
100
AcDbEntity
  8
0
  6
ByLayer
 62
    7
370
   -1
100
AcDbSpline
210
0
220
0
230
0
 70
    8
 71
    3
 72
    8
 73
    4
 74
    0
 42
1e-007
 43
1e-007
 40
0
 40
0
 40
0
 40
0
 40
1
 40
1
 40
1
 40
1
 10
15.572064
 20
80.023904
 30
0
 10
23.330392
 20
87.05256799999999
 30
0
 10
27.434152
 20
95.4496
 30
0
 10
29.947408
 20
103.69428
 30
0
  0
SPLINE
  5
A5
100
AcDbEntity
  8
0
  6
ByLayer
 62
    7
370
   -1
100
AcDbSpline
210
0
220
0
230
0
 70
    8
 71
    3
 72
    8
 73
    4
 74
    0
 42
1e-007
 43
1e-007
 40
0
 40
0
 40
0
 40
0
 40
1
 40
1
 40
1
 40
1
 10
29.947408
 20
103.69428
 30
0
 10
43.717808
 20
92.781904
 30
0
 10
62.120344
 20
86.982816
 30
0
 10
76.43370400000001
 20
87.306776
 30
0
  0
SPLINE
  5
A6
100
AcDbEntity
  8
0
  6
ByLayer
 62
    7
370
   -1
100
AcDbSpline
210
0
220
0
230
0
 70
    8
 71
    3
 72
    8
 73
    4
 74
    0
 42
1e-007
 43
1e-007
 40
0
 40
0
 40
0
 40
0
 40
1
 40
1
 40
1
 40
1
 10
79.999996
 20
11.913283
 30
0
 10
81.591295
 20
11.913283
 30
0
 10
83.117419
 20
11.28571
 30
0
 10
84.242637
 20
10.168623
 30
0
  0
SPLINE
  5
A7
100
AcDbEntity
  8
0
  6
ByLayer
 62
    7
370
   -1
100
AcDbSpline
210
0
220
0
230
0
 70
    8
 71
    3
 72
    8
 73
    4
 74
    0
 42
1e-007
 43
1e-007
 40
0
 40
0
 40
0
 40
0
 40
1
 40
1
 40
1
 40
1
 10
84.242637
 20
10.168623
 30
0
 10
85.36785500000001
 20
9.051534999999999
 30
0
 10
85.999995
 20
7.53644
 30
0
 10
85.999994
 20
5.95664
 30
0
  0
SPLINE
  5
A8
100
AcDbEntity
  8
0
  6
ByLayer
 62
    7
370
   -1
100
AcDbSpline
210
0
220
0
230
0
 70
    8
 71
    3
 72
    8
 73
    4
 74
    0
 42
1e-007
 43
1e-007
 40
0
 40
0
 40
0
 40
0
 40
1
 40
1
 40
1
 40
1
 10
85.999994
 20
5.95664
 30
0
 10
85.99999200000001
 20
2.666881
 30
0
 10
83.31370200000001
 20
5e-006
 30
0
 10
79.999996
 20
5e-006
 30
0
  0
SPLINE
  5
A9
100
AcDbEntity
  8
0
  6
ByLayer
 62
    7
370
   -1
100
AcDbSpline
210
0
220
0
230
0
 70
    8
 71
    3
 72
    8
 73
    4
 74
    0
 42
1e-007
 43
1e-007
 40
0
 40
0
 40
0
 40
0
 40
1
 40
1
 40
1
 40
1
 10
79.999996
 20
5e-006
 30
0
 10
76.68629
 20
5e-006
 30
0
 10
74.000001
 20
2.666881
 30
0
 10
73.99999800000001
 20
5.95664
 30
0
  0
SPLINE
  5
AA
100
AcDbEntity
  8
0
  6
ByLayer
 62
    7
370
   -1
100
AcDbSpline
210
0
220
0
230
0
 70
    8
 71
    3
 72
    8
 73
    4
 74
    0
 42
1e-007
 43
1e-007
 40
0
 40
0
 40
0
 40
0
 40
1
 40
1
 40
1
 40
1
 10
73.99999800000001
 20
5.95664
 30
0
 10
73.99999699999999
 20
7.53644
 30
0
 10
74.632138
 20
9.051534999999999
 30
0
 10
75.757356
 20
10.168622
 30
0
  0
SPLINE
  5
AB
100
AcDbEntity
  8
0
  6
ByLayer
 62
    7
370
   -1
100
AcDbSpline
210
0
220
0
230
0
 70
    8
 71
    3
 72
    8
 73
    4
 74
    0
 42
1e-007
 43
1e-007
 40
0
 40
0
 40
0
 40
0
 40
1
 40
1
 40
1
 40
1
 10
75.757356
 20
10.168622
 30
0
 10
76.88257299999999
 20
11.28571
 30
0
 10
78.408697
 20
11.913283
 30
0
 10
79.999996
 20
11.913283
 30
0
  0
SPLINE
  5
AC
100
AcDbEntity
  8
0
  6
ByLayer
 62
    7
370
   -1
100
AcDbSpline
210
0
220
0
230
0
 70
    8
 71
    3
 72
    8
 73
    4
 74
    0
 42
1e-007
 43
1e-007
 40
0
 40
0
 40
0
 40
0
 40
1
 40
1
 40
1
 40
1
 10
45.999998
 20
32.000039
 30
0
 10
47.591297
 20
32.000039
 30
0
 10
49.11742
 20
31.367897
 30
0
 10
50.242638
 20
30.242678
 30
0
  0
SPLINE
  5
AD
100
AcDbEntity
  8
0
  6
ByLayer
 62
    7
370
   -1
100
AcDbSpline
210
0
220
0
230
0
 70
    8
 71
    3
 72
    8
 73
    4
 74
    0
 42
1e-007
 43
1e-007
 40
0
 40
0
 40
0
 40
0
 40
1
 40
1
 40
1
 40
1
 10
50.242638
 20
30.242678
 30
0
 10
51.367856
 20
29.117459
 30
0
 10
51.999997
 20
27.591335
 30
0
 10
51.999996
 20
26.000035
 30
0
  0
SPLINE
  5
AE
100
AcDbEntity
  8
0
  6
ByLayer
 62
    7
370
   -1
100
AcDbSpline
210
0
220
0
230
0
 70
    8
 71
    3
 72
    8
 73
    4
 74
    0
 42
1e-007
 43
1e-007
 40
0
 40
0
 40
0
 40
0
 40
1
 40
1
 40
1
 40
1
 10
51.999996
 20
26.000035
 30
0
 10
51.999994
 20
22.686329
 30
0
 10
49.313703
 20
20.00004
 30
0
 10
45.999998
 20
20.00004
 30
0
  0
SPLINE
  5
AF
100
AcDbEntity
  8
0
  6
ByLayer
 62
    7
370
   -1
100
AcDbSpline
210
0
220
0
230
0
 70
    8
 71
    3
 72
    8
 73
    4
 74
    0
 42
1e-007
 43
1e-007
 40
0
 40
0
 40
0
 40
0
 40
1
 40
1
 40
1
 40
1
 10
45.999998
 20
20.00004
 30
0
 10
42.686292
 20
20.00004
 30
0
 10
40.000002
 20
22.686329
 30
0
 10
40
 20
26.000035
 30
0
  0
SPLINE
  5
B0
100
AcDbEntity
  8
0
  6
ByLayer
 62
    7
370
   -1
100
AcDbSpline
210
0
220
0
230
0
 70
    8
 71
    3
 72
    8
 73
    4
 74
    0
 42
1e-007
 43
1e-007
 40
0
 40
0
 40
0
 40
0
 40
1
 40
1
 40
1
 40
1
 10
40
 20
26.000035
 30
0
 10
39.999999
 20
27.591335
 30
0
 10
40.632139
 20
29.117459
 30
0
 10
41.757357
 20
30.242678
 30
0
  0
SPLINE
  5
B1
100
AcDbEntity
  8
0
  6
ByLayer
 62
    7
370
   -1
100
AcDbSpline
210
0
220
0
230
0
 70
    8
 71
    3
 72
    8
 73
    4
 74
    0
 42
1e-007
 43
1e-007
 40
0
 40
0
 40
0
 40
0
 40
1
 40
1
 40
1
 40
1
 10
41.757357
 20
30.242678
 30
0
 10
42.882575
 20
31.367897
 30
0
 10
44.408699
 20
32.000039
 30
0
 10
45.999998
 20
32.000039
 30
0
  0
SPLINE
  5
B2
100
AcDbEntity
  8
0
  6
ByLayer
 62
    7
370
   -1
100
AcDbSpline
210
0
220
0
230
0
 70
    8
 71
    3
 72
    8
 73
    4
 74
    0
 42
1e-007
 43
1e-007
 40
0
 40
0
 40
0
 40
0
 40
1
 40
1
 40
1
 40
1
 10
113.999996
 20
32.000039
 30
0
 10
115.591295
 20
32.000039
 30
0
 10
117.117419
 20
31.367897
 30
0
 10
118.242637
 20
30.242678
 30
0
  0
SPLINE
  5
B3
100
AcDbEntity
  8
0
  6
ByLayer
 62
    7
370
   -1
100
AcDbSpline
210
0
220
0
230
0
 70
    8
 71
    3
 72
    8
 73
    4
 74
    0
 42
1e-007
 43
1e-007
 40
0
 40
0
 40
0
 40
0
 40
1
 40
1
 40
1
 40
1
 10
118.242637
 20
30.242678
 30
0
 10
119.367855
 20
29.117459
 30
0
 10
119.999995
 20
27.591335
 30
0
 10
119.999994
 20
26.000035
 30
0
  0
SPLINE
  5
B4
100
AcDbEntity
  8
0
  6
ByLayer
 62
    7
370
   -1
100
AcDbSpline
210
0
220
0
230
0
 70
    8
 71
    3
 72
    8
 73
    4
 74
    0
 42
1e-007
 43
1e-007
 40
0
 40
0
 40
0
 40
0
 40
1
 40
1
 40
1
 40
1
 10
119.999994
 20
26.000035
 30
0
 10
119.999992
 20
22.686329
 30
0
 10
117.313702
 20
20.00004
 30
0
 10
113.999996
 20
20.00004
 30
0
  0
SPLINE
  5
B5
100
AcDbEntity
  8
0
  6
ByLayer
 62
    7
370
   -1
100
AcDbSpline
210
0
220
0
230
0
 70
    8
 71
    3
 72
    8
 73
    4
 74
    0
 42
1e-007
 43
1e-007
 40
0
 40
0
 40
0
 40
0
 40
1
 40
1
 40
1
 40
1
 10
113.999996
 20
20.00004
 30
0
 10
110.68629
 20
20.00004
 30
0
 10
108.000001
 20
22.686329
 30
0
 10
107.999998
 20
26.000035
 30
0
  0
SPLINE
  5
B6
100
AcDbEntity
  8
0
  6
ByLayer
 62
    7
370
   -1
100
AcDbSpline
210
0
220
0
230
0
 70
    8
 71
    3
 72
    8
 73
    4
 74
    0
 42
1e-007
 43
1e-007
 40
0
 40
0
 40
0
 40
0
 40
1
 40
1
 40
1
 40
1
 10
107.999998
 20
26.000035
 30
0
 10
107.999997
 20
27.591335
 30
0
 10
108.632138
 20
29.117459
 30
0
 10
109.757356
 20
30.242678
 30
0
  0
SPLINE
  5
B7
100
AcDbEntity
  8
0
  6
ByLayer
 62
    7
370
   -1
100
AcDbSpline
210
0
220
0
230
0
 70
    8
 71
    3
 72
    8
 73
    4
 74
    0
 42
1e-007
 43
1e-007
 40
0
 40
0
 40
0
 40
0
 40
1
 40
1
 40
1
 40
1
 10
109.757356
 20
30.242678
 30
0
 10
110.882573
 20
31.367897
 30
0
 10
112.408697
 20
32.000039
 30
0
 10
113.999996
 20
32.000039
 30
0
  0
SPLINE
  5
B8
100
AcDbEntity
  8
0
  6
ByLayer
 62
    7
370
   -1
100
AcDbSpline
210
0
220
0
230
0
 70
    8
 71
    3
 72
    8
 73
    4
 74
    0
 42
1e-007
 43
1e-007
 40
0
 40
0
 40
0
 40
0
 40
1
 40
1
 40
1
 40
1
 10
79.999996
 20
148.086829
 30
0
 10
81.591295
 20
148.086829
 30
0
 10
83.117419
 20
148.714402
 30
0
 10
84.242637
 20
149.831489
 30
0
  0
SPLINE
  5
B9
100
AcDbEntity
  8
0
  6
ByLayer
 62
    7
370
   -1
100
AcDbSpline
210
0
220
0
230
0
 70
    8
 71
    3
 72
    8
 73
    4
 74
    0
 42
1e-007
 43
1e-007
 40
0
 40
0
 40
0
 40
0
 40
1
 40
1
 40
1
 40
1
 10
84.242637
 20
149.831489
 30
0
 10
85.36785500000001
 20
150.948577
 30
0
 10
85.999995
 20
152.463672
 30
0
 10
85.999994
 20
154.043472
 30
0
  0
SPLINE
  5
BA
100
AcDbEntity
  8
0
  6
ByLayer
 62
    7
370
   -1
100
AcDbSpline
210
0
220
0
230
0
 70
    8
 71
    3
 72
    8
 73
    4
 74
    0
 42
1e-007
 43
1e-007
 40
0
 40
0
 40
0
 40
0
 40
1
 40
1
 40
1
 40
1
 10
85.999994
 20
154.043472
 30
0
 10
85.99999200000001
 20
157.333231
 30
0
 10
83.31370200000001
 20
160.000107
 30
0
 10
79.999996
 20
160.000107
 30
0
  0
SPLINE
  5
BB
100
AcDbEntity
  8
0
  6
ByLayer
 62
    7
370
   -1
100
AcDbSpline
210
0
220
0
230
0
 70
    8
 71
    3
 72
    8
 73
    4
 74
    0
 42
1e-007
 43
1e-007
 40
0
 40
0
 40
0
 40
0
 40
1
 40
1
 40
1
 40
1
 10
79.999996
 20
160.000107
 30
0
 10
76.68629
 20
160.000107
 30
0
 10
74.000001
 20
157.333231
 30
0
 10
73.99999800000001
 20
154.043472
 30
0
  0
SPLINE
  5
BC
100
AcDbEntity
  8
0
  6
ByLayer
 62
    7
370
   -1
100
AcDbSpline
210
0
220
0
230
0
 70
    8
 71
    3
 72
    8
 73
    4
 74
    0
 42
1e-007
 43
1e-007
 40
0
 40
0
 40
0
 40
0
 40
1
 40
1
 40
1
 40
1
 10
73.99999800000001
 20
154.043472
 30
0
 10
73.99999699999999
 20
152.463672
 30
0
 10
74.632138
 20
150.948577
 30
0
 10
75.757356
 20
149.83149
 30
0
  0
SPLINE
  5
BD
100
AcDbEntity
  8
0
  6
ByLayer
 62
    7
370
   -1
100
AcDbSpline
210
0
220
0
230
0
 70
    8
 71
    3
 72
    8
 73
    4
 74
    0
 42
1e-007
 43
1e-007
 40
0
 40
0
 40
0
 40
0
 40
1
 40
1
 40
1
 40
1
 10
75.757356
 20
149.83149
 30
0
 10
76.88257299999999
 20
148.714402
 30
0
 10
78.408697
 20
148.086829
 30
0
 10
79.999996
 20
148.086829
 30
0
  0
SPLINE
  5
BE
100
AcDbEntity
  8
0
  6
ByLayer
 62
    7
370
   -1
100
AcDbSpline
210
0
220
0
230
0
 70
    8
 71
    3
 72
    8
 73
    4
 74
    0
 42
1e-007
 43
1e-007
 40
0
 40
0
 40
0
 40
0
 40
1
 40
1
 40
1
 40
1
 10
45.999998
 20
128.000073
 30
0
 10
47.591297
 20
128.000073
 30
0
 10
49.11742
 20
128.632215
 30
0
 10
50.242638
 20
129.757434
 30
0
  0
SPLINE
  5
BF
100
AcDbEntity
  8
0
  6
ByLayer
 62
    7
370
   -1
100
AcDbSpline
210
0
220
0
230
0
 70
    8
 71
    3
 72
    8
 73
    4
 74
    0
 42
1e-007
 43
1e-007
 40
0
 40
0
 40
0
 40
0
 40
1
 40
1
 40
1
 40
1
 10
50.242638
 20
129.757434
 30
0
 10
51.367856
 20
130.882653
 30
0
 10
51.999997
 20
132.408777
 30
0
 10
51.999996
 20
134.000077
 30
0
  0
SPLINE
  5
C0
100
AcDbEntity
  8
0
  6
ByLayer
 62
    7
370
   -1
100
AcDbSpline
210
0
220
0
230
0
 70
    8
 71
    3
 72
    8
 73
    4
 74
    0
 42
1e-007
 43
1e-007
 40
0
 40
0
 40
0
 40
0
 40
1
 40
1
 40
1
 40
1
 10
51.999996
 20
134.000077
 30
0
 10
51.999994
 20
137.313783
 30
0
 10
49.313703
 20
140.000072
 30
0
 10
45.999998
 20
140.000072
 30
0
  0
SPLINE
  5
C1
100
AcDbEntity
  8
0
  6
ByLayer
 62
    7
370
   -1
100
AcDbSpline
210
0
220
0
230
0
 70
    8
 71
    3
 72
    8
 73
    4
 74
    0
 42
1e-007
 43
1e-007
 40
0
 40
0
 40
0
 40
0
 40
1
 40
1
 40
1
 40
1
 10
45.999998
 20
140.000072
 30
0
 10
42.686292
 20
140.000072
 30
0
 10
40.000002
 20
137.313783
 30
0
 10
40
 20
134.000077
 30
0
  0
SPLINE
  5
C2
100
AcDbEntity
  8
0
  6
ByLayer
 62
    7
370
   -1
100
AcDbSpline
210
0
220
0
230
0
 70
    8
 71
    3
 72
    8
 73
    4
 74
    0
 42
1e-007
 43
1e-007
 40
0
 40
0
 40
0
 40
0
 40
1
 40
1
 40
1
 40
1
 10
40
 20
134.000077
 30
0
 10
39.999999
 20
132.408777
 30
0
 10
40.632139
 20
130.882653
 30
0
 10
41.757357
 20
129.757434
 30
0
  0
SPLINE
  5
C3
100
AcDbEntity
  8
0
  6
ByLayer
 62
    7
370
   -1
100
AcDbSpline
210
0
220
0
230
0
 70
    8
 71
    3
 72
    8
 73
    4
 74
    0
 42
1e-007
 43
1e-007
 40
0
 40
0
 40
0
 40
0
 40
1
 40
1
 40
1
 40
1
 10
41.757357
 20
129.757434
 30
0
 10
42.882575
 20
128.632215
 30
0
 10
44.408699
 20
128.000073
 30
0
 10
45.999998
 20
128.000073
 30
0
  0
SPLINE
  5
C4
100
AcDbEntity
  8
0
  6
ByLayer
 62
    7
370
   -1
100
AcDbSpline
210
0
220
0
230
0
 70
    8
 71
    3
 72
    8
 73
    4
 74
    0
 42
1e-007
 43
1e-007
 40
0
 40
0
 40
0
 40
0
 40
1
 40
1
 40
1
 40
1
 10
113.999996
 20
128.000073
 30
0
 10
115.591295
 20
128.000073
 30
0
 10
117.117419
 20
128.632215
 30
0
 10
118.242637
 20
129.757434
 30
0
  0
SPLINE
  5
C5
100
AcDbEntity
  8
0
  6
ByLayer
 62
    7
370
   -1
100
AcDbSpline
210
0
220
0
230
0
 70
    8
 71
    3
 72
    8
 73
    4
 74
    0
 42
1e-007
 43
1e-007
 40
0
 40
0
 40
0
 40
0
 40
1
 40
1
 40
1
 40
1
 10
118.242637
 20
129.757434
 30
0
 10
119.367855
 20
130.882653
 30
0
 10
119.999995
 20
132.408777
 30
0
 10
119.999994
 20
134.000077
 30
0
  0
SPLINE
  5
C6
100
AcDbEntity
  8
0
  6
ByLayer
 62
    7
370
   -1
100
AcDbSpline
210
0
220
0
230
0
 70
    8
 71
    3
 72
    8
 73
    4
 74
    0
 42
1e-007
 43
1e-007
 40
0
 40
0
 40
0
 40
0
 40
1
 40
1
 40
1
 40
1
 10
119.999994
 20
134.000077
 30
0
 10
119.999992
 20
137.313783
 30
0
 10
117.313702
 20
140.000072
 30
0
 10
113.999996
 20
140.000072
 30
0
  0
SPLINE
  5
C7
100
AcDbEntity
  8
0
  6
ByLayer
 62
    7
370
   -1
100
AcDbSpline
210
0
220
0
230
0
 70
    8
 71
    3
 72
    8
 73
    4
 74
    0
 42
1e-007
 43
1e-007
 40
0
 40
0
 40
0
 40
0
 40
1
 40
1
 40
1
 40
1
 10
113.999996
 20
140.000072
 30
0
 10
110.68629
 20
140.000072
 30
0
 10
108.000001
 20
137.313783
 30
0
 10
107.999998
 20
134.000077
 30
0
  0
SPLINE
  5
C8
100
AcDbEntity
  8
0
  6
ByLayer
 62
    7
370
   -1
100
AcDbSpline
210
0
220
0
230
0
 70
    8
 71
    3
 72
    8
 73
    4
 74
    0
 42
1e-007
 43
1e-007
 40
0
 40
0
 40
0
 40
0
 40
1
 40
1
 40
1
 40
1
 10
107.999998
 20
134.000077
 30
0
 10
107.999997
 20
132.408777
 30
0
 10
108.632138
 20
130.882653
 30
0
 10
109.757356
 20
129.757434
 30
0
  0
SPLINE
  5
C9
100
AcDbEntity
  8
0
  6
ByLayer
 62
    7
370
   -1
100
AcDbSpline
210
0
220
0
230
0
 70
    8
 71
    3
 72
    8
 73
    4
 74
    0
 42
1e-007
 43
1e-007
 40
0
 40
0
 40
0
 40
0
 40
1
 40
1
 40
1
 40
1
 10
109.757356
 20
129.757434
 30
0
 10
110.882573
 20
128.632215
 30
0
 10
112.408697
 20
128.000073
 30
0
 10
113.999996
 20
128.000073
 30
0
  0
SPLINE
  5
CA
100
AcDbEntity
  8
0
  6
ByLayer
 62
    7
370
   -1
100
AcDbSpline
210
0
220
0
230
0
 70
    8
 71
    3
 72
    8
 73
    4
 74
    0
 42
1e-007
 43
1e-007
 40
0
 40
0
 40
0
 40
0
 40
1
 40
1
 40
1
 40
1
 10
148.086813
 20
79.999988
 30
0
 10
148.086813
 20
81.59128699999999
 30
0
 10
148.714386
 20
83.117411
 30
0
 10
149.831473
 20
84.24262899999999
 30
0
  0
SPLINE
  5
CB
100
AcDbEntity
  8
0
  6
ByLayer
 62
    7
370
   -1
100
AcDbSpline
210
0
220
0
230
0
 70
    8
 71
    3
 72
    8
 73
    4
 74
    0
 42
1e-007
 43
1e-007
 40
0
 40
0
 40
0
 40
0
 40
1
 40
1
 40
1
 40
1
 10
149.831473
 20
84.24262899999999
 30
0
 10
150.948561
 20
85.367847
 30
0
 10
152.463656
 20
85.999987
 30
0
 10
154.043456
 20
85.99998600000001
 30
0
  0
SPLINE
  5
CC
100
AcDbEntity
  8
0
  6
ByLayer
 62
    7
370
   -1
100
AcDbSpline
210
0
220
0
230
0
 70
    8
 71
    3
 72
    8
 73
    4
 74
    0
 42
1e-007
 43
1e-007
 40
0
 40
0
 40
0
 40
0
 40
1
 40
1
 40
1
 40
1
 10
154.043456
 20
85.99998600000001
 30
0
 10
157.333215
 20
85.999984
 30
0
 10
160.000091
 20
83.313694
 30
0
 10
160.000091
 20
79.999988
 30
0
  0
SPLINE
  5
CD
100
AcDbEntity
  8
0
  6
ByLayer
 62
    7
370
   -1
100
AcDbSpline
210
0
220
0
230
0
 70
    8
 71
    3
 72
    8
 73
    4
 74
    0
 42
1e-007
 43
1e-007
 40
0
 40
0
 40
0
 40
0
 40
1
 40
1
 40
1
 40
1
 10
160.000091
 20
79.999988
 30
0
 10
160.000091
 20
76.68628200000001
 30
0
 10
157.333215
 20
73.999993
 30
0
 10
154.043456
 20
73.99999
 30
0
  0
SPLINE
  5
CE
100
AcDbEntity
  8
0
  6
ByLayer
 62
    7
370
   -1
100
AcDbSpline
210
0
220
0
230
0
 70
    8
 71
    3
 72
    8
 73
    4
 74
    0
 42
1e-007
 43
1e-007
 40
0
 40
0
 40
0
 40
0
 40
1
 40
1
 40
1
 40
1
 10
154.043456
 20
73.99999
 30
0
 10
152.463656
 20
73.999989
 30
0
 10
150.948561
 20
74.63213
 30
0
 10
149.831474
 20
75.75734799999999
 30
0
  0
SPLINE
  5
CF
100
AcDbEntity
  8
0
  6
ByLayer
 62
    7
370
   -1
100
AcDbSpline
210
0
220
0
230
0
 70
    8
 71
    3
 72
    8
 73
    4
 74
    0
 42
1e-007
 43
1e-007
 40
0
 40
0
 40
0
 40
0
 40
1
 40
1
 40
1
 40
1
 10
149.831474
 20
75.75734799999999
 30
0
 10
148.714386
 20
76.882565
 30
0
 10
148.086813
 20
78.408689
 30
0
 10
148.086813
 20
79.999988
 30
0
  0
SPLINE
  5
D0
100
AcDbEntity
  8
0
  6
ByLayer
 62
    7
370
   -1
100
AcDbSpline
210
0
220
0
230
0
 70
    8
 71
    3
 72
    8
 73
    4
 74
    0
 42
1e-007
 43
1e-007
 40
0
 40
0
 40
0
 40
0
 40
1
 40
1
 40
1
 40
1
 10
128.000057
 20
45.999988
 30
0
 10
128.000057
 20
47.591287
 30
0
 10
128.632199
 20
49.117411
 30
0
 10
129.757418
 20
50.242629
 30
0
  0
SPLINE
  5
D1
100
AcDbEntity
  8
0
  6
ByLayer
 62
    7
370
   -1
100
AcDbSpline
210
0
220
0
230
0
 70
    8
 71
    3
 72
    8
 73
    4
 74
    0
 42
1e-007
 43
1e-007
 40
0
 40
0
 40
0
 40
0
 40
1
 40
1
 40
1
 40
1
 10
129.757418
 20
50.242629
 30
0
 10
130.882637
 20
51.367847
 30
0
 10
132.408761
 20
51.999987
 30
0
 10
134.000061
 20
51.999986
 30
0
  0
SPLINE
  5
D2
100
AcDbEntity
  8
0
  6
ByLayer
 62
    7
370
   -1
100
AcDbSpline
210
0
220
0
230
0
 70
    8
 71
    3
 72
    8
 73
    4
 74
    0
 42
1e-007
 43
1e-007
 40
0
 40
0
 40
0
 40
0
 40
1
 40
1
 40
1
 40
1
 10
134.000061
 20
51.999986
 30
0
 10
137.313767
 20
51.999984
 30
0
 10
140.000056
 20
49.313694
 30
0
 10
140.000056
 20
45.999988
 30
0
  0
SPLINE
  5
D3
100
AcDbEntity
  8
0
  6
ByLayer
 62
    7
370
   -1
100
AcDbSpline
210
0
220
0
230
0
 70
    8
 71
    3
 72
    8
 73
    4
 74
    0
 42
1e-007
 43
1e-007
 40
0
 40
0
 40
0
 40
0
 40
1
 40
1
 40
1
 40
1
 10
140.000056
 20
45.999988
 30
0
 10
140.000056
 20
42.686282
 30
0
 10
137.313767
 20
39.999993
 30
0
 10
134.000061
 20
39.99999
 30
0
  0
SPLINE
  5
D4
100
AcDbEntity
  8
0
  6
ByLayer
 62
    7
370
   -1
100
AcDbSpline
210
0
220
0
230
0
 70
    8
 71
    3
 72
    8
 73
    4
 74
    0
 42
1e-007
 43
1e-007
 40
0
 40
0
 40
0
 40
0
 40
1
 40
1
 40
1
 40
1
 10
134.000061
 20
39.99999
 30
0
 10
132.408761
 20
39.999989
 30
0
 10
130.882637
 20
40.63213
 30
0
 10
129.757418
 20
41.757348
 30
0
  0
SPLINE
  5
D5
100
AcDbEntity
  8
0
  6
ByLayer
 62
    7
370
   -1
100
AcDbSpline
210
0
220
0
230
0
 70
    8
 71
    3
 72
    8
 73
    4
 74
    0
 42
1e-007
 43
1e-007
 40
0
 40
0
 40
0
 40
0
 40
1
 40
1
 40
1
 40
1
 10
129.757418
 20
41.757348
 30
0
 10
128.632199
 20
42.882565
 30
0
 10
128.000057
 20
44.408689
 30
0
 10
128.000057
 20
45.999988
 30
0
  0
SPLINE
  5
D6
100
AcDbEntity
  8
0
  6
ByLayer
 62
    7
370
   -1
100
AcDbSpline
210
0
220
0
230
0
 70
    8
 71
    3
 72
    8
 73
    4
 74
    0
 42
1e-007
 43
1e-007
 40
0
 40
0
 40
0
 40
0
 40
1
 40
1
 40
1
 40
1
 10
128.000057
 20
113.999988
 30
0
 10
128.000057
 20
115.591287
 30
0
 10
128.632199
 20
117.117411
 30
0
 10
129.757418
 20
118.242629
 30
0
  0
SPLINE
  5
D7
100
AcDbEntity
  8
0
  6
ByLayer
 62
    7
370
   -1
100
AcDbSpline
210
0
220
0
230
0
 70
    8
 71
    3
 72
    8
 73
    4
 74
    0
 42
1e-007
 43
1e-007
 40
0
 40
0
 40
0
 40
0
 40
1
 40
1
 40
1
 40
1
 10
129.757418
 20
118.242629
 30
0
 10
130.882637
 20
119.367847
 30
0
 10
132.408761
 20
119.999987
 30
0
 10
134.000061
 20
119.999986
 30
0
  0
SPLINE
  5
D8
100
AcDbEntity
  8
0
  6
ByLayer
 62
    7
370
   -1
100
AcDbSpline
210
0
220
0
230
0
 70
    8
 71
    3
 72
    8
 73
    4
 74
    0
 42
1e-007
 43
1e-007
 40
0
 40
0
 40
0
 40
0
 40
1
 40
1
 40
1
 40
1
 10
134.000061
 20
119.999986
 30
0
 10
137.313767
 20
119.999984
 30
0
 10
140.000056
 20
117.313694
 30
0
 10
140.000056
 20
113.999988
 30
0
  0
SPLINE
  5
D9
100
AcDbEntity
  8
0
  6
ByLayer
 62
    7
370
   -1
100
AcDbSpline
210
0
220
0
230
0
 70
    8
 71
    3
 72
    8
 73
    4
 74
    0
 42
1e-007
 43
1e-007
 40
0
 40
0
 40
0
 40
0
 40
1
 40
1
 40
1
 40
1
 10
140.000056
 20
113.999988
 30
0
 10
140.000056
 20
110.686282
 30
0
 10
137.313767
 20
107.999993
 30
0
 10
134.000061
 20
107.99999
 30
0
  0
SPLINE
  5
DA
100
AcDbEntity
  8
0
  6
ByLayer
 62
    7
370
   -1
100
AcDbSpline
210
0
220
0
230
0
 70
    8
 71
    3
 72
    8
 73
    4
 74
    0
 42
1e-007
 43
1e-007
 40
0
 40
0
 40
0
 40
0
 40
1
 40
1
 40
1
 40
1
 10
134.000061
 20
107.99999
 30
0
 10
132.408761
 20
107.999989
 30
0
 10
130.882637
 20
108.63213
 30
0
 10
129.757418
 20
109.757348
 30
0
  0
SPLINE
  5
DB
100
AcDbEntity
  8
0
  6
ByLayer
 62
    7
370
   -1
100
AcDbSpline
210
0
220
0
230
0
 70
    8
 71
    3
 72
    8
 73
    4
 74
    0
 42
1e-007
 43
1e-007
 40
0
 40
0
 40
0
 40
0
 40
1
 40
1
 40
1
 40
1
 10
129.757418
 20
109.757348
 30
0
 10
128.632199
 20
110.882565
 30
0
 10
128.000057
 20
112.408689
 30
0
 10
128.000057
 20
113.999988
 30
0
  0
SPLINE
  5
DC
100
AcDbEntity
  8
0
  6
ByLayer
 62
    7
370
   -1
100
AcDbSpline
210
0
220
0
230
0
 70
    8
 71
    3
 72
    8
 73
    4
 74
    0
 42
1e-007
 43
1e-007
 40
0
 40
0
 40
0
 40
0
 40
1
 40
1
 40
1
 40
1
 10
11.913267
 20
79.999988
 30
0
 10
11.913267
 20
81.59128699999999
 30
0
 10
11.285694
 20
83.117411
 30
0
 10
10.168607
 20
84.24262899999999
 30
0
  0
SPLINE
  5
DD
100
AcDbEntity
  8
0
  6
ByLayer
 62
    7
370
   -1
100
AcDbSpline
210
0
220
0
230
0
 70
    8
 71
    3
 72
    8
 73
    4
 74
    0
 42
1e-007
 43
1e-007
 40
0
 40
0
 40
0
 40
0
 40
1
 40
1
 40
1
 40
1
 10
10.168607
 20
84.24262899999999
 30
0
 10
9.051519000000001
 20
85.367847
 30
0
 10
7.536424
 20
85.999987
 30
0
 10
5.956624
 20
85.99998600000001
 30
0
  0
SPLINE
  5
DE
100
AcDbEntity
  8
0
  6
ByLayer
 62
    7
370
   -1
100
AcDbSpline
210
0
220
0
230
0
 70
    8
 71
    3
 72
    8
 73
    4
 74
    0
 42
1e-007
 43
1e-007
 40
0
 40
0
 40
0
 40
0
 40
1
 40
1
 40
1
 40
1
 10
5.956624
 20
85.99998600000001
 30
0
 10
2.666865
 20
85.999984
 30
0
 10
-1.1e-005
 20
83.313694
 30
0
 10
-1.1e-005
 20
79.999988
 30
0
  0
SPLINE
  5
DF
100
AcDbEntity
  8
0
  6
ByLayer
 62
    7
370
   -1
100
AcDbSpline
210
0
220
0
230
0
 70
    8
 71
    3
 72
    8
 73
    4
 74
    0
 42
1e-007
 43
1e-007
 40
0
 40
0
 40
0
 40
0
 40
1
 40
1
 40
1
 40
1
 10
-1.1e-005
 20
79.999988
 30
0
 10
-1.1e-005
 20
76.68628200000001
 30
0
 10
2.666865
 20
73.999993
 30
0
 10
5.956624
 20
73.99999
 30
0
  0
SPLINE
  5
E0
100
AcDbEntity
  8
0
  6
ByLayer
 62
    7
370
   -1
100
AcDbSpline
210
0
220
0
230
0
 70
    8
 71
    3
 72
    8
 73
    4
 74
    0
 42
1e-007
 43
1e-007
 40
0
 40
0
 40
0
 40
0
 40
1
 40
1
 40
1
 40
1
 10
5.956624
 20
73.99999
 30
0
 10
7.536424
 20
73.999989
 30
0
 10
9.051519000000001
 20
74.63213
 30
0
 10
10.168606
 20
75.75734799999999
 30
0
  0
SPLINE
  5
E1
100
AcDbEntity
  8
0
  6
ByLayer
 62
    7
370
   -1
100
AcDbSpline
210
0
220
0
230
0
 70
    8
 71
    3
 72
    8
 73
    4
 74
    0
 42
1e-007
 43
1e-007
 40
0
 40
0
 40
0
 40
0
 40
1
 40
1
 40
1
 40
1
 10
10.168606
 20
75.75734799999999
 30
0
 10
11.285694
 20
76.882565
 30
0
 10
11.913267
 20
78.408689
 30
0
 10
11.913267
 20
79.999988
 30
0
  0
SPLINE
  5
E2
100
AcDbEntity
  8
0
  6
ByLayer
 62
    7
370
   -1
100
AcDbSpline
210
0
220
0
230
0
 70
    8
 71
    3
 72
    8
 73
    4
 74
    0
 42
1e-007
 43
1e-007
 40
0
 40
0
 40
0
 40
0
 40
1
 40
1
 40
1
 40
1
 10
32.000023
 20
45.999988
 30
0
 10
32.000023
 20
47.591287
 30
0
 10
31.367881
 20
49.117411
 30
0
 10
30.242662
 20
50.242629
 30
0
  0
SPLINE
  5
E3
100
AcDbEntity
  8
0
  6
ByLayer
 62
    7
370
   -1
100
AcDbSpline
210
0
220
0
230
0
 70
    8
 71
    3
 72
    8
 73
    4
 74
    0
 42
1e-007
 43
1e-007
 40
0
 40
0
 40
0
 40
0
 40
1
 40
1
 40
1
 40
1
 10
30.242662
 20
50.242629
 30
0
 10
29.117443
 20
51.367847
 30
0
 10
27.591319
 20
51.999987
 30
0
 10
26.000019
 20
51.999986
 30
0
  0
SPLINE
  5
E4
100
AcDbEntity
  8
0
  6
ByLayer
 62
    7
370
   -1
100
AcDbSpline
210
0
220
0
230
0
 70
    8
 71
    3
 72
    8
 73
    4
 74
    0
 42
1e-007
 43
1e-007
 40
0
 40
0
 40
0
 40
0
 40
1
 40
1
 40
1
 40
1
 10
26.000019
 20
51.999986
 30
0
 10
22.686313
 20
51.999984
 30
0
 10
20.000024
 20
49.313694
 30
0
 10
20.000024
 20
45.999988
 30
0
  0
SPLINE
  5
E5
100
AcDbEntity
  8
0
  6
ByLayer
 62
    7
370
   -1
100
AcDbSpline
210
0
220
0
230
0
 70
    8
 71
    3
 72
    8
 73
    4
 74
    0
 42
1e-007
 43
1e-007
 40
0
 40
0
 40
0
 40
0
 40
1
 40
1
 40
1
 40
1
 10
20.000024
 20
45.999988
 30
0
 10
20.000024
 20
42.686282
 30
0
 10
22.686313
 20
39.999993
 30
0
 10
26.000019
 20
39.99999
 30
0
  0
SPLINE
  5
E6
100
AcDbEntity
  8
0
  6
ByLayer
 62
    7
370
   -1
100
AcDbSpline
210
0
220
0
230
0
 70
    8
 71
    3
 72
    8
 73
    4
 74
    0
 42
1e-007
 43
1e-007
 40
0
 40
0
 40
0
 40
0
 40
1
 40
1
 40
1
 40
1
 10
26.000019
 20
39.99999
 30
0
 10
27.591319
 20
39.999989
 30
0
 10
29.117443
 20
40.63213
 30
0
 10
30.242662
 20
41.757348
 30
0
  0
SPLINE
  5
E7
100
AcDbEntity
  8
0
  6
ByLayer
 62
    7
370
   -1
100
AcDbSpline
210
0
220
0
230
0
 70
    8
 71
    3
 72
    8
 73
    4
 74
    0
 42
1e-007
 43
1e-007
 40
0
 40
0
 40
0
 40
0
 40
1
 40
1
 40
1
 40
1
 10
30.242662
 20
41.757348
 30
0
 10
31.367881
 20
42.882565
 30
0
 10
32.000023
 20
44.408689
 30
0
 10
32.000023
 20
45.999988
 30
0
  0
SPLINE
  5
E8
100
AcDbEntity
  8
0
  6
ByLayer
 62
    7
370
   -1
100
AcDbSpline
210
0
220
0
230
0
 70
    8
 71
    3
 72
    8
 73
    4
 74
    0
 42
1e-007
 43
1e-007
 40
0
 40
0
 40
0
 40
0
 40
1
 40
1
 40
1
 40
1
 10
32.000023
 20
113.999988
 30
0
 10
32.000023
 20
115.591287
 30
0
 10
31.367881
 20
117.117411
 30
0
 10
30.242662
 20
118.242629
 30
0
  0
SPLINE
  5
E9
100
AcDbEntity
  8
0
  6
ByLayer
 62
    7
370
   -1
100
AcDbSpline
210
0
220
0
230
0
 70
    8
 71
    3
 72
    8
 73
    4
 74
    0
 42
1e-007
 43
1e-007
 40
0
 40
0
 40
0
 40
0
 40
1
 40
1
 40
1
 40
1
 10
30.242662
 20
118.242629
 30
0
 10
29.117443
 20
119.367847
 30
0
 10
27.591319
 20
119.999987
 30
0
 10
26.000019
 20
119.999986
 30
0
  0
SPLINE
  5
EA
100
AcDbEntity
  8
0
  6
ByLayer
 62
    7
370
   -1
100
AcDbSpline
210
0
220
0
230
0
 70
    8
 71
    3
 72
    8
 73
    4
 74
    0
 42
1e-007
 43
1e-007
 40
0
 40
0
 40
0
 40
0
 40
1
 40
1
 40
1
 40
1
 10
26.000019
 20
119.999986
 30
0
 10
22.686313
 20
119.999984
 30
0
 10
20.000024
 20
117.313694
 30
0
 10
20.000024
 20
113.999988
 30
0
  0
SPLINE
  5
EB
100
AcDbEntity
  8
0
  6
ByLayer
 62
    7
370
   -1
100
AcDbSpline
210
0
220
0
230
0
 70
    8
 71
    3
 72
    8
 73
    4
 74
    0
 42
1e-007
 43
1e-007
 40
0
 40
0
 40
0
 40
0
 40
1
 40
1
 40
1
 40
1
 10
20.000024
 20
113.999988
 30
0
 10
20.000024
 20
110.686282
 30
0
 10
22.686313
 20
107.999993
 30
0
 10
26.000019
 20
107.99999
 30
0
  0
SPLINE
  5
EC
100
AcDbEntity
  8
0
  6
ByLayer
 62
    7
370
   -1
100
AcDbSpline
210
0
220
0
230
0
 70
    8
 71
    3
 72
    8
 73
    4
 74
    0
 42
1e-007
 43
1e-007
 40
0
 40
0
 40
0
 40
0
 40
1
 40
1
 40
1
 40
1
 10
26.000019
 20
107.99999
 30
0
 10
27.591319
 20
107.999989
 30
0
 10
29.117443
 20
108.63213
 30
0
 10
30.242662
 20
109.757348
 30
0
  0
SPLINE
  5
ED
100
AcDbEntity
  8
0
  6
ByLayer
 62
    7
370
   -1
100
AcDbSpline
210
0
220
0
230
0
 70
    8
 71
    3
 72
    8
 73
    4
 74
    0
 42
1e-007
 43
1e-007
 40
0
 40
0
 40
0
 40
0
 40
1
 40
1
 40
1
 40
1
 10
30.242662
 20
109.757348
 30
0
 10
31.367881
 20
110.882565
 30
0
 10
32.000023
 20
112.408689
 30
0
 10
32.000023
 20
113.999988
 30
0
  0
ENDBLK
  5
72
330
70
100
AcDbEntity
  8
0
100
AcDbBlockEnd
  0
BLOCK
  5
74
330
73
100
AcDbEntity
  8
0
100
AcDbBlockBegin
  2
boules
 70
    0
 10
0
 20
0
  3
boules
  1

  0
ENDBLK
  5
75
330
73
100
AcDbEntity
  8
0
100
AcDbBlockEnd
  0
ENDSEC
  0
SECTION
  2
ENTITIES
  0
CIRCLE
  5
EE
100
AcDbEntity
  8
noname
  6
ByLayer
 62
  256
370
   -1
100
AcDbCircle
 10
0
 20
0
 40
43
  0
CIRCLE
  5
EF
100
AcDbEntity
  8
noname
  6
ByLayer
 62
  256
370
   -1
100
AcDbCircle
 10
0
 20
0
 40
38
  0
CIRCLE
  5
F0
100
AcDbEntity
  8
noname
  6
ByLayer
 62
  256
370
   -1
100
AcDbCircle
 10
0
 20
0
 40
25
  0
LINE
  5
F1
100
AcDbEntity
  8
noname
  6
ByLayer
 62
  256
370
   -1
100
AcDbLine
 10
5.299199842074017
 20
51.48046797288339
 11
-5.299185442590442
 21
34.5195060497548
  0
LINE
  5
F2
100
AcDbEntity
  8
noname
  6
ByLayer
 62
  256
370
   -1
100
AcDbLine
 10
-5.299199842073676
 20
51.48046797288339
 11
5.299185442589987
 21
34.5195060497548
  0
DIMENSION
  5
F3
100
AcDbEntity
  8
noname
  6
ByLayer
 62
  256
370
   -1
100
AcDbDimension
  2
*D1
 10
-5.299199842073676
 20
51.48046797288339
 30
0
 11
-1000
 21
-600
 31
0
 70
   34
 71
    5
  3
Standard
 53
0
210
0
220
0
230
1
100
AcDb2LineAngularDimension
 13
-5.299185442590442
 23
34.5195060497548
 33
0
 14
5.299199842074017
 24
51.48046797288339
 34
0
 15
5.299185442589987
 25
34.5195060497548
 35
0
 16
2
 26
51
 36
0
  0
CIRCLE
  5
F4
100
AcDbEntity
  8
noname
  6
ByLayer
 62
  256
370
   -1
100
AcDbCircle
 10
0
 20
0
 40
32
  0
CIRCLE
  5
F5
100
AcDbEntity
  8
noname
  6
ByLayer
 62
  256
370
   -1
100
AcDbCircle
 10
0
 20
32
 40
2.5
  0
CIRCLE
  5
F6
100
AcDbEntity
  8
noname
  6
ByLayer
 62
  256
370
   -1
100
AcDbCircle
 10
7.199741958174855e-006
 20
40.64113711781931
 40
1.250000000000007
  0
DIMENSION
  5
F7
100
AcDbEntity
  8
noname
  6
ByLayer
 62
  256
370
   -1
100
AcDbDimension
  2
*D2
 10
7.199741958174855e-006
 20
40.64113711781931
 30
0
 11
-8.333326133591754
 21
42.51613711781931
 31
0
 70
   36
 71
    5
  3
Standard
 53
0
210
0
220
0
230
1
100
AcDbRadialDimension
 15
-1.249992800258383
 25
40.64113711781931
 35
0
 40
0
  0
ARC
  5
F8
100
AcDbEntity
  8
noname
  6
ByLayer
 62
  256
370
   -1
100
AcDbCircle
 10
-9.094947017729282e-013
 20
28.18198051533477
 40
2.25
100
AcDbArc
 50
225.0000000000082
 51
315.0000000000307
  0
LINE
  5
F9
100
AcDbEntity
  8
0
  6
ByLayer
 62
  256
370
   -1
100
AcDbLine
 10
-3.209158500621697
 20
37.86424833161345
 11
-1.060060120195544
 21
41.30352467611567
  0
LINE
  5
FA
100
AcDbEntity
  8
0
  6
ByLayer
 62
  256
370
   -1
100
AcDbLine
 10
1.060060120195999
 20
41.30352467611567
 11
3.209158500622948
 21
37.86424833161072
  0
ARC
  5
FB
100
AcDbEntity
  8
0
  6
ByLayer
 62
  256
370
   -1
100
AcDbCircle
 10
0
 20
40.64112559582418
 40
1.25
100
AcDbArc
 50
31.99999999999921
 51
148.0000000000008
  0
LINE
  5
FC
100
AcDbEntity
  8
0
  6
ByLayer
 62
  256
370
   -1
100
AcDbLine
 10
-10.53444381980387
 20
36.51062165189194
 11
-9.097609291694766
 21
40.30308156090041
  0
LINE
  5
FD
100
AcDbEntity
  8
0
  6
ByLayer
 62
  256
370
   -1
100
AcDbLine
 10
-7.018226567234251
 20
40.71669650131128
 11
-4.239452980020246
 21
37.76277318246377
  0
ARC
  5
FE
100
AcDbEntity
  8
0
  6
ByLayer
 62
  256
370
   -1
100
AcDbCircle
 10
-7.928690279587272
 20
39.86021776340328
 40
1.25
100
AcDbArc
 50
43.24999999999921
 51
159.2500000000008
  0
LINE
  5
FF
100
AcDbEntity
  8
0
  6
ByLayer
 62
  256
370
   -1
100
AcDbLine
 10
-17.45489637077503
 20
33.75391225748081
 11
-16.78554244011229
 21
37.75381362352834
  0
LINE
  5
100
100
AcDbEntity
  8
0
  6
ByLayer
 62
  256
370
   -1
100
AcDbLine
 10
-14.82680674355208
 20
38.56514851414795
 11
-11.52514466015441
 21
36.21009583752198
  0
ARC
  5
101
100
AcDbEntity
  8
0
  6
ByLayer
 62
  256
370
   -1
100
AcDbCircle
 10
-15.55268543819079
 20
37.5475041162025
 40
1.25
100
AcDbArc
 50
54.49999999999921
 51
170.5000000000008
  0
LINE
  5
102
100
AcDbEntity
  8
0
  6
ByLayer
 62
  256
370
   -1
100
AcDbLine
 10
-23.70456704303604
 20
29.7000589444267
 11
-23.82841660599695
 21
33.75368780118663
  0
LINE
  5
103
100
AcDbEntity
  8
0
  6
ByLayer
 62
  256
370
   -1
100
AcDbLine
 10
-22.06560105168421
 20
34.93156349717026
 11
-18.36793149437437
 21
33.26588481639976
  0
ARC
  5
104
100
AcDbEntity
  8
0
  6
ByLayer
 62
  256
370
   -1
100
AcDbCircle
 10
-22.57899961745113
 20
33.79186094269892
 40
1.25
100
AcDbArc
 50
65.74999999999922
 51
181.7500000000008
  0
LINE
  5
105
100
AcDbEntity
  8
0
  6
ByLayer
 62
  256
370
   -1
100
AcDbLine
 10
-29.04328449750756
 20
24.50484902212315
 11
-29.95557808484318
 21
28.45642668593155
  0
LINE
  5
106
100
AcDbEntity
  8
0
  6
ByLayer
 62
  256
370
   -1
100
AcDbLine
 10
-28.45642668593177
 20
29.95557808484295
 11
-24.50484902212031
 21
29.04328449750653
  0
ARC
  5
107
100
AcDbEntity
  8
0
  6
ByLayer
 62
  256
370
   -1
100
AcDbCircle
 10
-28.73761550386155
 20
28.73761550386143
 40
1.25
100
AcDbArc
 50
76.9999999999992
 51
193.0000000000008
  0
LINE
  5
108
100
AcDbEntity
  8
0
  6
ByLayer
 62
  256
370
   -1
100
AcDbLine
 10
-33.26588481640135
 20
18.3679314943771
 11
-34.93156349717049
 21
22.06560105168398
  0
LINE
  5
109
100
AcDbEntity
  8
0
  6
ByLayer
 62
  256
370
   -1
100
AcDbLine
 10
-33.75368780118686
 20
23.82841660599672
 11
-29.70005894442363
 21
23.70456704303569
  0
ARC
  5
10A
100
AcDbEntity
  8
0
  6
ByLayer
 62
  256
370
   -1
100
AcDbCircle
 10
-33.79186094269915
 20
22.5789996174509
 40
1.25
100
AcDbArc
 50
88.24999999999922
 51
204.2500000000008
  0
LINE
  5
10B
100
AcDbEntity
  8
0
  6
ByLayer
 62
  256
370
   -1
100
AcDbLine
 10
-36.21009583752402
 20
11.5251446601568
 11
-38.56514851414818
 21
14.82680674355186
  0
LINE
  5
10C
100
AcDbEntity
  8
0
  6
ByLayer
 62
  256
370
   -1
100
AcDbLine
 10
-37.75381362352857
 20
16.78554244011207
 11
-33.75391225747785
 21
17.45489637077537
  0
ARC
  5
10D
100
AcDbEntity
  8
0
  6
ByLayer
 62
  256
370
   -1
100
AcDbCircle
 10
-37.54750411620273
 20
15.55268543819057
 40
1.25
100
AcDbArc
 50
99.4999999999992
 51
215.5000000000008
  0
LINE
  5
10E
100
AcDbEntity
  8
0
  6
ByLayer
 62
  256
370
   -1
100
AcDbLine
 10
-37.76277318246639
 20
4.239452980022293
 11
-40.7166965013115
 21
7.018226567234024
  0
LINE
  5
10F
100
AcDbEntity
  8
0
  6
ByLayer
 62
  256
370
   -1
100
AcDbLine
 10
-40.30308156090064
 20
9.097609291694539
 11
-36.51062165188921
 21
10.53444381980478
  0
ARC
  5
110
100
AcDbEntity
  8
0
  6
ByLayer
 62
  256
370
   -1
100
AcDbCircle
 10
-39.86021776340351
 20
7.928690279587045
 40
1.25
100
AcDbArc
 50
110.7499999999992
 51
226.7500000000008
  0
LINE
  5
111
100
AcDbEntity
  8
0
  6
ByLayer
 62
  256
370
   -1
100
AcDbLine
 10
-37.86424833161368
 20
-3.209158500621925
 11
-41.3035246761159
 21
-1.060060120195772
  0
LINE
  5
112
100
AcDbEntity
  8
0
  6
ByLayer
 62
  256
370
   -1
100
AcDbLine
 10
-41.3035246761159
 20
1.060060120195317
 11
-37.86424833161095
 21
3.209158500623175
  0
ARC
  5
113
100
AcDbEntity
  8
0
  6
ByLayer
 62
  256
370
   -1
100
AcDbCircle
 10
-40.64112559582441
 20
-2.273736754432321e-013
 40
1.25
100
AcDbArc
 50
121.9999999999992
 51
238.0000000000008
  0
LINE
  5
114
100
AcDbEntity
  8
0
  6
ByLayer
 62
  256
370
   -1
100
AcDbLine
 10
-36.51062165189217
 20
-10.5344438198041
 11
-40.30308156090064
 21
-9.097609291694994
  0
LINE
  5
115
100
AcDbEntity
  8
0
  6
ByLayer
 62
  256
370
   -1
100
AcDbLine
 10
-40.7166965013115
 20
-7.018226567234478
 11
-37.762773182464
 21
-4.239452980020474
  0
ARC
  5
116
100
AcDbEntity
  8
0
  6
ByLayer
 62
  256
370
   -1
100
AcDbCircle
 10
-39.86021776340351
 20
-7.928690279587499
 40
1.25
100
AcDbArc
 50
133.2499999999992
 51
249.2500000000008
  0
LINE
  5
117
100
AcDbEntity
  8
0
  6
ByLayer
 62
  256
370
   -1
100
AcDbLine
 10
-33.75391225748103
 20
-17.45489637077526
 11
-37.75381362352857
 21
-16.78554244011252
  0
LINE
  5
118
100
AcDbEntity
  8
0
  6
ByLayer
 62
  256
370
   -1
100
AcDbLine
 10
-38.56514851414818
 20
-14.82680674355231
 11
-36.2100958375222
 21
-11.52514466015464
  0
ARC
  5
119
100
AcDbEntity
  8
0
  6
ByLayer
 62
  256
370
   -1
100
AcDbCircle
 10
-37.54750411620273
 20
-15.55268543819102
 40
1.25
100
AcDbArc
 50
144.4999999999992
 51
260.5000000000008
  0
LINE
  5
11A
100
AcDbEntity
  8
0
  6
ByLayer
 62
  256
370
   -1
100
AcDbLine
 10
-29.70005894442693
 20
-23.70456704303626
 11
-33.75368780118686
 21
-23.82841660599718
  0
LINE
  5
11B
100
AcDbEntity
  8
0
  6
ByLayer
 62
  256
370
   -1
100
AcDbLine
 10
-34.93156349717049
 20
-22.06560105168444
 11
-33.26588481639999
 21
-18.3679314943746
  0
ARC
  5
11C
100
AcDbEntity
  8
0
  6
ByLayer
 62
  256
370
   -1
100
AcDbCircle
 10
-33.79186094269915
 20
-22.57899961745125
 40
1.25
100
AcDbArc
 50
155.7499999999992
 51
271.7500000000007
  0
LINE
  5
11D
100
AcDbEntity
  8
0
  6
ByLayer
 62
  256
370
   -1
100
AcDbLine
 10
-24.50484902212338
 20
-29.04328449750778
 11
-28.45642668593177
 21
-29.95557808484341
  0
LINE
  5
11E
100
AcDbEntity
  8
0
  6
ByLayer
 62
  256
370
   -1
100
AcDbLine
 10
-29.95557808484318
 20
-28.456426685932
 11
-29.04328449750676
 21
-24.50484902212054
  0
ARC
  5
11F
100
AcDbEntity
  8
0
  6
ByLayer
 62
  256
370
   -1
100
AcDbCircle
 10
-28.73761550386166
 20
-28.73761550386178
 40
1.25
100
AcDbArc
 50
166.9999999999992
 51
283.0000000000008
  0
LINE
  5
120
100
AcDbEntity
  8
0
  6
ByLayer
 62
  256
370
   -1
100
AcDbLine
 10
-18.36793149437733
 20
-33.26588481640158
 11
-22.06560105168421
 21
-34.93156349717071
  0
LINE
  5
121
100
AcDbEntity
  8
0
  6
ByLayer
 62
  256
370
   -1
100
AcDbLine
 10
-23.82841660599695
 20
-33.75368780118708
 11
-23.70456704303592
 21
-29.70005894442386
  0
ARC
  5
122
100
AcDbEntity
  8
0
  6
ByLayer
 62
  256
370
   -1
100
AcDbCircle
 10
-22.57899961745113
 20
-33.79186094269937
 40
1.25
100
AcDbArc
 50
178.2499999999992
 51
294.2500000000008
  0
LINE
  5
123
100
AcDbEntity
  8
0
  6
ByLayer
 62
  256
370
   -1
100
AcDbLine
 10
-11.52514466015703
 20
-36.21009583752425
 11
-14.82680674355208
 21
-38.5651485141484
  0
LINE
  5
124
100
AcDbEntity
  8
0
  6
ByLayer
 62
  256
370
   -1
100
AcDbLine
 10
-16.78554244011229
 20
-37.7538136235288
 11
-17.4548963707756
 21
-33.75391225747808
  0
ARC
  5
125
100
AcDbEntity
  8
0
  6
ByLayer
 62
  256
370
   -1
100
AcDbCircle
 10
-15.55268543819079
 20
-37.54750411620296
 40
1.25
100
AcDbArc
 50
189.4999999999992
 51
305.5000000000008
  0
LINE
  5
126
100
AcDbEntity
  8
0
  6
ByLayer
 62
  256
370
   -1
100
AcDbLine
 10
-4.23945298002252
 20
-37.76277318246662
 11
-7.018226567234251
 21
-40.71669650131173
  0
LINE
  5
127
100
AcDbEntity
  8
0
  6
ByLayer
 62
  256
370
   -1
100
AcDbLine
 10
-9.09760929169488
 20
-40.30308156090086
 11
-10.53444381980501
 21
-36.51062165188944
  0
ARC
  5
128
100
AcDbEntity
  8
0
  6
ByLayer
 62
  256
370
   -1
100
AcDbCircle
 10
-7.928690279587272
 20
-39.86021776340374
 40
1.25
100
AcDbArc
 50
200.7499999999992
 51
316.7500000000008
  0
LINE
  5
129
100
AcDbEntity
  8
0
  6
ByLayer
 62
  256
370
   -1
100
AcDbLine
 10
3.209158500622038
 20
-37.86424833161391
 11
1.060060120195999
 21
-41.30352467611613
  0
LINE
  5
12A
100
AcDbEntity
  8
0
  6
ByLayer
 62
  256
370
   -1
100
AcDbLine
 10
-1.060060120195544
 20
-41.30352467611613
 11
-3.209158500623403
 21
-37.86424833161118
  0
ARC
  5
12B
100
AcDbEntity
  8
0
  6
ByLayer
 62
  256
370
   -1
100
AcDbCircle
 10
0
 20
-40.64112559582463
 40
1.25
100
AcDbArc
 50
211.9999999999992
 51
328.0000000000008
  0
LINE
  5
12C
100
AcDbEntity
  8
0
  6
ByLayer
 62
  256
370
   -1
100
AcDbLine
 10
10.53444381980398
 20
-36.51062165189239
 11
9.097609291694994
 21
-40.30308156090086
  0
LINE
  5
12D
100
AcDbEntity
  8
0
  6
ByLayer
 62
  256
370
   -1
100
AcDbLine
 10
7.018226567234024
 20
-40.71669650131173
 11
4.239452980020019
 21
-37.76277318246423
  0
ARC
  5
12E
100
AcDbEntity
  8
0
  6
ByLayer
 62
  256
370
   -1
100
AcDbCircle
 10
7.928690279587045
 20
-39.86021776340374
 40
1.25
100
AcDbArc
 50
223.2499999999992
 51
339.2500000000009
  0
LINE
  5
12F
100
AcDbEntity
  8
0
  6
ByLayer
 62
  256
370
   -1
100
AcDbLine
 10
17.45489637077503
 20
-33.75391225748126
 11
16.78554244011195
 21
-37.7538136235288
  0
LINE
  5
130
100
AcDbEntity
  8
0
  6
ByLayer
 62
  256
370
   -1
100
AcDbLine
 10
14.82680674355197
 20
-38.5651485141484
 11
11.52514466015396
 21
-36.21009583752243
  0
ARC
  5
131
100
AcDbEntity
  8
0
  6
ByLayer
 62
  256
370
   -1
100
AcDbCircle
 10
15.55268543819102
 20
-37.54750411620296
 40
1.25
100
AcDbArc
 50
234.4999999999992
 51
350.5000000000008
  0
LINE
  5
132
100
AcDbEntity
  8
0
  6
ByLayer
 62
  256
370
   -1
100
AcDbLine
 10
23.70456704303604
 20
-29.70005894442716
 11
23.82841660599695
 21
-33.75368780118708
  0
LINE
  5
133
100
AcDbEntity
  8
0
  6
ByLayer
 62
  256
370
   -1
100
AcDbLine
 10
22.06560105168398
 20
-34.93156349717071
 11
18.36793149437403
 21
-33.26588481640022
  0
ARC
  5
134
100
AcDbEntity
  8
0
  6
ByLayer
 62
  256
370
   -1
100
AcDbCircle
 10
22.57899961745102
 20
-33.79186094269937
 40
1.25
100
AcDbArc
 50
245.7499999999992
 51
1.750000000000756
  0
LINE
  5
135
100
AcDbEntity
  8
0
  6
ByLayer
 62
  256
370
   -1
100
AcDbLine
 10
29.04328449750801
 20
-24.50484902212361
 11
29.95557808484295
 21
-28.456426685932
  0
LINE
  5
136
100
AcDbEntity
  8
0
  6
ByLayer
 62
  256
370
   -1
100
AcDbLine
 10
28.456426685932
 20
-29.95557808484341
 11
24.50484902211997
 21
-29.04328449750699
  0
ARC
  5
137
100
AcDbEntity
  8
0
  6
ByLayer
 62
  256
370
   -1
100
AcDbCircle
 10
28.73761550386189
 20
-28.73761550386189
 40
1.25
100
AcDbArc
 50
256.9999999999992
 51
13.00000000000082
  0
LINE
  5
138
100
AcDbEntity
  8
0
  6
ByLayer
 62
  256
370
   -1
100
AcDbLine
 10
33.26588481640101
 20
-18.36793149437756
 11
34.93156349717106
 21
-22.06560105168444
  0
LINE
  5
139
100
AcDbEntity
  8
0
  6
ByLayer
 62
  256
370
   -1
100
AcDbLine
 10
33.75368780118697
 20
-23.82841660599718
 11
29.70005894442397
 21
-23.70456704303615
  0
ARC
  5
13A
100
AcDbEntity
  8
0
  6
ByLayer
 62
  256
370
   -1
100
AcDbCircle
 10
33.79186094269903
 20
-22.57899961745136
 40
1.25
100
AcDbArc
 50
268.2499999999993
 51
24.25000000000078
  0
LINE
  5
13B
100
AcDbEntity
  8
0
  6
ByLayer
 62
  256
370
   -1
100
AcDbLine
 10
36.21009583752402
 20
-11.52514466015725
 11
38.56514851414795
 21
-14.82680674355231
  0
LINE
  5
13C
100
AcDbEntity
  8
0
  6
ByLayer
 62
  256
370
   -1
100
AcDbLine
 10
37.753813623528
 20
-16.78554244011264
 11
33.75391225747808
 21
-17.45489637077583
  0
ARC
  5
13D
100
AcDbEntity
  8
0
  6
ByLayer
 62
  256
370
   -1
100
AcDbCircle
 10
37.54750411620307
 20
-15.55268543819102
 40
1.25
100
AcDbArc
 50
279.4999999999992
 51
35.50000000000075
  0
LINE
  5
13E
100
AcDbEntity
  8
0
  6
ByLayer
 62
  256
370
   -1
100
AcDbLine
 10
37.76277318246593
 20
-4.239452980022747
 11
40.71669650131093
 21
-7.018226567234478
  0
LINE
  5
13F
100
AcDbEntity
  8
0
  6
ByLayer
 62
  256
370
   -1
100
AcDbLine
 10
40.30308156090109
 20
-9.097609291695107
 11
36.5106216518891
 21
-10.53444381980523
  0
ARC
  5
140
100
AcDbEntity
  8
0
  6
ByLayer
 62
  256
370
   -1
100
AcDbCircle
 10
39.86021776340408
 20
-7.928690279587499
 40
1.25
100
AcDbArc
 50
290.7499999999992
 51
46.75000000000081
  0
LINE
  5
141
100
AcDbEntity
  8
0
  6
ByLayer
 62
  256
370
   -1
100
AcDbLine
 10
37.86424833161391
 20
3.20915850062147
 11
41.30352467611601
 21
1.060060120195317
  0
LINE
  5
142
100
AcDbEntity
  8
0
  6
ByLayer
 62
  256
370
   -1
100
AcDbLine
 10
41.30352467611601
 20
-1.060060120195772
 11
37.86424833161095
 21
-3.20915850062363
  0
ARC
  5
143
100
AcDbEntity
  8
0
  6
ByLayer
 62
  256
370
   -1
100
AcDbCircle
 10
40.64112559582395
 20
-2.273736754432321e-013
 40
1.25
100
AcDbArc
 50
301.9999999999992
 51
58.00000000000077
  0
LINE
  5
144
100
AcDbEntity
  8
0
  6
ByLayer
 62
  256
370
   -1
100
AcDbLine
 10
36.51062165189205
 20
10.53444381980364
 11
40.30308156090109
 21
9.097609291694539
  0
LINE
  5
145
100
AcDbEntity
  8
0
  6
ByLayer
 62
  256
370
   -1
100
AcDbLine
 10
40.71669650131093
 20
7.018226567234024
 11
37.76277318246389
 21
4.239452980020019
  0
ARC
  5
146
100
AcDbEntity
  8
0
  6
ByLayer
 62
  256
370
   -1
100
AcDbCircle
 10
39.86021776340408
 20
7.928690279587045
 40
1.25
100
AcDbArc
 50
313.2499999999993
 51
69.25000000000084
  0
LINE
  5
147
100
AcDbEntity
  8
0
  6
ByLayer
 62
  256
370
   -1
100
AcDbLine
 10
33.75391225748103
 20
17.4548963707748
 11
37.753813623528
 21
16.78554244011207
  0
LINE
  5
148
100
AcDbEntity
  8
0
  6
ByLayer
 62
  256
370
   -1
100
AcDbLine
 10
38.56514851414795
 20
14.82680674355186
 11
36.21009583752198
 21
11.52514466015418
  0
ARC
  5
149
100
AcDbEntity
  8
0
  6
ByLayer
 62
  256
370
   -1
100
AcDbCircle
 10
37.54750411620307
 20
15.55268543819057
 40
1.25
100
AcDbArc
 50
324.4999999999993
 51
80.5000000000008
  0
LINE
  5
14A
100
AcDbEntity
  8
0
  6
ByLayer
 62
  256
370
   -1
100
AcDbLine
 10
29.70005894442693
 20
23.70456704303581
 11
33.75368780118697
 21
23.82841660599672
  0
LINE
  5
14B
100
AcDbEntity
  8
0
  6
ByLayer
 62
  256
370
   -1
100
AcDbLine
 10
34.93156349717106
 20
22.06560105168398
 11
33.2658848164001
 21
18.36793149437415
  0
ARC
  5
14C
100
AcDbEntity
  8
0
  6
ByLayer
 62
  256
370
   -1
100
AcDbCircle
 10
33.79186094269903
 20
22.57899961745079
 40
1.25
100
AcDbArc
 50
335.7499999999992
 51
91.75000000000075
  0
LINE
  5
14D
100
AcDbEntity
  8
0
  6
ByLayer
 62
  256
370
   -1
100
AcDbLine
 10
24.50484902212293
 20
29.04328449750733
 11
28.456426685932
 21
29.95557808484295
  0
LINE
  5
14E
100
AcDbEntity
  8
0
  6
ByLayer
 62
  256
370
   -1
100
AcDbLine
 10
29.95557808484295
 20
28.45642668593155
 11
29.0432844975071
 21
24.50484902211997
  0
ARC
  5
14F
100
AcDbEntity
  8
0
  6
ByLayer
 62
  256
370
   -1
100
AcDbCircle
 10
28.73761550386189
 20
28.73761550386132
 40
1.25
100
AcDbArc
 50
346.9999999999992
 51
103.0000000000008
  0
LINE
  5
150
100
AcDbEntity
  8
0
  6
ByLayer
 62
  256
370
   -1
100
AcDbLine
 10
18.36793149437699
 20
33.26588481640113
 11
22.06560105168398
 21
34.93156349717026
  0
LINE
  5
151
100
AcDbEntity
  8
0
  6
ByLayer
 62
  256
370
   -1
100
AcDbLine
 10
23.82841660599695
 20
33.75368780118663
 11
23.70456704303604
 21
29.7000589444234
  0
ARC
  5
152
100
AcDbEntity
  8
0
  6
ByLayer
 62
  256
370
   -1
100
AcDbCircle
 10
22.57899961745102
 20
33.79186094269892
 40
1.25
100
AcDbArc
 50
358.2499999999993
 51
114.2500000000008
  0
LINE
  5
153
100
AcDbEntity
  8
0
  6
ByLayer
 62
  256
370
   -1
100
AcDbLine
 10
11.52514466015703
 20
36.2100958375238
 11
14.82680674355197
 21
38.56514851414795
  0
LINE
  5
154
100
AcDbEntity
  8
0
  6
ByLayer
 62
  256
370
   -1
100
AcDbLine
 10
16.78554244011195
 20
37.75381362352834
 11
17.45489637077605
 21
33.75391225747762
  0
ARC
  5
155
100
AcDbEntity
  8
0
  6
ByLayer
 62
  256
370
   -1
100
AcDbCircle
 10
15.55268543819102
 20
37.5475041162025
 40
1.25
100
AcDbArc
 50
9.499999999999206
 51
125.5000000000007
  0
LINE
  5
156
100
AcDbEntity
  8
0
  6
ByLayer
 62
  256
370
   -1
100
AcDbLine
 10
4.239452980022975
 20
37.76277318246616
 11
7.018226567234024
 21
40.71669650131128
  0
LINE
  5
157
100
AcDbEntity
  8
0
  6
ByLayer
 62
  256
370
   -1
100
AcDbLine
 10
9.097609291694994
 20
40.30308156090041
 11
10.53444381980501
 21
36.51062165188898
  0
ARC
  5
158
100
AcDbEntity
  8
0
  6
ByLayer
 62
  256
370
   -1
100
AcDbCircle
 10
7.928690279587045
 20
39.86021776340328
 40
1.25
100
AcDbArc
 50
20.74999999999922
 51
136.7500000000008
  0
ARC
  5
159
100
AcDbEntity
  8
0
  6
ByLayer
 62
  256
370
   -1
100
AcDbCircle
 10
0
 20
0
 40
38.00000000000012
100
AcDbArc
 50
83.59448699626149
 51
85.15551300373434
  0
ARC
  5
15A
100
AcDbEntity
  8
0
  6
ByLayer
 62
  256
370
   -1
100
AcDbCircle
 10
0
 20
0
 40
38.00000000000012
100
AcDbArc
 50
72.34448699626148
 51
73.9055130037343
  0
ARC
  5
15B
100
AcDbEntity
  8
0
  6
ByLayer
 62
  256
370
   -1
100
AcDbCircle
 10
0
 20
0
 40
38.00000000000012
100
AcDbArc
 50
61.09448699626147
 51
62.65551300373434
  0
ARC
  5
15C
100
AcDbEntity
  8
0
  6
ByLayer
 62
  256
370
   -1
100
AcDbCircle
 10
0
 20
0
 40
38.00000000000012
100
AcDbArc
 50
49.84448699626151
 51
51.40551300373428
  0
ARC
  5
15D
100
AcDbEntity
  8
0
  6
ByLayer
 62
  256
370
   -1
100
AcDbCircle
 10
0
 20
0
 40
38.00000000000012
100
AcDbArc
 50
38.59448699626155
 51
40.15551300373431
  0
ARC
  5
15E
100
AcDbEntity
  8
0
  6
ByLayer
 62
  256
370
   -1
100
AcDbCircle
 10
0
 20
0
 40
38.00000000000012
100
AcDbArc
 50
27.34448699626159
 51
28.90551300373436
  0
ARC
  5
15F
100
AcDbEntity
  8
0
  6
ByLayer
 62
  256
370
   -1
100
AcDbCircle
 10
0
 20
0
 40
38.00000000000012
100
AcDbArc
 50
16.09448699626122
 51
17.65551300373419
  0
ARC
  5
160
100
AcDbEntity
  8
0
  6
ByLayer
 62
  256
370
   -1
100
AcDbCircle
 10
0
 20
0
 40
38.00000000000012
100
AcDbArc
 50
4.844486996261256
 51
6.405513003734227
  0
ARC
  5
161
100
AcDbEntity
  8
0
  6
ByLayer
 62
  256
370
   -1
100
AcDbCircle
 10
0
 20
0
 40
38.00000000000012
100
AcDbArc
 50
353.5944869962613
 51
355.1555130037343
  0
ARC
  5
162
100
AcDbEntity
  8
0
  6
ByLayer
 62
  256
370
   -1
100
AcDbCircle
 10
0
 20
0
 40
38.00000000000012
100
AcDbArc
 50
342.3444869962613
 51
343.9055130037343
  0
ARC
  5
163
100
AcDbEntity
  8
0
  6
ByLayer
 62
  256
370
   -1
100
AcDbCircle
 10
0
 20
0
 40
38.00000000000012
100
AcDbArc
 50
331.0944869962614
 51
332.6555130037343
  0
ARC
  5
164
100
AcDbEntity
  8
0
  6
ByLayer
 62
  256
370
   -1
100
AcDbCircle
 10
0
 20
0
 40
38.00000000000012
100
AcDbArc
 50
319.8444869962614
 51
321.4055130037336
  0
ARC
  5
165
100
AcDbEntity
  8
0
  6
ByLayer
 62
  256
370
   -1
100
AcDbCircle
 10
0
 20
0
 40
38.00000000000012
100
AcDbArc
 50
308.5944869962614
 51
310.1555130037336
  0
ARC
  5
166
100
AcDbEntity
  8
0
  6
ByLayer
 62
  256
370
   -1
100
AcDbCircle
 10
0
 20
0
 40
38.00000000000012
100
AcDbArc
 50
297.3444869962615
 51
298.9055130037336
  0
ARC
  5
167
100
AcDbEntity
  8
0
  6
ByLayer
 62
  256
370
   -1
100
AcDbCircle
 10
0
 20
0
 40
38.00000000000012
100
AcDbArc
 50
286.0944869962615
 51
287.6555130037337
  0
ARC
  5
168
100
AcDbEntity
  8
0
  6
ByLayer
 62
  256
370
   -1
100
AcDbCircle
 10
0
 20
0
 40
38.00000000000012
100
AcDbArc
 50
274.8444869962615
 51
276.4055130037337
  0
ARC
  5
169
100
AcDbEntity
  8
0
  6
ByLayer
 62
  256
370
   -1
100
AcDbCircle
 10
0
 20
0
 40
38.00000000000012
100
AcDbArc
 50
263.5944869962616
 51
265.1555130037337
  0
ARC
  5
16A
100
AcDbEntity
  8
0
  6
ByLayer
 62
  256
370
   -1
100
AcDbCircle
 10
0
 20
0
 40
38.00000000000012
100
AcDbArc
 50
252.3444869962617
 51
253.9055130037338
  0
ARC
  5
16B
100
AcDbEntity
  8
0
  6
ByLayer
 62
  256
370
   -1
100
AcDbCircle
 10
0
 20
0
 40
38.00000000000012
100
AcDbArc
 50
241.0944869962617
 51
242.6555130037338
  0
ARC
  5
16C
100
AcDbEntity
  8
0
  6
ByLayer
 62
  256
370
   -1
100
AcDbCircle
 10
0
 20
0
 40
38.00000000000012
100
AcDbArc
 50
229.8444869962617
 51
231.4055130037339
  0
ARC
  5
16D
100
AcDbEntity
  8
0
  6
ByLayer
 62
  256
370
   -1
100
AcDbCircle
 10
0
 20
0
 40
38.00000000000012
100
AcDbArc
 50
218.5944869962618
 51
220.1555130037339
  0
ARC
  5
16E
100
AcDbEntity
  8
0
  6
ByLayer
 62
  256
370
   -1
100
AcDbCircle
 10
0
 20
0
 40
38.00000000000012
100
AcDbArc
 50
207.344486996261
 51
208.9055130037339
  0
ARC
  5
16F
100
AcDbEntity
  8
0
  6
ByLayer
 62
  256
370
   -1
100
AcDbCircle
 10
0
 20
0
 40
38.00000000000012
100
AcDbArc
 50
196.0944869962602
 51
197.6555130037332
  0
ARC
  5
170
100
AcDbEntity
  8
0
  6
ByLayer
 62
  256
370
   -1
100
AcDbCircle
 10
0
 20
0
 40
38.00000000000012
100
AcDbArc
 50
184.8444869962611
 51
186.405513003734
  0
ARC
  5
171
100
AcDbEntity
  8
0
  6
ByLayer
 62
  256
370
   -1
100
AcDbCircle
 10
0
 20
0
 40
38.00000000000012
100
AcDbArc
 50
173.5944869962603
 51
175.1555130037332
  0
ARC
  5
172
100
AcDbEntity
  8
0
  6
ByLayer
 62
  256
370
   -1
100
AcDbCircle
 10
0
 20
0
 40
38.00000000000012
100
AcDbArc
 50
162.3444869962611
 51
163.9055130037341
  0
ARC
  5
173
100
AcDbEntity
  8
0
  6
ByLayer
 62
  256
370
   -1
100
AcDbCircle
 10
0
 20
0
 40
38.00000000000012
100
AcDbArc
 50
151.0944869962603
 51
152.6555130037333
  0
ARC
  5
174
100
AcDbEntity
  8
0
  6
ByLayer
 62
  256
370
   -1
100
AcDbCircle
 10
0
 20
0
 40
38.00000000000012
100
AcDbArc
 50
139.8444869962612
 51
141.4055130037342
  0
ARC
  5
175
100
AcDbEntity
  8
0
  6
ByLayer
 62
  256
370
   -1
100
AcDbCircle
 10
0
 20
0
 40
38.00000000000012
100
AcDbArc
 50
128.5944869962604
 51
130.1555130037334
  0
ARC
  5
176
100
AcDbEntity
  8
0
  6
ByLayer
 62
  256
370
   -1
100
AcDbCircle
 10
0
 20
0
 40
38.00000000000012
100
AcDbArc
 50
117.3444869962613
 51
118.9055130037343
  0
ARC
  5
177
100
AcDbEntity
  8
0
  6
ByLayer
 62
  256
370
   -1
100
AcDbCircle
 10
0
 20
0
 40
38.00000000000012
100
AcDbArc
 50
106.0944869962605
 51
107.6555130037335
  0
ARC
  5
178
100
AcDbEntity
  8
0
  6
ByLayer
 62
  256
370
   -1
100
AcDbCircle
 10
0
 20
0
 40
38.00000000000012
100
AcDbArc
 50
94.84448699626135
 51
96.40551300373433
  0
LINE
  5
179
100
AcDbEntity
  8
0
  6
ByLayer
 62
  256
370
   -1
100
AcDbLine
 10
-1.590990257670569
 20
26.59099025766477
 11
-6.361336113861398
 21
31.36133611385469
  0
LINE
  5
17A
100
AcDbEntity
  8
0
  6
ByLayer
 62
  256
370
   -1
100
AcDbLine
 10
6.361336113860943
 20
31.36133611386208
 11
1.590990257670001
 21
26.59099025766579
  0
ARC
  5
17B
100
AcDbEntity
  8
0
  6
ByLayer
 62
  256
370
   -1
100
AcDbCircle
 10
-9.094947017729282e-013
 20
28.18198051533466
 40
2.25
100
AcDbArc
 50
225.0000000000041
 51
315.0000000000307
  0
CIRCLE
  5
17C
100
AcDbEntity
  8
0
  6
ByLayer
 62
  256
370
   -1
100
AcDbCircle
 10
0
 20
31.99999999999579
 40
2.499999999999776
  0
LINE
  5
17D
100
AcDbEntity
  8
0
  6
ByLayer
 62
  256
370
   -1
100
AcDbLine
 10
-25.78117758679821
 20
6.703946234957357
 11
-31.79216403691828
 21
3.641195662054315
  0
LINE
  5
17E
100
AcDbEntity
  8
0
  6
ByLayer
 62
  256
370
   -1
100
AcDbLine
 10
-27.86064210469704
 20
15.74117598891905
 11
-24.79789153178911
 21
9.730189538796253
  0
ARC
  5
17F
100
AcDbEntity
  8
0
  6
ByLayer
 62
  256
370
   -1
100
AcDbCircle
 10
-26.80265621121237
 20
8.708710914381186
 40
2.25
100
AcDbArc
 50
297.0000000000041
 51
27.00000000003068
  0
CIRCLE
  5
180
100
AcDbEntity
  8
0
  6
ByLayer
 62
  256
370
   -1
100
AcDbCircle
 10
-30.43380852144082
 20
9.888543819997153
 40
2.499999999999776
  0
LINE
  5
181
100
AcDbEntity
  8
0
  6
ByLayer
 62
  256
370
   -1
100
AcDbLine
 10
-14.34265376096766
 20
-22.44772362570927
 11
-13.28730183686616
 21
-29.11095343501643
  0
LINE
  5
182
100
AcDbEntity
  8
0
  6
ByLayer
 62
  256
370
   -1
100
AcDbLine
 10
-23.58015988295983
 20
-21.63275432981629
 11
-16.91693007364847
 21
-20.57740240571104
  0
ARC
  5
183
100
AcDbEntity
  8
0
  6
ByLayer
 62
  256
370
   -1
100
AcDbCircle
 10
-16.56495252730679
 20
-22.79970117204994
 40
2.25
100
AcDbArc
 50
9.000000000004121
 51
99.00000000003068
  0
CIRCLE
  5
184
100
AcDbEntity
  8
0
  6
ByLayer
 62
  256
370
   -1
100
AcDbCircle
 10
-18.80912807335676
 20
-25.88854381999488
 40
2.499999999999776
  0
LINE
  5
185
100
AcDbEntity
  8
0
  6
ByLayer
 62
  256
370
   -1
100
AcDbLine
 10
16.91693007364904
 20
-20.57740240570968
 11
23.58015988295597
 21
-21.63275432980993
  0
LINE
  5
186
100
AcDbEntity
  8
0
  6
ByLayer
 62
  256
370
   -1
100
AcDbLine
 10
13.28730183687105
 20
-29.110953435022
 11
14.34265376096903
 21
-22.4477236257095
  0
ARC
  5
187
100
AcDbEntity
  8
0
  6
ByLayer
 62
  256
370
   -1
100
AcDbCircle
 10
16.56495252730804
 20
-22.7997011720488
 40
2.25
100
AcDbArc
 50
81.00000000000412
 51
171.0000000000307
  0
CIRCLE
  5
188
100
AcDbEntity
  8
0
  6
ByLayer
 62
  256
370
   -1
100
AcDbCircle
 10
18.80912807335699
 20
-25.88854381999499
 40
2.499999999999776
  0
LINE
  5
189
100
AcDbEntity
  8
0
  6
ByLayer
 62
  256
370
   -1
100
AcDbLine
 10
24.79789153178808
 20
9.730189538796822
 11
27.86064210468999
 21
15.74117598891746
  0
LINE
  5
18A
100
AcDbEntity
  8
0
  6
ByLayer
 62
  256
370
   -1
100
AcDbLine
 10
31.79216403692499
 20
3.641195662057271
 11
25.781177586799
 21
6.703946234958607
  0
ARC
  5
18B
100
AcDbEntity
  8
0
  6
ByLayer
 62
  256
370
   -1
100
AcDbCircle
 10
26.80265621121202
 20
8.708710914382891
 40
2.25
100
AcDbArc
 50
153.0000000000041
 51
243.0000000000307
  0
CIRCLE
  5
18C
100
AcDbEntity
  8
0
  6
ByLayer
 62
  256
370
   -1
100
AcDbCircle
 10
30.43380852144105
 20
9.888543819996926
 40
2.499999999999776
  0
ARC
  5
18D
100
AcDbEntity
  8
0
  6
ByLayer
 62
  256
370
   -1
100
AcDbCircle
 10
0
 20
0
 40
32.00000000000217
100
AcDbArc
 50
29.46631296380814
 51
78.53368703619573
  0
ARC
  5
18E
100
AcDbEntity
  8
0
  6
ByLayer
 62
  256
370
   -1
100
AcDbCircle
 10
0
 20
0
 40
32.00000000000217
100
AcDbArc
 50
317.4663129638082
 51
6.53368703619573
  0
ARC
  5
18F
100
AcDbEntity
  8
0
  6
ByLayer
 62
  256
370
   -1
100
AcDbCircle
 10
0
 20
0
 40
32.00000000000217
100
AcDbArc
 50
245.4663129638082
 51
294.5336870361957
  0
ARC
  5
190
100
AcDbEntity
  8
0
  6
ByLayer
 62
  256
370
   -1
100
AcDbCircle
 10
0
 20
0
 40
32.00000000000217
100
AcDbArc
 50
173.4663129638082
 51
222.5336870361956
  0
ARC
  5
191
100
AcDbEntity
  8
0
  6
ByLayer
 62
  256
370
   -1
100
AcDbCircle
 10
0
 20
0
 40
32.00000000000217
100
AcDbArc
 50
101.4663129638082
 51
150.5336870361956
  0
DIMENSION
  5
192
100
AcDbEntity
  8
noname
  6
ByLayer
 62
  256
370
   -1
100
AcDbDimension
  2
*D3
 10
0
 20
0
 30
0
 11
16.834902477593
 21
13.50376553298872
 31
0
 70
   36
 71
    5
  3
Standard
 53
0
210
0
220
0
230
1
100
AcDbRadialDimension
 15
35.75319332900904
 25
23.88952001984285
 35
0
 40
0
  0
DIMENSION
  5
193
100
AcDbEntity
  8
noname
  6
ByLayer
 62
  256
370
   -1
100
AcDbDimension
  2
*D4
 10
0
 20
0
 30
0
 11
18.26912597388105
 21
5.545688519062537
 31
0
 70
   36
 71
    5
  3
Standard
 53
0
210
0
220
0
230
1
100
AcDbRadialDimension
 15
37.26984065532292
 25
7.413432236612948
 35
0
 40
0
  0
DIMENSION
  5
194
100
AcDbEntity
  8
noname
  6
ByLayer
 62
  256
370
   -1
100
AcDbDimension
  2
*D5
 10
0
 20
0
 30
0
 11
9.351675966869948
 21
-8.503633435812276
 31
0
 70
   36
 71
    5
  3
Standard
 53
0
210
0
220
0
230
1
100
AcDbRadialDimension
 15
20.78674030756304
 25
-13.88925582549018
 35
0
 40
0
  0
DIMENSION
  5
195
100
AcDbEntity
  8
noname
  6
ByLayer
 62
  256
370
   -1
100
AcDbDimension
  2
*D6
 10
0
 20
0
 30
0
 11
16.05835884023202
 21
-1.2824727515017
 31
0
 70
   36
 71
    5
  3
Standard
 53
0
210
0
220
0
230
1
100
AcDbRadialDimension
 15
31.38512897290298
 25
-6.242890304516322
 35
0
 40
0
  0
LINE
  5
196
100
AcDbEntity
  8
noname
  6
ByLayer
 62
  256
370
   -1
100
AcDbLine
 10
0
 20
0
 11
0
 21
49.99999999999989
  0
DIMENSION
  5
197
100
AcDbEntity
  8
noname
  6
ByLayer
 62
  256
370
   -1
100
AcDbDimension
  2
*D7
 10
7.071067811859962
 20
17.92893218813288
 30
0
 11
-1000
 21
-600
 31
0
 70
   34
 71
    5
  3
Standard
 53
0
210
0
220
0
230
1
100
AcDb2LineAngularDimension
 13
7.071067811862008
 23
32.07106781186383
 33
0
 14
-7.071067811869284
 24
17.92893218813288
 34
0
 15
-7.071067811870762
 25
32.07106781186383
 35
0
 16
1
 26
17
 36
0
  0
CIRCLE
  5
198
100
AcDbEntity
  8
noname
  6
ByLayer
 62
  256
370
   -1
100
AcDbCircle
 10
2.955857780762017e-012
 20
28.18198051534512
 40
2.250000000010292
  0
DIMENSION
  5
199
100
AcDbEntity
  8
noname
  6
ByLayer
 62
  256
370
   -1
100
AcDbDimension
  2
*D8
 10
2.955857780762017e-012
 20
28.18198051534512
 30
0
 11
-9.611111111118248
 21
30.056980515345
 31
0
 70
   36
 71
    5
  3
Standard
 53
0
210
0
220
0
230
1
100
AcDbRadialDimension
 15
-2.250000000007049
 25
28.18198051534512
 35
0
 40
0
  0
LINE
  5
19A
100
AcDbEntity
  8
noname
  6
ByLayer
 62
  256
370
   -1
100
AcDbLine
 10
6.361336113859011
 20
31.36133611386026
 11
-7.071067811861553
 21
17.92893218812537
  0
LINE
  5
19B
100
AcDbEntity
  8
noname
  6
ByLayer
 62
  256
370
   -1
100
AcDbLine
 10
7.071067811865987
 20
17.92893218812992
 11
-6.361336113867537
 21
31.36133611386083
  0
DIMENSION
  5
19C
100
AcDbEntity
  8
noname
  6
ByLayer
 62
  256
370
   -1
100
AcDbDimension
  2
*D9
 10
-30.43380852144082
 20
9.888543819997153
 30
0
 11
-37.44769741032951
 21
11.76354381999715
 31
0
 70
   36
 71
    5
 72
    0
  3
Standard
 53
0
210
0
220
0
230
1
100
AcDbRadialDimension
 15
-32.9338085214406
 25
9.888543819997153
 35
0
 40
0
  0
LEADER
  5
19D
100
AcDbEntity
  8
noname
  6
ByLayer
 62
  256
370
   -1
100
AcDbLeader
  3
Standard
 71
    1
 72
    0
 73
    3
 74
    0
 75
    0
 40
1
 41
10
 76
3
 76
3
 10
-23.27346240872566
 20
34.83119795807715
 30
0
 10
-30
 20
40
 30
0
 10
-30
 20
40
 30
0
  0
MTEXT
  5
19E
100
AcDbEntity
  8
noname
  6
ByLayer
 62
  256
370
   -1
100
AcDbMText
 10
-31
 20
35
 30
0
 40
3
 41
6.000000000000372
 71
    9
 72
    1
  1
x36\P
  7
iso
210
0
220
0
230
1
 50
0
 73
    2
 44
1
  0
ENDSEC
  0
SECTION
  2
OBJECTS
  0
DICTIONARY
  5
C
330
0
100
AcDbDictionary
281
    1
  3
ACAD_GROUP
350
D
  0
DICTIONARY
  5
D
330
C
100
AcDbDictionary
281
    1
  0
PLOTSETTINGS
  5
19F
  6
1x1
 40
0
 41
0
 42
0
 43
0
  0
ENDSEC
  0
EOF
