<?xml version="1.0" encoding="UTF-8" standalone="no"?>
<svg
   width="28.752014mm"
   height="28.767818mm"
   viewBox="0 0 28.752014 28.767818"
   version="1.1"
   xml:space="preserve"
   xmlns="http://www.w3.org/2000/svg"
   xmlns:svg="http://www.w3.org/2000/svg"><path
     style="fill:#ffffff"
     d="m 14.403394,4.1062512e-4 c -0.04307,-0.001348 -0.08612,6.4206488e-4 -0.129708,0.005684005 -0.276558,0.031782 -0.524994,0.19069855 -0.668176,0.42943115 L 13.086162,1.3026567 12.408167,0.55489875 C 11.968274,0.06855995 11.11917,0.23599313 10.898699,0.85358853 L 10.556601,1.8044349 9.7463142,1.2029212 C 9.2201052,0.81179081 8.4201608,1.1444783 8.3241788,1.7930661 L 8.1758674,2.790938 7.2617113,2.3594398 C 6.6695843,2.0799713 5.9508346,2.5606966 5.9827196,3.2146848 L 6.0333625,4.2244422 5.0525439,3.9784624 C 4.4167239,3.8188166 3.805111,4.4304312 3.964755,5.0662513 L 4.2091845,6.04707 3.199427,5.9979774 C 2.545439,5.9660944 2.0662613,6.6853591 2.3457323,7.2774859 L 2.7756802,8.1916419 1.7772916,8.3399533 C 1.1287036,8.4359333 0.79859954,9.235363 1.1897305,9.761572 l 0.5994467,0.810803 -0.94929611,0.339514 c -0.617596,0.220471 -0.78709784,1.070094 -0.30075684,1.509986 L 1.287399,13.10142 0.42181875,13.621285 c -0.562425,0.336719 -0.562425,1.202206 0,1.538924 L 1.287399,15.679557 0.53912425,16.357552 c -0.486341,0.439892 -0.31683916,1.288996 0.30075684,1.509468 l 0.94929611,0.340031 -0.5994467,0.812354 c -0.39113096,0.52621 -0.061029,1.326154 0.5875611,1.422135 l 0.9983886,0.148312 -0.4299479,0.914156 c -0.279471,0.592127 0.1997067,1.310875 0.8536947,1.278991 l 1.0097575,-0.05064 -0.2444295,0.982369 c -0.15783,0.63509 0.4526469,1.247265 1.0877889,1.087789 l 0.9808186,-0.245979 -0.050643,1.009757 c -0.03188,0.653989 0.6868647,1.135231 1.2789917,0.855762 l 0.9141561,-0.432015 0.1483114,0.998388 c 0.09598,0.64859 0.8959254,0.978692 1.4221354,0.587561 v 0.0021 l 0.8123539,-0.601514 0.340031,0.949296 c 0.220472,0.617595 1.069575,0.787096 1.509468,0.300757 l 0.677995,-0.748275 0.519348,0.867647 c 0.336719,0.562425 1.202205,0.562425 1.538924,0 l 0.519865,-0.867647 0.679545,0.748275 c 0.439892,0.486341 1.288998,0.31684 1.509469,-0.300757 l 0.340031,-0.949296 0.810803,0.599446 c 0.52621,0.391131 1.327706,0.06103 1.423686,-0.587561 l 0.148311,-0.998388 0.914156,0.432015 c 0.592128,0.279471 1.309327,-0.201772 1.277442,-0.855762 l -0.04909,-1.009757 0.980819,0.245979 c 0.635141,0.159474 1.245619,-0.4527 1.087789,-1.087789 v -0.0021 l -0.24443,-0.980302 1.008207,0.05064 c 0.653989,0.03188 1.134715,-0.686863 0.855245,-1.278991 l -0.431498,-0.914156 0.999939,-0.148312 c 0.648589,-0.09598 0.979208,-0.895925 0.588078,-1.422135 l -0.602031,-0.810287 0.951363,-0.342098 c 0.617597,-0.220471 0.787098,-1.069575 0.300757,-1.509468 l -0.747758,-0.677995 0.865064,-0.519348 c 0.562424,-0.336718 0.562424,-1.202205 0,-1.538924 l -0.865064,-0.519865 0.747758,-0.679545 c 0.486341,-0.439893 0.31684,-1.289516 -0.300757,-1.509986 L 26.96077,10.570304 27.562801,9.761568 V 9.759498 C 27.951905,9.233266 27.622591,8.4358204 26.974723,8.3399464 L 25.974781,8.1911252 26.406279,7.2774859 C 26.685749,6.6853583 26.205023,5.9660923 25.551034,5.9979774 l -1.008207,0.048576 0.24443,-0.9803019 C 24.946901,4.4304322 24.335287,3.8188186 23.699468,3.9784624 l -0.980819,0.2459798 0.04909,-1.0097574 C 22.799628,2.560789 22.082428,2.0799667 21.4903,2.3594398 L 20.576144,2.790938 20.427833,1.7930661 V 1.790999 C 20.330723,1.1435218 19.529901,0.81212941 19.004147,1.2029212 L 18.195411,1.8044349 17.853313,0.85358853 C 17.632843,0.23599113 16.783737,0.06855755 16.343844,0.55489875 L 15.664299,1.3005897 15.144434,0.43552619 C 14.98649,0.17211847 14.704895,0.00984807 14.403394,4.1062512e-4 Z" /><g
     transform="translate(42.06841,-2.5488389)"><path
       d="m -27.738119,3.0510736 a 0.39691469,0.39691469 0 0 0 -0.295073,0.190169 l -0.706416,1.177189 c -0.12378,0.01028 -0.247255,0.02128 -0.370004,0.03514 l -0.921391,-1.015442 a 0.39691469,0.39691469 0 0 0 -0.668175,0.132809 l -0.463021,1.29191 c -0.119407,0.03439 -0.238634,0.06915 -0.356567,0.10697 l -1.101225,-0.81597 a 0.39691469,0.39691469 0 0 0 -0.629419,0.260449 l -0.202571,1.361674 c -0.108552,0.05626 -0.216809,0.112772 -0.323494,0.172082 l -1.244369,-0.587561 a 0.39691469,0.39691469 0 0 0 -0.565856,0.378272 l 0.06718,1.379244 c -0.09428,0.0753 -0.187523,0.151522 -0.279569,0.229443 l -1.339453,-0.334863 a 0.39691469,0.39691469 0 0 0 -0.481625,0.481624 l 0.334864,1.339454 c -0.07792,0.09205 -0.154146,0.18529 -0.229444,0.27957 l -1.379244,-0.06718 a 0.39691469,0.39691469 0 0 0 -0.378271,0.565857 l 0.587561,1.2443684 c -0.05931,0.106686 -0.115818,0.214943 -0.172083,0.323495 l -1.361674,0.202571 a 0.39691469,0.39691469 0 0 0 -0.260449,0.629419 l 0.815971,1.101225 c -0.03782,0.117933 -0.07258,0.23716 -0.10697,0.356567 l -1.291911,0.463021 a 0.39691469,0.39691469 0 0 0 -0.132808,0.668176 l 1.015441,0.921391 c -0.01386,0.122749 -0.02486,0.246224 -0.03514,0.370004 l -1.177189,0.706416 a 0.39691469,0.39691469 0 0 0 0,0.681096 l 1.177189,0.706416 c 0.01028,0.12378 0.02128,0.247255 0.03514,0.370004 l -1.015441,0.921391 a 0.39691469,0.39691469 0 0 0 0.132808,0.668176 l 1.291911,0.463021 c 0.03439,0.119407 0.06915,0.238633 0.10697,0.356567 l -0.815971,1.101225 a 0.39691469,0.39691469 0 0 0 0.260449,0.629419 l 1.361674,0.202571 c 0.05626,0.108552 0.112773,0.216809 0.172083,0.323495 l -0.587561,1.244368 a 0.39691469,0.39691469 0 0 0 0.378271,0.565857 l 1.379244,-0.06718 c 0.0753,0.09428 0.151523,0.187523 0.229444,0.27957 l -0.334864,1.339453 a 0.39691469,0.39691469 0 0 0 0.481625,0.481624 l 1.339453,-0.334863 c 0.09205,0.07792 0.18529,0.154145 0.279569,0.229443 l -0.06718,1.379244 a 0.39691469,0.39691469 0 0 0 0.565856,0.378272 l 1.244369,-0.58756 c 0.106686,0.05931 0.214942,0.115816 0.323494,0.172082 l 0.202571,1.361673 a 0.39691469,0.39691469 0 0 0 0.629419,0.26045 l 1.101225,-0.815972 c 0.117934,0.03782 0.23716,0.07258 0.356567,0.106971 l 0.463021,1.29191 a 0.39691469,0.39691469 0 0 0 0.668175,0.132808 l 0.921391,-1.015442 c 0.12275,0.01386 0.246224,0.02486 0.370004,0.03514 l 0.706416,1.177187 a 0.39691469,0.39691469 0 0 0 0.681096,0 l 0.706416,-1.177187 c 0.12378,-0.01028 0.247255,-0.02128 0.370004,-0.03514 l 0.921391,1.015442 a 0.39691469,0.39691469 0 0 0 0.668176,-0.132808 l 0.463021,-1.29191 c 0.119407,-0.03439 0.238633,-0.06915 0.356567,-0.106971 l 1.101225,0.815972 a 0.39691469,0.39691469 0 0 0 0.629419,-0.26045 l 0.202571,-1.361673 c 0.108552,-0.05627 0.216809,-0.112773 0.323495,-0.172082 l 1.244368,0.58756 a 0.39691469,0.39691469 0 0 0 0.565857,-0.378272 l -0.06718,-1.379244 c 0.09428,-0.0753 0.187523,-0.151522 0.27957,-0.229443 l 1.339453,0.334863 a 0.39691469,0.39691469 0 0 0 0.481624,-0.481624 l -0.334863,-1.339453 c 0.07792,-0.09205 0.154145,-0.185291 0.229443,-0.27957 l 1.379244,0.06718 a 0.39691469,0.39691469 0 0 0 0.378272,-0.565857 l -0.58756,-1.244368 c 0.05931,-0.106686 0.115816,-0.214943 0.172082,-0.323495 l 1.361673,-0.202571 a 0.39691469,0.39691469 0 0 0 0.26045,-0.629419 l -0.815972,-1.101225 c 0.03782,-0.117934 0.07258,-0.23716 0.106971,-0.356567 l 1.29191,-0.463021 a 0.39691469,0.39691469 0 0 0 0.132809,-0.668176 l -1.015443,-0.921391 c 0.01386,-0.122749 0.02486,-0.246224 0.03514,-0.370004 l 1.177187,-0.706416 a 0.39691469,0.39691469 0 0 0 0,-0.681096 l -1.177187,-0.706416 c -0.01028,-0.12378 -0.02128,-0.247255 -0.03514,-0.370004 l 1.015443,-0.921391 a 0.39691469,0.39691469 0 0 0 -0.132809,-0.668176 l -1.29191,-0.463021 c -0.03439,-0.119407 -0.06915,-0.238634 -0.106971,-0.356567 l 0.815972,-1.101225 a 0.39691469,0.39691469 0 0 0 -0.26045,-0.629419 L -16.5295,11.179777 c -0.05627,-0.108552 -0.112773,-0.216809 -0.172082,-0.323495 l 0.58756,-1.2443684 a 0.39691469,0.39691469 0 0 0 -0.378272,-0.565857 l -1.379244,0.06718 c -0.0753,-0.09428 -0.151522,-0.187523 -0.229443,-0.279569 l 0.334863,-1.339454 a 0.39691469,0.39691469 0 0 0 -0.481624,-0.481624 l -1.339453,0.334863 c -0.09205,-0.07792 -0.185291,-0.154145 -0.27957,-0.229443 l 0.06718,-1.379244 a 0.39691469,0.39691469 0 0 0 -0.565858,-0.378272 l -1.244368,0.587561 c -0.106686,-0.05931 -0.214943,-0.115817 -0.323495,-0.172082 l -0.202571,-1.361674 a 0.39691469,0.39691469 0 0 0 -0.629419,-0.260449 l -1.101225,0.81597 c -0.117934,-0.03782 -0.23716,-0.07258 -0.356567,-0.10697 l -0.463021,-1.291911 a 0.39691469,0.39691469 0 0 0 -0.668176,-0.132809 l -0.921391,1.015442 c -0.122749,-0.01386 -0.246224,-0.02486 -0.370004,-0.03514 l -0.706416,-1.177189 a 0.39691469,0.39691469 0 0 0 -0.386023,-0.190169 z m 0.04547,2.510957 a 0.79375,0.79375 0 0 1 0.79375,0.79375 0.79375,0.79375 0 0 1 -0.79375,0.79375 0.79375,0.79375 0 0 1 -0.79375,-0.79375 0.79375,0.79375 0 0 1 0.79375,-0.79375 z m -1.874821,1.364258 1.313615,1.313616 a 0.79382937,0.79382937 0 0 0 1.122412,0 l 1.313615,-1.313616 c 3.059306,0.56594 5.632484,2.489834 7.07192,5.1288864 l -0.846977,1.661915 a 0.79382937,0.79382937 0 0 0 0.347266,1.067635 l 1.653129,0.842325 c 0.05493,0.42977 0.0863,0.866979 0.0863,1.312065 0,0.267449 -0.01351,0.531587 -0.03359,0.79375 h -1.024744 a 0.1323049,0.1323049 0 0 0 -0.132292,0.132292 v 0.529166 c 0,0.501606 -0.15366,0.842941 -0.375687,1.068669 -0.222028,0.225729 -0.519483,0.338358 -0.821656,0.353467 -0.302172,0.01511 -0.605633,-0.0696 -0.825789,-0.227377 -0.220156,-0.157778 -0.358118,-0.37896 -0.358118,-0.665592 a 0.1323049,0.1323049 0 0 0 -0.0026,-0.02584 c -0.137613,-0.688068 -0.47783,-1.298555 -0.818554,-1.741496 -0.170362,-0.22147 -0.340845,-0.40108 -0.490409,-0.52865 -0.05455,-0.04652 -0.10331,-0.07805 -0.152446,-0.110587 0.877372,-0.518194 1.464247,-1.139701 1.739429,-1.809709 0.298613,-0.727059 0.272181,-1.491622 0.01395,-2.180229 -0.516427,-1.377211 -1.950367,-2.46703 -3.596661,-2.46703 h -10.829306 c 1.460694,-1.5970444 3.426089,-2.7227774 5.647198,-3.1336604 z m -8.167975,5.9489914 a 0.79375,0.79375 0 0 1 0.222726,0.03876 0.79375,0.79375 0 0 1 0.509529,0.999939 0.79375,0.79375 0 0 1 -0.999939,0.509529 0.79375,0.79375 0 0 1 -0.509529,-0.999939 0.79375,0.79375 0 0 1 0.777213,-0.548287 z m 20.085594,0 a 0.79375,0.79375 0 0 1 0.777213,0.548287 0.79375,0.79375 0 0 1 -0.509529,0.999939 0.79375,0.79375 0 0 1 -0.999939,-0.509529 0.79375,0.79375 0 0 1 0.509529,-0.999939 0.79375,0.79375 0 0 1 0.222726,-0.03876 z m -18.38854,0.359668 h 1.73116 v 6.614584 h -3.150194 c -0.272994,-0.921912 -0.42168,-1.898081 -0.42168,-2.910417 0,-0.445086 0.03137,-0.882295 0.0863,-1.312065 l 1.653129,-0.842325 a 0.79382937,0.79382937 0 0 0 0.347265,-1.067635 z m 6.229075,0 h 3.307292 c 0.507118,0 0.874682,0.127104 1.111043,0.304375 0.236361,0.17727 0.344165,0.401181 0.344165,0.621667 0,0.220486 -0.107804,0.444397 -0.344165,0.621667 -0.236361,0.177271 -0.603925,0.304375 -1.111043,0.304375 h -3.307292 z m 0,4.7625 h 2.513542 c 0.693528,0 1.085448,0.252991 1.363224,0.654224 0.277777,0.401232 0.426433,0.965001 0.558106,1.557528 0.131672,0.592526 0.246868,1.211574 0.488859,1.730127 0.241991,0.518552 0.627946,0.940528 1.265039,1.082104 a 0.1323049,0.1323049 0 0 0 0.02894,0.0031 h 4.076753 c -0.238422,0.320363 -0.496773,0.624508 -0.770495,0.914156 l -1.840198,-0.291455 a 0.79382937,0.79382937 0 0 0 -0.907955,0.659391 l -0.291972,1.841748 c -1.322628,0.626124 -2.802506,0.977201 -4.367175,0.977201 -1.564669,0 -3.044546,-0.351077 -4.367174,-0.977201 l -0.291973,-1.841747 a 0.79382937,0.79382937 0 0 0 -0.907955,-0.659391 l -1.840198,0.291455 c -0.27372,-0.289648 -0.532072,-0.593793 -0.770494,-0.914156 h 8.310085 a 0.1323049,0.1323049 0 0 0 0.132291,-0.132292 v -2.910417 a 0.1323049,0.1323049 0 0 0 -0.132291,-0.132291 h -2.248959 z m -4.058665,6.711218 a 0.79375,0.79375 0 0 1 0.421162,0.150379 0.79375,0.79375 0 0 1 0.1757,1.108976 0.79375,0.79375 0 0 1 -1.108976,0.175183 0.79375,0.79375 0 0 1 -0.175183,-1.108459 0.79375,0.79375 0 0 1 0.687297,-0.326079 z m 12.350666,0 a 0.79375,0.79375 0 0 1 0.687296,0.326079 0.79375,0.79375 0 0 1 -0.175183,1.108459 0.79375,0.79375 0 0 1 -1.108976,-0.175183 0.79375,0.79375 0 0 1 0.1757,-1.108976 0.79375,0.79375 0 0 1 0.421163,-0.150379 z"
       /></g></svg>
