<?xml version="1.0" encoding="UTF-8" standalone="no"?>
<svg
   version="1.1"
   height="106"
   width="106"
   id="svg39"
   xmlns:xlink="http://www.w3.org/1999/xlink"
   xmlns="http://www.w3.org/2000/svg"
   xmlns:svg="http://www.w3.org/2000/svg">
  <defs
     id="defs39">
    <mask
       id="holes">
      <rect
         x="-60"
         y="-60"
         width="120"
         height="120"
         fill="#ffffff"
         id="rect35" />
      <circle
         id="hole"
         cy="-40"
         r="3"
         cx="0" />
      <use
         xlink:href="#hole"
         transform="rotate(72)"
         id="use36" />
      <use
         xlink:href="#hole"
         transform="rotate(144)"
         id="use37" />
      <use
         xlink:href="#hole"
         transform="rotate(-144)"
         id="use38" />
      <use
         xlink:href="#hole"
         transform="rotate(-72)"
         id="use39" />
    </mask>
  </defs>
  <path
     id="circle1"
     style="baseline-shift:baseline;display:inline;overflow:visible;opacity:1;vector-effect:none;enable-background:accumulate;stop-color:#000000;stop-opacity:1"
     d="M 52.896484,0.50195312 A 1.50015,1.50015 0 0 0 51.712891,1.2285156 l -2.660157,4.4335938 c -0.474118,0.039238 -0.945895,0.085535 -1.416015,0.1386718 h -0.002 l -3.472657,-3.828125 a 1.50015,1.50015 0 0 0 -2.52539,0.5019532 L 39.892578,7.3398438 C 39.436217,7.471171 38.981915,7.6112907 38.53125,7.7558594 l -4.154297,-3.078125 a 1.50015,1.50015 0 0 0 -2.378906,0.984375 L 31.236328,10.791016 C 30.820966,11.006176 30.408138,11.228124 30,11.455078 H 29.998 L 25.306641,9.2382812 a 1.50015,1.50015 0 0 0 -2.138672,1.4296878 l 0.251953,5.199219 c -0.360134,0.287525 -0.714891,0.579304 -1.066406,0.876953 l -5.050782,-1.261719 a 1.50015,1.50015 0 0 0 -1.820312,1.820312 l 1.261719,5.050782 c -0.297649,0.351515 -0.589428,0.706272 -0.876953,1.066406 L 10.667969,23.167969 A 1.50015,1.50015 0 0 0 9.2382812,25.306641 L 11.455078,30 c -0.226954,0.408138 -0.448902,0.820966 -0.664062,1.236328 l -5.1289066,0.761719 a 1.50015,1.50015 0 0 0 -0.984375,2.378906 l 3.078125,4.154297 c -0.1445689,0.450666 -0.2846882,0.904966 -0.4160156,1.361328 l -4.8652344,1.744141 a 1.50015,1.50015 0 0 0 -0.5019532,2.52539 l 3.828125,3.472657 c -0.053229,0.470758 -0.09938,0.943201 -0.1386718,1.417968 l -4.4335938,2.660157 a 1.50015,1.50015 0 0 0 0,2.574218 l 4.4335938,2.660157 c 0.039238,0.474118 0.085535,0.947848 0.1386718,1.417968 l -3.828125,3.472657 a 1.50015,1.50015 0 0 0 0.5019532,2.52539 l 4.8652344,1.744141 c 0.1313273,0.456361 0.2714467,0.910662 0.4160156,1.361328 l -3.078125,4.154297 a 1.50015,1.50015 0 0 0 0.984375,2.378906 l 5.1289066,0.761719 c 0.21516,0.415362 0.437108,0.830143 0.664062,1.238281 l -2.2167968,4.691406 a 1.50015,1.50015 0 0 0 1.4296878,2.138672 l 5.199219,-0.251953 c 0.287525,0.360134 0.579304,0.714891 0.876953,1.066406 l -1.261719,5.050782 a 1.50015,1.50015 0 0 0 1.820312,1.820312 l 5.050782,-1.261719 c 0.351515,0.297649 0.706272,0.589428 1.066406,0.876953 l -0.251953,5.199219 a 1.50015,1.50015 0 0 0 2.138672,1.429688 L 30,94.544922 c 0.408138,0.226954 0.820966,0.448902 1.236328,0.664062 l 0.761719,5.128906 a 1.50015,1.50015 0 0 0 2.378906,0.98438 l 4.154297,-3.078129 c 0.450665,0.144568 0.904967,0.284688 1.361328,0.416015 l 1.744141,4.865234 a 1.50015,1.50015 0 0 0 2.52539,0.50195 l 3.472657,-3.82812 c 0.470758,0.0532 0.943201,0.0994 1.417968,0.13867 l 2.660157,4.43359 a 1.50015,1.50015 0 0 0 2.574218,0 l 2.660157,-4.43359 c 0.474119,-0.0392 0.945894,-0.0855 1.416015,-0.13867 h 0.002 l 3.472657,3.82812 a 1.50015,1.50015 0 0 0 2.52539,-0.50195 l 1.744141,-4.865234 c 0.456361,-0.131327 0.910662,-0.271447 1.361328,-0.416015 l 4.154297,3.078129 A 1.50015,1.50015 0 0 0 74.002,100.33789 l 0.761719,-5.128906 C 75.179034,94.993824 75.591862,94.771876 76,94.544922 h 0.002 l 4.691406,2.216797 a 1.50015,1.50015 0 0 0 2.138672,-1.429688 l -0.251953,-5.199219 c 0.360134,-0.287525 0.714891,-0.579304 1.066406,-0.876953 l 5.050782,1.261719 a 1.50015,1.50015 0 0 0 1.820312,-1.820312 l -1.261719,-5.050782 c 0.297649,-0.351515 0.589428,-0.706272 0.876953,-1.066406 l 5.199219,0.251953 a 1.50015,1.50015 0 0 0 1.429688,-2.138672 l -2.216797,-4.691406 c 0.227248,-0.408632 0.448637,-0.822407 0.664062,-1.238281 l 5.128909,-0.761719 a 1.50015,1.50015 0 0 0 0.98438,-2.378906 L 98.244141,67.46875 c 0.144568,-0.450666 0.284688,-0.904967 0.416015,-1.361328 l 4.865234,-1.744141 a 1.50015,1.50015 0 0 0 0.50195,-2.52539 l -3.82812,-3.47461 c 0.0531,-0.47012 0.0994,-0.941897 0.13867,-1.416015 l 4.43359,-2.660157 a 1.50015,1.50015 0 0 0 0,-2.574218 l -4.43359,-2.660157 c -0.0392,-0.474119 -0.0855,-0.947847 -0.13867,-1.417968 l 3.82812,-3.472657 a 1.50015,1.50015 0 0 0 -0.50195,-2.52539 L 98.660156,39.892578 C 98.528829,39.436216 98.38871,38.981916 98.244141,38.53125 l 3.078129,-4.154297 a 1.50015,1.50015 0 0 0 -0.98438,-2.378906 l -5.128906,-0.761719 c -0.21516,-0.415361 -0.437109,-0.830144 -0.664062,-1.238281 l 2.216797,-4.691406 a 1.50015,1.50015 0 0 0 -1.429688,-2.138672 l -5.199219,0.251953 c -0.287525,-0.360134 -0.579304,-0.714891 -0.876953,-1.066406 l 1.261719,-5.050782 a 1.50015,1.50015 0 0 0 -1.820312,-1.820312 l -5.050782,1.261719 c -0.351515,-0.297649 -0.706272,-0.589428 -1.066406,-0.876953 l 0.251953,-5.199219 A 1.50015,1.50015 0 0 0 80.693359,9.2382812 l -4.691406,2.2167968 c -0.40863,-0.227246 -0.82241,-0.448638 -1.238281,-0.664062 L 74.001953,5.6621094 A 1.50015,1.50015 0 0 0 71.623047,4.6777344 L 67.46875,7.7558594 C 67.018084,7.6112905 66.563783,7.4711712 66.107422,7.3398438 L 64.363281,2.4746094 a 1.50015,1.50015 0 0 0 -2.52539,-0.5019532 l -3.47461,3.828125 C 57.893161,5.7476439 57.421384,5.7013471 56.947266,5.6621094 L 54.287109,1.2285156 A 1.50015,1.50015 0 0 0 52.896484,0.50195312 Z M 53,10 a 3,3 0 0 1 3,3 3,3 0 0 1 -3,3 3,3 0 0 1 -3,-3 3,3 0 0 1 3,-3 z m -7.09375,5.148438 4.972656,4.972656 a 3.0003,3.0003 0 0 0 4.242188,0 l 4.972656,-4.972656 c 11.560278,2.139797 21.282716,9.41638 26.722656,19.388671 l -3.203125,6.285157 a 3.0003,3.0003 0 0 0 1.3125,4.035156 L 91.1875,48.048828 C 91.394076,49.669155 91.5,51.322097 91.5,53 c 0,10.26189 -3.983419,19.566752 -10.492188,26.457031 l -6.966796,-1.103515 a 3.0003,3.0003 0 0 0 -3.431641,2.492187 L 69.505859,87.8125 C 64.507396,90.178425 58.913018,91.5 53,91.5 47.086982,91.5 41.492604,90.178425 36.494141,87.8125 l -1.103516,-6.966797 a 3.0003,3.0003 0 0 0 -3.431641,-2.492187 l -6.966796,1.103515 C 18.483419,72.566752 14.5,63.26189 14.5,53 c 0,-1.677903 0.105924,-3.332798 0.3125,-4.953125 l 6.261719,-3.189453 a 3.0003,3.0003 0 0 0 1.3125,-4.035156 l -3.203125,-6.285157 c 5.43994,-9.97229 15.162378,-17.248874 26.722656,-19.388671 z m -30.791016,22.49414 a 3,3 0 0 1 0.769532,0.144531 3,3 0 0 1 1.925781,3.779297 3,3 0 0 1 -3.779297,1.925782 3,3 0 0 1 -1.925781,-3.779297 3,3 0 0 1 3.009765,-2.070313 z m 75.769532,0 a 3,3 0 0 1 3.009765,2.070313 3,3 0 0 1 -1.925781,3.779297 3,3 0 0 1 -3.779297,-1.925782 3,3 0 0 1 1.925781,-3.779297 3,3 0 0 1 0.769532,-0.144531 z m -61.47461,44.71875 a 3,3 0 0 1 1.841797,0.572266 3,3 0 0 1 0.664063,4.191406 3,3 0 0 1 -4.191407,0.662109 3,3 0 0 1 -0.662109,-4.189453 3,3 0 0 1 2.347656,-1.236328 z m 47.179688,0 a 3,3 0 0 1 2.347656,1.236328 3,3 0 0 1 -0.662109,4.189453 3,3 0 0 1 -4.191407,-0.662109 3,3 0 0 1 0.664063,-4.191406 3,3 0 0 1 1.841797,-0.572266 z" />
</svg>
