<?xml version="1.0" encoding="utf-8"?>
<!-- Generator: Adobe Illustrator 21.0.0, SVG Export Plug-In . SVG Version: 6.00 Build 0)  -->
<!DOCTYPE svg PUBLIC "-//W3C//DTD SVG 1.1//EN" "http://www.w3.org/Graphics/SVG/1.1/DTD/svg11.dtd">
<svg version="1.1" id="Layer_1" xmlns="http://www.w3.org/2000/svg" xmlns:xlink="http://www.w3.org/1999/xlink" x="0px" y="0px"
	 viewBox="0 0 198 162" style="enable-background:new 0 0 198 162;" xml:space="preserve">
<style type="text/css">
	.st0{fill:#FFFFFF;}
	.st1{fill:#EE483E;}
	.st2{fill:#B21E28;}
</style>
<g>
	<path class="st0" d="M189,65.8c0.4-9.3-2.6-17.5-8.6-23.8c-6.3-6.6-15.8-10.5-25.3-10.5c-3,0-6,0.4-8.7,1.1
		c-2.5,0.7-4.5,2.6-5.3,5.1c-0.8,2.5-0.3,5.2,1.3,7.3c1.4,1.7,2.5,3.8,3.5,6.1c-3.5-2.4-7.4-4-11.4-4.6c-0.4-0.1-0.8-0.1-1.2-0.1
		c-1,0-2,0.2-2.9,0.6c1.3-3.5,1.9-7.3,1.9-11.2c0-18.4-14.9-33.3-33.3-33.3c-18.4,0-33.3,14.9-33.3,33.3c0,3.9,0.7,7.7,1.9,11.2
		c-0.9-0.4-1.9-0.6-2.9-0.6c-0.4,0-0.8,0-1.2,0.1c-4,0.6-7.9,2.2-11.4,4.6c1-2.3,2.2-4.4,3.5-6.1c1.6-2.1,2.1-4.8,1.3-7.3
		c-0.8-2.5-2.8-4.4-5.3-5.1C49,31.9,46,31.5,43,31.5c-9.6,0-19,3.9-25.3,10.5c-6,6.3-9,14.5-8.6,23.8c0.8,19.1,20.2,39.2,39.3,41
		c0,0,0,0,0,0.1c-0.9,0.2-1.8,0.6-2.6,1.1c-9.1,5.3-16.1,11.7-20.8,18.9c-3.1,4.7-1.8,11.1,2.9,14.3c1.7,1.1,3.6,1.7,5.7,1.7
		c1.7,0,3.3-0.4,4.7-1.1c0,3.8,2.1,7.5,5.8,9.3c1.4,0.7,2.9,1,4.5,1c2.9,0,5.6-1.2,7.5-3.2c-0.2,2.3,0.4,4.6,1.7,6.6
		c1.5,2.3,3.9,3.8,6.6,4.3c0.6,0.1,1.3,0.2,2,0.2c4.9,0,9.2-3.5,10.1-8.3c0.6-3,1.3-4.5,2.7-5.9c1.3-1.3,2.1-2.8,2.6-4.4
		c2,0.3,4.1,0.5,6.2,0.5h23.4c2.1,0,4.1-0.2,6.1-0.5c0.5,1.6,1.4,3.2,2.6,4.4c1.4,1.4,2.1,2.9,2.7,5.9c0.9,4.8,5.2,8.3,10.1,8.3
		c0.7,0,1.3-0.1,2-0.2c2.7-0.5,5-2.1,6.6-4.3c1.3-2,1.9-4.3,1.7-6.6c1.9,2,4.6,3.2,7.5,3.2c1.5,0,3.1-0.4,4.5-1
		c3.7-1.8,5.8-5.5,5.8-9.3c1.4,0.7,3,1.1,4.7,1.1c2,0,4-0.6,5.7-1.7c4.7-3.1,6-9.5,2.9-14.3c-4.8-7.2-11.8-13.6-20.8-18.9
		c-0.8-0.5-1.7-0.8-2.6-1.1c0-0.1,0-0.1,0-0.2C169.5,104.3,188.2,84.6,189,65.8z"/>
	<g>
		<g>
			<g>
				<path class="st1" d="M41.7,69.8c0-12,3.4-22.7,8.6-29.2c0.3-0.4,0.2-1.1-0.4-1.2c-14.3-3.9-34.7,5.1-33.8,26.1
					c0.7,16.1,17.8,33.2,33.3,34.3c0.6,0,1.1-0.7,0.7-1.2C44.3,89.8,41.7,81.8,41.7,69.8z"/>
			</g>
			<g>
				<path class="st1" d="M50.2,62.8c-3.8,5.3-5.1,11.4-4.1,16.7c0.1,0.4,0.5,0.7,0.9,0.6c5.3-0.8,10.7-4,14.4-9.3
					c3.8-5.3,5.1-11.4,4.1-16.7c-0.1-0.4-0.5-0.7-0.9-0.6C59.4,54.3,54,57.6,50.2,62.8z"/>
			</g>
		</g>
		<g>
			<g>
				<path class="st1" d="M156.4,69.8c0-12-3.4-22.7-8.6-29.2c-0.3-0.4-0.2-1.1,0.4-1.2c14.3-3.9,34.7,5.1,33.8,26.1
					c-0.7,16.1-17.8,33.2-33.3,34.3c-0.6,0-1.1-0.7-0.7-1.2C153.8,89.8,156.4,81.8,156.4,69.8z"/>
			</g>
			<g>
				<path class="st1" d="M147.8,62.8c3.8,5.3,5.1,11.4,4.1,16.7c-0.1,0.4-0.5,0.7-0.9,0.6c-5.3-0.8-10.7-4-14.4-9.3
					s-5.1-11.4-4.1-16.7c0.1-0.4,0.5-0.7,0.9-0.6C138.7,54.3,144,57.6,147.8,62.8z"/>
			</g>
		</g>
	</g>
	<g>
		<g>
			<g>
				<path class="st1" d="M95.5,69.2h-7.7c-18.1,0-32.7,14.6-32.7,32.7v0c0,18.1,14.6,32.7,32.7,32.7h7.7c0.8,0,1.4-0.6,1.4-1.4V70.7
					C97,69.9,96.3,69.2,95.5,69.2z"/>
			</g>
		</g>
		<g>
			<path class="st1" d="M33.5,135.7c-0.6,0-1.2-0.2-1.8-0.5c-1.5-1-1.9-3-0.9-4.5c4.2-6.3,10.4-11.9,18.5-16.7
				c1.6-0.9,3.5-0.4,4.5,1.2c0.9,1.6,0.4,3.5-1.2,4.5c-7.3,4.3-12.8,9.2-16.4,14.7C35.6,135.2,34.6,135.7,33.5,135.7z"/>
		</g>
		<g>
			<path class="st1" d="M48.5,145c-0.5,0-1-0.1-1.4-0.3c-1.6-0.8-2.3-2.7-1.5-4.4c2.9-6,7.2-11.2,11.5-13.9c1.5-1,3.5-0.5,4.5,1
				c1,1.5,0.5,3.5-1,4.5c-3.3,2.1-6.8,6.4-9.2,11.3C50.9,144.3,49.7,145,48.5,145z"/>
		</g>
		<g>
			<path class="st1" d="M66.3,152.8c-0.2,0-0.4,0-0.6-0.1c-1.8-0.3-2.9-2.1-2.6-3.8c0.8-4,2.2-8.7,6.4-13c1.3-1.3,3.3-1.3,4.6,0
				c1.3,1.3,1.3,3.3,0,4.6c-2.8,2.8-3.9,5.9-4.6,9.6C69.2,151.8,67.8,152.8,66.3,152.8z"/>
		</g>
	</g>
	<g>
		<g>
			<g>
				<path class="st1" d="M103.5,69.2h7.7c18.1,0,32.7,14.6,32.7,32.7v0c0,18.1-14.6,32.7-32.7,32.7h-7.7c-0.8,0-1.4-0.6-1.4-1.4
					V70.7C102.1,69.9,102.7,69.2,103.5,69.2z"/>
			</g>
		</g>
		<g>
			<path class="st1" d="M165.6,135.7c-1.1,0-2.1-0.5-2.7-1.5c-3.6-5.5-9.1-10.4-16.4-14.7c-1.6-0.9-2.1-2.9-1.2-4.5
				c0.9-1.6,2.9-2.1,4.5-1.2c8.1,4.8,14.4,10.4,18.5,16.7c1,1.5,0.6,3.5-0.9,4.5C166.8,135.6,166.2,135.7,165.6,135.7z"/>
		</g>
		<g>
			<path class="st1" d="M150.6,145c-1.2,0-2.4-0.7-2.9-1.8c-2.4-4.9-5.9-9.2-9.2-11.3c-1.5-1-2-3-1-4.5c1-1.5,3-2,4.5-1
				c4.3,2.7,8.6,7.9,11.5,13.9c0.8,1.6,0.1,3.6-1.5,4.4C151.5,144.9,151,145,150.6,145z"/>
		</g>
		<g>
			<path class="st1" d="M132.8,152.8c-1.5,0-2.9-1.1-3.2-2.6c-0.7-3.7-1.8-6.8-4.6-9.6c-1.3-1.3-1.3-3.3,0-4.6
				c1.3-1.3,3.3-1.3,4.6,0c4.3,4.2,5.7,8.9,6.4,13c0.3,1.8-0.8,3.5-2.6,3.8C133.2,152.8,133,152.8,132.8,152.8z"/>
		</g>
	</g>
	<g>
		<path class="st1" d="M50.1,98.6c-5.8-8.8-8.5-16.8-8.5-28.8c0-12,3.4-22.7,8.6-29.2c0.3-0.4,0.2-1.1-0.4-1.2
			c-14.3-3.9-34.7,5.1-33.8,26.1c0.7,16.1,17.8,33.2,33.3,34.3C50.1,99.9,50.5,99.2,50.1,98.6z M46.1,79.5c0.1,0.4,0.5,0.7,0.9,0.6
			c5.3-0.8,10.7-4,14.4-9.3c3.8-5.3,5.1-11.4,4.1-16.7c-0.1-0.4-0.5-0.7-0.9-0.6c-5.3,0.8-10.7,4-14.4,9.3
			C46.5,68.1,45.2,74.2,46.1,79.5z M148.2,39.4c-0.5,0.1-0.7,0.8-0.4,1.2c5.2,6.5,8.6,17.1,8.6,29.2c0,12-2.6,20-8.5,28.8
			c-0.4,0.5,0.1,1.2,0.7,1.2c15.5-1.1,32.7-18.2,33.3-34.3C182.8,44.5,162.5,35.5,148.2,39.4z M151,80.1c0.4,0.1,0.8-0.2,0.9-0.6
			c1-5.3-0.3-11.4-4.1-16.7c-3.8-5.3-9.1-8.5-14.4-9.3c-0.4-0.1-0.8,0.2-0.9,0.6c-1,5.3,0.3,11.4,4.1,16.7
			C140.4,76.1,145.7,79.3,151,80.1z M95.5,69.2h-7.7c-18.1,0-32.7,14.6-32.7,32.7v0c0,18.1,14.6,32.7,32.7,32.7h7.7
			c0.8,0,1.4-0.6,1.4-1.4V70.7C97,69.9,96.3,69.2,95.5,69.2z M53.8,115.2c-0.9-1.6-2.9-2.1-4.5-1.2c-8.1,4.8-14.4,10.4-18.5,16.7
			c-1,1.5-0.6,3.5,0.9,4.5c0.6,0.4,1.2,0.5,1.8,0.5c1.1,0,2.1-0.5,2.7-1.5c3.6-5.5,9.1-10.4,16.4-14.7
			C54.2,118.7,54.7,116.7,53.8,115.2z M57.1,126.4c-4.3,2.7-8.6,7.9-11.5,13.9c-0.8,1.6-0.1,3.6,1.5,4.4c0.5,0.2,0.9,0.3,1.4,0.3
			c1.2,0,2.4-0.7,2.9-1.8c2.4-4.9,5.9-9.2,9.2-11.3c1.5-1,2-3,1-4.5C60.6,125.8,58.6,125.4,57.1,126.4z M69.5,136
			c-4.3,4.2-5.7,8.9-6.4,13c-0.3,1.8,0.8,3.5,2.6,3.8c0.2,0,0.4,0.1,0.6,0.1c1.5,0,2.9-1.1,3.2-2.6c0.7-3.7,1.8-6.8,4.6-9.6
			c1.3-1.3,1.3-3.3,0-4.6C72.8,134.7,70.8,134.7,69.5,136z M144,101.9L144,101.9c0-18.1-14.6-32.7-32.7-32.7h-7.7
			c-0.8,0-1.4,0.6-1.4,1.4v62.6c0,0.8,0.6,1.4,1.4,1.4h7.7C129.3,134.6,144,120,144,101.9z M149.7,114c-1.6-0.9-3.5-0.4-4.5,1.2
			c-0.9,1.6-0.4,3.5,1.2,4.5c7.3,4.3,12.8,9.2,16.4,14.7c0.6,0.9,1.7,1.5,2.7,1.5c0.6,0,1.2-0.2,1.8-0.5c1.5-1,1.9-3,0.9-4.5
			C164.1,124.4,157.9,118.8,149.7,114z M142,126.4c-1.5-1-3.5-0.5-4.5,1c-1,1.5-0.5,3.5,1,4.5c3.3,2.1,6.8,6.4,9.2,11.3
			c0.6,1.2,1.7,1.8,2.9,1.8c0.5,0,1-0.1,1.4-0.3c1.6-0.8,2.3-2.7,1.5-4.4C150.6,134.3,146.3,129.1,142,126.4z M129.6,136
			c-1.3-1.3-3.3-1.3-4.6,0c-1.3,1.3-1.3,3.3,0,4.6c2.8,2.8,3.9,5.9,4.6,9.6c0.3,1.6,1.7,2.6,3.2,2.6c0.2,0,0.4,0,0.6-0.1
			c1.8-0.3,2.9-2.1,2.6-3.8C135.2,144.9,133.8,140.2,129.6,136z"/>
		<path id="XMLID_1_" class="st2" d="M125.7,35.2l-2.3-1.4c0-0.2,0-0.4-0.1-0.7l2-1.8c0.2-0.2,0.3-0.5,0.2-0.7
			c-0.1-0.3-0.2-0.5-0.5-0.6l-2.5-0.9c-0.1-0.2-0.1-0.4-0.2-0.6l1.6-2.2c0.2-0.2,0.2-0.5,0.1-0.8c-0.1-0.2-0.3-0.4-0.6-0.5l-2.6-0.4
			c-0.1-0.2-0.2-0.4-0.3-0.6l1.1-2.4c0.1-0.2,0.1-0.5-0.1-0.8c-0.2-0.2-0.4-0.4-0.7-0.3l-2.7,0.1c-0.1-0.2-0.3-0.3-0.4-0.5l0.6-2.6
			c0.1-0.3,0-0.5-0.2-0.7c-0.2-0.2-0.5-0.3-0.7-0.2l-2.6,0.6c-0.2-0.1-0.3-0.3-0.5-0.4l0.1-2.7c0-0.3-0.1-0.5-0.3-0.7
			c-0.2-0.2-0.5-0.2-0.8-0.1l-2.4,1.1c-0.2-0.1-0.4-0.2-0.6-0.3l-0.4-2.6c0-0.3-0.2-0.5-0.5-0.6c-0.2-0.1-0.5-0.1-0.8,0.1l-2.2,1.6
			c-0.2-0.1-0.4-0.1-0.6-0.2l-0.9-2.5c-0.1-0.3-0.3-0.4-0.6-0.5c-0.3-0.1-0.5,0-0.7,0.2l-1.8,2c-0.2,0-0.4,0-0.7-0.1l-1.4-2.3
			c-0.1-0.2-0.4-0.4-0.7-0.4c-0.3,0-0.5,0.1-0.7,0.4L97,11.4c-0.2,0-0.4,0-0.7,0.1l-1.8-2c-0.2-0.2-0.5-0.3-0.7-0.2
			c-0.3,0.1-0.5,0.2-0.6,0.5l-0.9,2.5c-0.2,0.1-0.4,0.1-0.6,0.2L89.4,11c-0.2-0.2-0.5-0.2-0.8-0.1c-0.2,0.1-0.4,0.3-0.5,0.6
			l-0.4,2.6c-0.2,0.1-0.4,0.2-0.6,0.3l-2.4-1.1c-0.2-0.1-0.5-0.1-0.8,0.1c-0.2,0.2-0.4,0.4-0.3,0.7l0.1,2.7
			c-0.2,0.1-0.3,0.3-0.5,0.4l-2.6-0.6c-0.3-0.1-0.5,0-0.7,0.2c-0.2,0.2-0.3,0.5-0.2,0.7l0.6,2.6c-0.1,0.2-0.3,0.3-0.4,0.5l-2.7-0.1
			c-0.3,0-0.5,0.1-0.7,0.3c-0.2,0.2-0.2,0.5-0.1,0.8l1.1,2.4c-0.1,0.2-0.2,0.4-0.3,0.6L74.7,25c-0.3,0-0.5,0.2-0.6,0.5
			C74,25.7,74,26,74.1,26.2l1.6,2.2c-0.1,0.2-0.1,0.4-0.2,0.6L73,30c-0.3,0.1-0.4,0.3-0.5,0.6c-0.1,0.3,0,0.5,0.2,0.7l2,1.8
			c0,0.2,0,0.4-0.1,0.7l-2.3,1.4c-0.2,0.1-0.4,0.4-0.4,0.7s0.1,0.5,0.4,0.7l2.3,1.4c0,0.2,0,0.4,0.1,0.7l-2,1.8
			c-0.2,0.2-0.3,0.5-0.2,0.7c0.1,0.3,0.2,0.5,0.5,0.6l2.5,0.9c0.1,0.2,0.1,0.4,0.2,0.6l-1.6,2.2c-0.2,0.2-0.2,0.5-0.1,0.8
			c0.1,0.3,0.3,0.4,0.6,0.5l2.6,0.4c0.1,0.2,0.2,0.4,0.3,0.6l-1.1,2.4c-0.1,0.2-0.1,0.5,0.1,0.8c0.2,0.2,0.4,0.4,0.7,0.3l2.7-0.1
			c0.1,0.2,0.3,0.3,0.4,0.5l-0.6,2.6c-0.1,0.3,0,0.5,0.2,0.7c0.2,0.2,0.5,0.3,0.7,0.2l2.6-0.6c0.2,0.1,0.3,0.3,0.5,0.4l-0.1,2.7
			c0,0.3,0.1,0.5,0.3,0.7c0.2,0.2,0.5,0.2,0.8,0.1l2.4-1.1c0.2,0.1,0.4,0.2,0.6,0.3l0.4,2.6c0,0.3,0.2,0.5,0.5,0.6
			c0.2,0.1,0.5,0.1,0.8-0.1l2.2-1.6c0.2,0.1,0.4,0.1,0.6,0.2l0.9,2.5c0.1,0.3,0.3,0.4,0.6,0.5c0.3,0.1,0.5,0,0.7-0.2l1.8-2
			c0.2,0,0.4,0,0.7,0.1l1.4,2.3c0.1,0.2,0.4,0.4,0.7,0.4c0.3,0,0.5-0.1,0.7-0.4l1.4-2.3c0.2,0,0.4,0,0.7-0.1l1.8,2
			c0.2,0.2,0.5,0.3,0.7,0.2c0.3-0.1,0.5-0.2,0.6-0.5l0.9-2.5c0.2-0.1,0.4-0.1,0.6-0.2l2.2,1.6c0.2,0.2,0.5,0.2,0.8,0.1
			c0.2-0.1,0.4-0.3,0.5-0.6l0.4-2.6c0.2-0.1,0.4-0.2,0.6-0.3l2.4,1.1c0.2,0.1,0.5,0.1,0.8-0.1c0.2-0.2,0.4-0.4,0.3-0.7l-0.1-2.7
			c0.2-0.1,0.3-0.3,0.5-0.4l2.6,0.6c0.3,0.1,0.5,0,0.7-0.2c0.2-0.2,0.3-0.5,0.2-0.7l-0.6-2.6c0.1-0.2,0.3-0.3,0.4-0.5l2.7,0.1
			c0.3,0,0.5-0.1,0.7-0.3c0.2-0.2,0.2-0.5,0.1-0.8l-1.1-2.4c0.1-0.2,0.2-0.4,0.3-0.6l2.6-0.4c0.3,0,0.5-0.2,0.6-0.5
			c0.1-0.2,0.1-0.5-0.1-0.8l-1.6-2.2c0.1-0.2,0.1-0.4,0.2-0.6l2.5-0.9c0.3-0.1,0.4-0.3,0.5-0.6c0.1-0.3,0-0.5-0.2-0.7l-2-1.8
			c0-0.2,0-0.4,0.1-0.7l2.3-1.4c0.2-0.1,0.4-0.4,0.4-0.7S125.9,35.3,125.7,35.2z M110.5,54c-0.9-0.2-1.4-1-1.2-1.9
			c0.2-0.9,1-1.4,1.9-1.2c0.9,0.2,1.4,1,1.2,1.9C112.2,53.6,111.3,54.2,110.5,54z M109.7,48.8c-0.8-0.2-1.6,0.3-1.7,1.1l-0.8,3.8
			c-2.5,1.1-5.2,1.8-8.2,1.8c-3,0-5.8-0.7-8.3-1.8l-0.8-3.8c-0.2-0.8-0.9-1.3-1.7-1.1l-3.3,0.7c-0.6-0.6-1.2-1.3-1.7-2h16.1
			c0.2,0,0.3,0,0.3-0.2v-5.7c0-0.2-0.1-0.2-0.3-0.2h-4.7v-3.6h5.1c0.5,0,2.5,0.1,3.1,2.7c0.2,0.8,0.6,3.4,1,4.2
			c0.3,0.9,1.5,2.8,2.9,2.8h8c0.1,0,0.2,0,0.3,0c-0.6,0.8-1.2,1.5-1.8,2.1L109.7,48.8z M87.4,53.9c-0.9,0.2-1.7-0.4-1.9-1.2
			c-0.2-0.9,0.4-1.7,1.2-1.9c0.9-0.2,1.7,0.4,1.9,1.2C88.8,52.9,88.2,53.7,87.4,53.9z M81.3,29.1c0.4,0.8,0,1.8-0.8,2.1
			c-0.8,0.4-1.8,0-2.1-0.8c-0.4-0.8,0-1.8,0.8-2.1C80,27.9,80.9,28.3,81.3,29.1z M79.4,33.5l3.5-1.5c0.7-0.3,1.1-1.2,0.7-1.9
			l-0.7-1.6h2.8v12.6H80c-0.5-1.7-0.8-3.5-0.8-5.4C79.3,34.9,79.3,34.2,79.4,33.5z M94.5,32.3v-3.7h6.7c0.3,0,2.4,0.4,2.4,2
			c0,1.3-1.6,1.8-2.9,1.8H94.5z M118.8,35.7c0,0.5,0,1-0.1,1.5h-2c-0.2,0-0.3,0.1-0.3,0.3v0.9c0,2.2-1.2,2.7-2.3,2.8
			c-1,0.1-2.2-0.4-2.3-1.1c-0.6-3.4-1.6-4.2-3.2-5.4c2-1.3,4.1-3.1,4.1-5.6c0-2.7-1.8-4.4-3.1-5.2c-1.8-1.2-3.7-1.4-4.2-1.4h-21
			c2.8-3.2,6.7-5.4,11.1-6.2l2.5,2.6c0.6,0.6,1.5,0.6,2.1,0l2.8-2.6c5.8,1.1,10.7,4.7,13.5,9.6l-1.9,4.3c-0.3,0.7,0,1.6,0.7,1.9
			l3.6,1.6C118.7,34.3,118.8,35,118.8,35.7z M97.8,14c0.6-0.6,1.7-0.6,2.3,0.1c0.6,0.6,0.6,1.7-0.1,2.3c-0.6,0.6-1.7,0.6-2.3-0.1
			C97.2,15.7,97.2,14.6,97.8,14z M116.6,29.1c0.4-0.8,1.3-1.2,2.1-0.8c0.8,0.4,1.2,1.3,0.8,2.1c-0.4,0.8-1.3,1.2-2.1,0.8
			C116.6,30.9,116.2,30,116.6,29.1z"/>
	</g>
</g>
</svg>
